<svg width="410" height="232" viewBox="0 0 410 232" fill="none" xmlns="http://www.w3.org/2000/svg">
<path d="M371.586 44.0533H381.876V58.2713L381.248 65.2624H381.876C383.028 63.3772 384.704 61.8585 386.903 60.7064C389.103 59.5543 391.486 58.9783 394.052 58.9783C398.922 58.9783 402.64 60.4446 405.206 63.3772C407.824 66.2574 409.134 70.2636 409.134 75.3956V100.297H398.843V76.6525C398.843 74.0864 398.136 72.0965 396.722 70.6825C395.361 69.2686 393.528 68.5616 391.224 68.5616C388.501 68.5616 386.249 69.6613 384.468 71.8608C382.74 74.0603 381.876 76.7572 381.876 79.9517V100.297H371.586V44.0533Z" fill="#1E1E1E"/>
<path d="M345.409 101.554C341.377 101.554 337.763 100.663 334.569 98.8828C331.374 97.0499 328.861 94.51 327.028 91.2632C325.247 88.0164 324.357 84.3506 324.357 80.2659C324.357 76.1812 325.247 72.5416 327.028 69.3472C328.861 66.1003 331.374 63.5605 334.569 61.7276C337.763 59.8947 341.377 58.9783 345.409 58.9783C349.86 58.9783 353.683 59.9471 356.878 61.8847C360.072 63.77 362.376 66.4669 363.79 69.9756L354.364 73.9032C352.688 70.3421 349.703 68.5616 345.409 68.5616C342.267 68.5616 339.675 69.6352 337.632 71.7823C335.642 73.9294 334.647 76.7572 334.647 80.2659C334.647 83.8269 335.642 86.681 337.632 88.8281C339.675 90.9752 342.267 92.0487 345.409 92.0487C349.755 92.0487 352.898 90.1635 354.835 86.393L364.183 90.4777C362.455 93.9863 359.993 96.7095 356.799 98.6471C353.605 100.585 349.808 101.554 345.409 101.554Z" fill="#1E1E1E"/>
<path d="M298.843 101.553C294.863 101.553 291.275 100.636 288.081 98.8036C284.886 96.9707 282.373 94.457 280.54 91.2626C278.759 88.0158 277.869 84.3762 277.869 80.3438C277.869 76.521 278.759 72.9861 280.54 69.7393C282.32 66.4401 284.782 63.8217 287.924 61.8841C291.066 59.9465 294.575 58.9777 298.45 58.9777C302.587 58.9777 306.148 59.8679 309.133 61.6484C312.118 63.4289 314.37 65.8641 315.888 68.9538C317.459 72.0435 318.245 75.4736 318.245 79.2441C318.245 80.4486 318.166 81.6007 318.009 82.7004H287.924C288.447 85.8949 289.704 88.33 291.694 90.0058C293.737 91.6292 296.172 92.4409 299 92.4409C301.356 92.4409 303.372 91.9434 305.048 90.9484C306.776 89.901 308.138 88.5133 309.133 86.7851L317.459 90.8698C313.375 97.9919 307.169 101.553 298.843 101.553ZM308.347 75.3951C308.243 74.1382 307.771 72.9076 306.933 71.7031C306.148 70.4463 305.022 69.4251 303.556 68.6396C302.142 67.8017 300.466 67.3827 298.528 67.3827C296.067 67.3827 293.946 68.1159 292.166 69.5822C290.437 70.9961 289.181 72.9338 288.395 75.3951H308.347Z" fill="#1E1E1E"/>
<path d="M252.983 54.1074H237.272V44.0527H279.298V54.1074H263.587V100.296H252.983V54.1074Z" fill="#1E1E1E"/>
<path d="M207.256 98.4108L190.367 60.2345H202.071L212.44 85.1355H213.069L223.045 60.2345H234.513L209.77 117.263H198.694L207.256 98.4108Z" fill="#109B83"/>
<path d="M163.755 101.553C159.513 101.553 156.031 100.322 153.308 97.861C150.584 95.3473 149.223 92.0743 149.223 88.042C149.223 85.3712 149.93 83.0146 151.344 80.9723C152.758 78.9299 154.695 77.3589 157.157 76.2591C159.618 75.1594 162.341 74.6095 165.326 74.6095C169.463 74.6095 172.998 75.2118 175.931 76.4162V74.6881C175.931 72.4886 175.093 70.7081 173.417 69.3465C171.794 67.985 169.594 67.3042 166.819 67.3042C164.933 67.3042 163.1 67.7493 161.32 68.6396C159.592 69.4775 158.152 70.6034 157 72.0173L150.401 66.8329C152.339 64.3192 154.774 62.3816 157.707 61.02C160.639 59.6584 163.834 58.9777 167.29 58.9777C173.417 58.9777 178.078 60.3916 181.272 63.2195C184.467 66.0474 186.064 70.1844 186.064 75.6307V100.296H175.931V96.2114H175.302C174.098 97.7824 172.501 99.0654 170.511 100.06C168.573 101.055 166.321 101.553 163.755 101.553ZM166.19 93.5406C169.175 93.5406 171.532 92.598 173.26 90.7127C175.04 88.7751 175.931 86.5233 175.931 83.9572C173.26 82.7004 170.458 82.072 167.526 82.072C162.184 82.072 159.513 84.062 159.513 88.042C159.513 89.6654 160.089 91.0008 161.241 92.0481C162.393 93.0431 164.043 93.5406 166.19 93.5406Z" fill="#109B83"/>
<path d="M104.861 60.2346H114.523V65.2619H115.151C116.355 63.3243 118.057 61.8056 120.257 60.7059C122.456 59.5538 124.839 58.9778 127.405 58.9778C132.223 58.9778 135.889 60.4441 138.402 63.3767C140.916 66.3093 142.173 70.3155 142.173 75.3952V100.296H131.883V76.652C131.883 74.086 131.228 72.096 129.919 70.682C128.61 69.2681 126.777 68.5611 124.42 68.5611C121.645 68.5611 119.393 69.6347 117.665 71.7818C115.989 73.9289 115.151 76.6258 115.151 79.8726V100.296H104.861V60.2346ZM129.212 52.615C128.06 52.615 126.986 52.4317 125.991 52.0652C124.996 51.6462 123.87 51.0964 122.613 50.4156C122.509 50.3632 122.116 50.1537 121.435 49.7872C120.754 49.4206 120.204 49.2373 119.786 49.2373C118.476 49.2373 117.796 49.9966 117.743 51.5153H110.516C110.516 48.2685 111.38 45.8072 113.109 44.1314C114.889 42.4033 117.062 41.5392 119.628 41.5392C120.833 41.5392 121.906 41.7225 122.849 42.089C123.792 42.4556 124.996 43.0317 126.462 43.8172C127.772 44.5503 128.636 44.9169 129.055 44.9169C129.735 44.9169 130.233 44.7336 130.547 44.3671C130.861 44.0005 131.071 43.4244 131.176 42.6389H138.402C138.402 45.8334 137.512 48.2947 135.732 50.0228C133.951 51.751 131.778 52.615 129.212 52.615Z" fill="#109B83"/>
<path d="M88.9643 55.8355C87.1314 55.8355 85.5604 55.1809 84.2512 53.8717C82.942 52.5625 82.2874 50.9914 82.2874 49.1586C82.2874 47.3257 82.942 45.7808 84.2512 44.524C85.5604 43.2148 87.1314 42.5602 88.9643 42.5602C90.7972 42.5602 92.342 43.2148 93.5989 44.524C94.9081 45.7808 95.5627 47.3257 95.5627 49.1586C95.5627 50.9914 94.9081 52.5625 93.5989 53.8717C92.342 55.1809 90.7972 55.8355 88.9643 55.8355ZM83.7798 60.2344H94.0702V100.296H83.7798V60.2344Z" fill="#109B83"/>
<path d="M3.66895 44.0527H15.4518L23.1499 75.6307L24.0925 81.5221H24.7209L25.9778 75.6307L35.8753 44.0527H46.3228L55.9847 75.6307L57.2415 81.365H57.8699L58.8126 75.6307L66.4321 44.0527H78.2149L63.6828 100.296H52.2927L42.7094 66.3615L41.4525 60.313H40.8241L39.5673 66.3615L29.5126 100.296H18.5939L3.66895 44.0527Z" fill="#109B83"/>
<path d="M397.466 158.576C395.185 158.576 393.128 158.051 391.297 157C389.466 155.949 388.024 154.508 386.974 152.677C385.953 150.816 385.443 148.729 385.443 146.418C385.443 144.226 385.953 142.2 386.974 140.338C387.994 138.447 389.405 136.946 391.207 135.835C393.008 134.724 395.019 134.169 397.241 134.169C399.613 134.169 401.654 134.679 403.365 135.7C405.077 136.721 406.368 138.117 407.238 139.888C408.139 141.659 408.589 143.626 408.589 145.787C408.589 146.478 408.544 147.138 408.454 147.769H391.207C391.507 149.6 392.227 150.996 393.368 151.957C394.539 152.887 395.935 153.353 397.556 153.353C398.907 153.353 400.063 153.067 401.024 152.497C402.014 151.897 402.795 151.101 403.365 150.11L408.139 152.452C405.797 156.535 402.24 158.576 397.466 158.576ZM402.915 143.581C402.855 142.86 402.585 142.155 402.105 141.464C401.654 140.744 401.009 140.158 400.168 139.708C399.358 139.228 398.397 138.987 397.286 138.987C395.875 138.987 394.659 139.408 393.638 140.248C392.648 141.059 391.927 142.17 391.477 143.581H402.915Z" fill="#109B83"/>
<path d="M375.226 125.613H381.125V157.856H375.226V125.613Z" fill="#109B83"/>
<path d="M359.826 158.576C358.265 158.576 356.869 158.246 355.638 157.586C354.437 156.925 353.536 156.1 352.936 155.109H352.576V157.856H347.037V125.613H352.936V134.439L352.576 137.682H352.936C353.566 136.691 354.482 135.865 355.683 135.205C356.884 134.514 358.265 134.169 359.826 134.169C361.897 134.169 363.774 134.694 365.455 135.745C367.166 136.766 368.502 138.207 369.463 140.068C370.423 141.93 370.904 144.031 370.904 146.373C370.904 148.744 370.423 150.861 369.463 152.722C368.502 154.554 367.166 155.995 365.455 157.045C363.774 158.066 361.897 158.576 359.826 158.576ZM358.79 153.128C359.901 153.128 360.936 152.842 361.897 152.272C362.858 151.702 363.623 150.906 364.194 149.885C364.764 148.865 365.049 147.694 365.049 146.373C365.049 145.052 364.764 143.881 364.194 142.86C363.623 141.84 362.858 141.059 361.897 140.519C360.936 139.948 359.901 139.663 358.79 139.663C357.709 139.663 356.688 139.948 355.728 140.519C354.767 141.059 354.002 141.84 353.431 142.86C352.861 143.881 352.576 145.052 352.576 146.373C352.576 147.694 352.861 148.865 353.431 149.885C354.002 150.906 354.767 151.702 355.728 152.272C356.688 152.842 357.709 153.128 358.79 153.128Z" fill="#109B83"/>
<path d="M337.924 132.368C336.873 132.368 335.973 131.992 335.222 131.242C334.471 130.491 334.096 129.591 334.096 128.54C334.096 127.489 334.471 126.604 335.222 125.883C335.973 125.133 336.873 124.757 337.924 124.757C338.975 124.757 339.86 125.133 340.581 125.883C341.331 126.604 341.707 127.489 341.707 128.54C341.707 129.591 341.331 130.491 340.581 131.242C339.86 131.992 338.975 132.368 337.924 132.368ZM334.952 134.89H340.851V157.856H334.952V134.89Z" fill="#109B83"/>
<path d="M320.812 158.576C318.02 158.576 315.753 158.006 314.012 156.865C312.301 155.724 311.1 154.238 310.409 152.407L315.678 150.11C316.158 151.191 316.834 152.017 317.704 152.587C318.605 153.127 319.641 153.398 320.812 153.398C321.892 153.398 322.793 153.233 323.514 152.902C324.234 152.542 324.594 151.972 324.594 151.191C324.594 150.441 324.264 149.885 323.604 149.525C322.943 149.135 321.952 148.789 320.631 148.489L317.93 147.904C316.068 147.453 314.522 146.643 313.291 145.472C312.06 144.271 311.445 142.785 311.445 141.014C311.445 139.693 311.835 138.507 312.616 137.456C313.426 136.406 314.507 135.595 315.858 135.025C317.239 134.454 318.755 134.169 320.406 134.169C325.15 134.169 328.317 135.835 329.908 139.168L324.864 141.374C323.964 139.753 322.523 138.942 320.541 138.942C319.521 138.942 318.71 139.137 318.11 139.528C317.509 139.888 317.209 140.353 317.209 140.924C317.209 142.005 318.23 142.815 320.271 143.355L323.649 144.166C325.93 144.736 327.641 145.607 328.782 146.778C329.953 147.949 330.538 149.39 330.538 151.101C330.538 152.572 330.103 153.878 329.233 155.019C328.392 156.13 327.221 157 325.72 157.631C324.249 158.261 322.613 158.576 320.812 158.576Z" fill="#109B83"/>
<path d="M295.578 158.576C293.206 158.576 291.09 158.051 289.228 157C287.367 155.919 285.911 154.463 284.86 152.632C283.839 150.771 283.329 148.684 283.329 146.373C283.329 144.091 283.839 142.02 284.86 140.158C285.911 138.297 287.367 136.841 289.228 135.79C291.09 134.709 293.206 134.169 295.578 134.169C297.919 134.169 300.021 134.709 301.882 135.79C303.744 136.841 305.185 138.297 306.205 140.158C307.256 142.02 307.782 144.091 307.782 146.373C307.782 148.684 307.256 150.771 306.205 152.632C305.185 154.463 303.744 155.919 301.882 157C300.021 158.051 297.919 158.576 295.578 158.576ZM295.578 153.127C296.719 153.127 297.769 152.857 298.73 152.317C299.691 151.776 300.456 150.996 301.027 149.975C301.597 148.954 301.882 147.754 301.882 146.373C301.882 145.022 301.597 143.836 301.027 142.815C300.456 141.794 299.691 141.014 298.73 140.473C297.769 139.933 296.719 139.663 295.578 139.663C294.437 139.663 293.386 139.933 292.426 140.473C291.465 141.014 290.684 141.794 290.084 142.815C289.513 143.836 289.228 145.022 289.228 146.373C289.228 147.724 289.513 148.924 290.084 149.975C290.684 150.996 291.465 151.776 292.426 152.317C293.386 152.857 294.437 153.127 295.578 153.127Z" fill="#109B83"/>
<path d="M259.499 125.613H270.847C272.888 125.613 274.749 126.048 276.431 126.919C278.112 127.76 279.433 128.96 280.393 130.522C281.354 132.053 281.834 133.809 281.834 135.79C281.834 137.772 281.354 139.543 280.393 141.104C279.433 142.665 278.112 143.881 276.431 144.752C274.749 145.592 272.888 146.013 270.847 146.013H265.578V157.856H259.499V125.613ZM271.027 140.248C272.528 140.248 273.699 139.813 274.539 138.943C275.41 138.072 275.845 137.021 275.845 135.79C275.845 134.559 275.41 133.524 274.539 132.683C273.699 131.812 272.528 131.377 271.027 131.377H265.578V140.248H271.027Z" fill="#109B83"/>
<path d="M231.416 158.576C229.044 158.576 226.928 158.051 225.066 157C223.205 155.919 221.749 154.463 220.698 152.632C219.678 150.771 219.167 148.684 219.167 146.373C219.167 144.091 219.678 142.02 220.698 140.158C221.749 138.297 223.205 136.841 225.066 135.79C226.928 134.709 229.044 134.169 231.416 134.169C233.758 134.169 235.859 134.709 237.72 135.79C239.582 136.841 241.023 138.297 242.044 140.158C243.094 142.02 243.62 144.091 243.62 146.373C243.62 148.684 243.094 150.771 242.044 152.632C241.023 154.463 239.582 155.919 237.72 157C235.859 158.051 233.758 158.576 231.416 158.576ZM231.416 153.127C232.557 153.127 233.608 152.857 234.568 152.317C235.529 151.776 236.294 150.996 236.865 149.975C237.435 148.954 237.72 147.754 237.72 146.373C237.72 145.022 237.435 143.836 236.865 142.815C236.294 141.794 235.529 141.014 234.568 140.473C233.608 139.933 232.557 139.663 231.416 139.663C230.275 139.663 229.224 139.933 228.264 140.473C227.303 141.014 226.522 141.794 225.922 142.815C225.352 143.836 225.066 145.022 225.066 146.373C225.066 147.724 225.352 148.924 225.922 149.975C226.522 150.996 227.303 151.776 228.264 152.317C229.224 152.857 230.275 153.127 231.416 153.127Z" fill="#1E1E1E"/>
<path d="M208.95 125.613H214.85V157.856H208.95V125.613Z" fill="#1E1E1E"/>
<path d="M182.728 158.576C180.447 158.576 178.39 158.051 176.559 157C174.728 155.949 173.287 154.508 172.236 152.677C171.215 150.816 170.705 148.729 170.705 146.418C170.705 144.226 171.215 142.2 172.236 140.338C173.257 138.447 174.668 136.946 176.469 135.835C178.27 134.724 180.282 134.169 182.503 134.169C184.875 134.169 186.916 134.679 188.628 135.7C190.339 136.721 191.63 138.117 192.5 139.888C193.401 141.659 193.851 143.626 193.851 145.787C193.851 146.478 193.806 147.138 193.716 147.769H176.469C176.769 149.6 177.49 150.996 178.63 151.957C179.801 152.887 181.197 153.353 182.818 153.353C184.169 153.353 185.325 153.067 186.286 152.497C187.277 151.897 188.057 151.101 188.628 150.11L193.401 152.452C191.059 156.535 187.502 158.576 182.728 158.576ZM188.177 143.581C188.117 142.86 187.847 142.155 187.367 141.464C186.916 140.744 186.271 140.158 185.43 139.708C184.62 139.228 183.659 138.987 182.548 138.987C181.137 138.987 179.921 139.408 178.901 140.248C177.91 141.059 177.189 142.17 176.739 143.581H188.177Z" fill="#1E1E1E"/>
<path d="M145.008 134.889H150.547V137.772H150.908C151.598 136.661 152.574 135.79 153.835 135.16C155.095 134.499 156.461 134.169 157.933 134.169C160.694 134.169 162.796 135.01 164.237 136.691C165.678 138.372 166.399 140.669 166.399 143.581V157.856H160.499V144.301C160.499 142.83 160.124 141.689 159.374 140.879C158.623 140.068 157.572 139.663 156.221 139.663C154.63 139.663 153.339 140.278 152.349 141.509C151.388 142.74 150.908 144.286 150.908 146.147V157.856H145.008V134.889Z" fill="#1E1E1E"/>
<path d="M135.9 132.593C134.849 132.593 133.948 132.217 133.198 131.467C132.477 130.716 132.117 129.816 132.117 128.765C132.117 127.714 132.477 126.828 133.198 126.108C133.948 125.357 134.849 124.982 135.9 124.982C136.95 124.982 137.851 125.357 138.601 126.108C139.352 126.828 139.727 127.714 139.727 128.765C139.727 129.816 139.352 130.716 138.601 131.467C137.851 132.217 136.95 132.593 135.9 132.593ZM117.977 139.933H113.879V134.889H117.977V133.628C117.977 131.016 118.757 128.975 120.318 127.504C121.88 126.003 123.921 125.252 126.443 125.252C127.464 125.252 128.304 125.342 128.965 125.523V131.197C128.845 131.167 128.589 131.092 128.199 130.971C127.809 130.851 127.343 130.791 126.803 130.791C125.932 130.791 125.227 131.077 124.687 131.647C124.146 132.217 123.876 132.998 123.876 133.989V134.889H138.872V157.856H132.972V139.933H123.876V157.856H117.977V139.933Z" fill="#1E1E1E"/>
<path d="M100.272 158.576C97.9907 158.576 95.9343 158.051 94.1029 157C92.2716 155.949 90.8306 154.508 89.7799 152.677C88.7591 150.816 88.2488 148.729 88.2488 146.418C88.2488 144.226 88.7591 142.2 89.7799 140.338C90.8006 138.447 92.2116 136.946 94.0129 135.835C95.8142 134.724 97.8256 134.169 100.047 134.169C102.419 134.169 104.46 134.679 106.172 135.7C107.883 136.721 109.174 138.117 110.044 139.888C110.945 141.659 111.395 143.626 111.395 145.787C111.395 146.478 111.35 147.138 111.26 147.769H94.0129C94.3131 149.6 95.0336 150.996 96.1744 151.957C97.3453 152.887 98.7412 153.353 100.362 153.353C101.713 153.353 102.869 153.067 103.83 152.497C104.821 151.897 105.601 151.101 106.172 150.11L110.945 152.452C108.603 156.535 105.046 158.576 100.272 158.576ZM105.721 143.581C105.661 142.86 105.391 142.155 104.911 141.464C104.46 140.744 103.815 140.158 102.974 139.708C102.164 139.228 101.203 138.987 100.092 138.987C98.6812 138.987 97.4653 139.408 96.4446 140.248C95.4539 141.059 94.7334 142.17 94.2831 143.581H105.721Z" fill="#1E1E1E"/>
<path d="M71.1827 158.576C69.1113 158.576 67.2199 158.066 65.5087 157.045C63.8275 155.995 62.4915 154.554 61.5008 152.722C60.5402 150.861 60.0598 148.744 60.0598 146.373C60.0598 144.031 60.5402 141.93 61.5008 140.068C62.4915 138.207 63.8275 136.766 65.5087 135.745C67.2199 134.694 69.1113 134.169 71.1827 134.169C72.7438 134.169 74.1248 134.514 75.3257 135.205C76.5265 135.865 77.4422 136.691 78.0726 137.682H78.4329L78.0726 134.439V125.613H83.9268V157.856H78.4329V155.109H78.0726C77.4722 156.1 76.5566 156.925 75.3257 157.586C74.1248 158.246 72.7438 158.576 71.1827 158.576ZM72.1734 153.128C73.2842 153.128 74.32 152.842 75.2806 152.272C76.2413 151.702 77.0069 150.906 77.5773 149.885C78.1477 148.865 78.4329 147.694 78.4329 146.373C78.4329 145.052 78.1477 143.881 77.5773 142.86C77.0069 141.84 76.2413 141.059 75.2806 140.519C74.32 139.948 73.2842 139.663 72.1734 139.663C71.0927 139.663 70.0719 139.948 69.1113 140.519C68.1506 141.059 67.385 141.84 66.8146 142.86C66.2442 143.881 65.959 145.052 65.959 146.373C65.959 147.694 66.2442 148.865 66.8146 149.885C67.385 150.906 68.1506 151.702 69.1113 152.272C70.0719 152.842 71.0927 153.128 72.1734 153.128Z" fill="#1E1E1E"/>
<path d="M45.4335 158.576C43.1518 158.576 41.0954 158.051 39.2641 157C37.4328 155.949 35.9917 154.508 34.941 152.677C33.9203 150.816 33.4099 148.729 33.4099 146.418C33.4099 144.226 33.9203 142.2 34.941 140.338C35.9617 138.447 37.3727 136.946 39.174 135.835C40.9753 134.724 42.9867 134.169 45.2083 134.169C47.58 134.169 49.6214 134.679 51.3327 135.7C53.0439 136.721 54.3348 138.117 55.2054 139.888C56.1061 141.659 56.5564 143.626 56.5564 145.787C56.5564 146.478 56.5114 147.138 56.4213 147.769H39.174C39.4742 149.6 40.1947 150.996 41.3356 151.957C42.5064 152.887 43.9024 153.353 45.5235 153.353C46.8745 153.353 48.0303 153.067 48.991 152.497C49.9817 151.897 50.7623 151.101 51.3327 150.11L56.1061 152.452C53.7644 156.535 50.2069 158.576 45.4335 158.576ZM50.8823 143.581C50.8223 142.86 50.5521 142.155 50.0718 141.464C49.6214 140.744 48.976 140.158 48.1354 139.708C47.3248 139.228 46.3641 138.987 45.2533 138.987C43.8423 138.987 42.6265 139.408 41.6057 140.248C40.615 141.059 39.8945 142.17 39.4442 143.581H50.8823Z" fill="#1E1E1E"/>
<path d="M7.38062 125.613H19.134C21.2355 125.613 23.0968 126.048 24.718 126.919C26.3691 127.79 27.645 129.005 28.5457 130.567C29.4463 132.098 29.8966 133.839 29.8966 135.79C29.8966 137.862 29.2362 139.708 27.9152 141.329C26.6243 142.92 24.9881 144.076 23.0067 144.797L22.9617 145.112L31.6079 157.496V157.856H24.6279L16.297 145.742H13.4599V157.856H7.38062V125.613ZM19.0889 140.158C20.4699 140.158 21.5957 139.738 22.4663 138.897C23.337 138.057 23.7723 136.991 23.7723 135.7C23.7723 134.469 23.352 133.419 22.5114 132.548C21.7008 131.677 20.59 131.242 19.179 131.242H13.4599V140.158H19.0889Z" fill="#1E1E1E"/>
<path d="M403.002 21.5274C402.081 21.5274 401.17 21.3355 400.268 20.9518C399.366 20.5489 398.57 19.9541 397.879 19.1674C397.189 18.3616 396.699 17.3735 396.412 16.2031L398.57 15.3397C398.858 16.5101 399.386 17.4502 400.153 18.1601C400.94 18.8509 401.87 19.1962 402.945 19.1962C404.23 19.1962 405.276 18.8029 406.082 18.0162C406.888 17.2296 407.29 16.2031 407.29 14.9368C407.29 13.6897 406.888 12.6632 406.082 11.8573C405.295 11.0323 404.269 10.6198 403.002 10.6198C402.312 10.6198 401.659 10.7829 401.045 11.1091C400.431 11.4161 399.932 11.8478 399.549 12.4042L397.045 11.3105L398.34 1.38147H408.528V3.71264H400.354L399.577 9.67007L399.693 9.69886C400.709 8.83546 401.957 8.40376 403.434 8.40376C404.566 8.40376 405.612 8.68197 406.571 9.23838C407.549 9.79479 408.326 10.5718 408.902 11.5695C409.478 12.5673 409.766 13.6801 409.766 14.908C409.766 16.136 409.468 17.2584 408.873 18.2753C408.298 19.273 407.492 20.0692 406.456 20.664C405.42 21.2396 404.269 21.5274 403.002 21.5274Z" fill="#1E1E1E"/>
<path d="M381.291 18.6205C381.886 18.0257 383.066 16.8362 384.831 15.0518C386.596 13.2483 387.824 11.9724 388.515 11.2241C389.493 10.1688 390.155 9.34381 390.501 8.74903C390.846 8.15424 391.019 7.43475 391.019 6.59054C391.019 6.01494 390.865 5.47771 390.558 4.97886C390.27 4.46082 389.839 4.04831 389.263 3.74133C388.707 3.41515 388.035 3.25207 387.248 3.25207C386.212 3.25207 385.378 3.55906 384.745 4.17303C384.131 4.76781 383.728 5.42015 383.536 6.13006L381.291 5.23788C381.483 4.62391 381.828 3.99075 382.327 3.33841C382.826 2.66688 383.497 2.10087 384.342 1.6404C385.186 1.16073 386.184 0.920898 387.335 0.920898C388.544 0.920898 389.608 1.17992 390.529 1.69796C391.47 2.21599 392.199 2.90671 392.717 3.77011C393.235 4.6335 393.494 5.56405 393.494 6.56176C393.494 8.57635 392.438 10.6581 390.328 12.807L384.428 18.7356H393.724V21.0668H381.291V18.6205Z" fill="#1E1E1E"/>
<path d="M370.995 21.5273C369.441 21.5273 368.059 21.0764 366.851 20.1746C365.661 19.2537 364.74 18.0161 364.088 16.462C363.454 14.8887 363.138 13.1428 363.138 11.2241C363.138 9.30544 363.454 7.56905 364.088 6.01494C364.74 4.44164 365.661 3.2041 366.851 2.30233C368.04 1.38138 369.422 0.920898 370.995 0.920898C372.568 0.920898 373.95 1.38138 375.139 2.30233C376.329 3.2041 377.24 4.44164 377.873 6.01494C378.526 7.56905 378.852 9.30544 378.852 11.2241C378.852 13.1428 378.526 14.8887 377.873 16.462C377.24 18.0161 376.319 19.2537 375.11 20.1746C373.921 21.0764 372.549 21.5273 370.995 21.5273ZM370.995 19.1961C372.088 19.1961 373.038 18.8508 373.844 18.16C374.65 17.4501 375.273 16.4908 375.715 15.2821C376.156 14.0733 376.377 12.7207 376.377 11.2241C376.377 9.72754 376.156 8.37489 375.715 7.16613C375.273 5.95738 374.65 5.00764 373.844 4.31693C373.038 3.60702 372.088 3.25207 370.995 3.25207C369.901 3.25207 368.951 3.60702 368.146 4.31693C367.34 5.00764 366.716 5.95738 366.275 7.16613C365.834 8.37489 365.613 9.72754 365.613 11.2241C365.613 12.7207 365.834 14.0733 366.275 15.2821C366.716 16.4908 367.34 17.4501 368.146 18.16C368.951 18.8508 369.901 19.1961 370.995 19.1961Z" fill="#1E1E1E"/>
<path d="M347.902 18.6205C348.497 18.0257 349.677 16.8362 351.442 15.0518C353.207 13.2483 354.435 11.9724 355.126 11.2241C356.104 10.1688 356.766 9.34381 357.111 8.74903C357.457 8.15424 357.629 7.43475 357.629 6.59054C357.629 6.01494 357.476 5.47771 357.169 4.97886C356.881 4.46082 356.449 4.04831 355.874 3.74133C355.317 3.41515 354.646 3.25207 353.859 3.25207C352.823 3.25207 351.989 3.55906 351.355 4.17303C350.741 4.76781 350.339 5.42015 350.147 6.13006L347.902 5.23788C348.094 4.62391 348.439 3.99075 348.938 3.33841C349.437 2.66688 350.108 2.10087 350.953 1.6404C351.797 1.16073 352.794 0.920898 353.946 0.920898C355.154 0.920898 356.219 1.17992 357.14 1.69796C358.08 2.21599 358.809 2.90671 359.327 3.77011C359.846 4.6335 360.105 5.56405 360.105 6.56176C360.105 8.57635 359.049 10.6581 356.939 12.807L351.039 18.7356H360.335V21.0668H347.902V18.6205Z" fill="#1E1E1E"/>
<path d="M331.381 20.1459L325.308 6.38916H327.956L332.561 17.2967H332.618L337.051 6.38916H339.698L330.633 27.2834H328.1L331.381 20.1459Z" fill="#1E1E1E"/>
<path d="M316.574 21.5273C315.5 21.5273 314.54 21.3162 313.696 20.8941C312.852 20.472 312.2 19.8964 311.739 19.1673C311.279 18.4191 311.048 17.5748 311.048 16.6347C311.048 15.0806 311.634 13.8718 312.804 13.0084C313.974 12.1259 315.452 11.6846 317.236 11.6846C318.119 11.6846 318.934 11.7805 319.682 11.9724C320.45 12.1642 321.035 12.3849 321.438 12.6343V11.7421C321.438 10.6485 321.054 9.7755 320.287 9.12316C319.519 8.45163 318.55 8.11586 317.38 8.11586C316.555 8.11586 315.797 8.29813 315.106 8.66268C314.416 9.00804 313.869 9.49729 313.466 10.1305L311.624 8.74902C312.2 7.86643 312.986 7.17572 313.984 6.67687C315.001 6.17802 316.123 5.92859 317.351 5.92859C319.347 5.92859 320.91 6.45622 322.042 7.51148C323.193 8.54756 323.769 9.96737 323.769 11.7709V21.0668H321.438V18.9659H321.323C320.901 19.6758 320.267 20.2802 319.423 20.779C318.579 21.2779 317.629 21.5273 316.574 21.5273ZM316.804 19.3688C317.629 19.3688 318.397 19.1577 319.107 18.7356C319.817 18.3135 320.383 17.7475 320.805 17.0376C321.227 16.3277 321.438 15.5507 321.438 14.7065C320.977 14.3995 320.411 14.15 319.74 13.9582C319.068 13.7663 318.358 13.6704 317.61 13.6704C316.267 13.6704 315.25 13.9486 314.559 14.505C313.888 15.0614 313.552 15.7809 313.552 16.6635C313.552 17.4693 313.859 18.1217 314.473 18.6205C315.087 19.1194 315.864 19.3688 316.804 19.3688Z" fill="#1E1E1E"/>
<path d="M292.136 0.460571H298.353C300.463 0.460571 302.305 0.901863 303.879 1.78445C305.452 2.64784 306.661 3.8566 307.505 5.41071C308.349 6.96482 308.771 8.74918 308.771 10.7638C308.771 12.7784 308.349 14.5627 307.505 16.1168C306.661 17.6709 305.452 18.8893 303.879 19.7719C302.305 20.6353 300.463 21.067 298.353 21.067H292.136V0.460571ZM298.353 18.7358C300.79 18.7358 302.718 18.0355 304.138 16.6349C305.577 15.2342 306.296 13.2772 306.296 10.7638C306.296 8.25033 305.577 6.29329 304.138 4.89267C302.718 3.49205 300.79 2.79174 298.353 2.79174H294.554V18.7358H298.353Z" fill="#1E1E1E"/>
<path d="M276.478 21.5273C274.905 21.5273 273.59 21.1627 272.535 20.4336C271.48 19.6854 270.732 18.7356 270.29 17.5844L272.478 16.6059C272.842 17.4885 273.379 18.1696 274.089 18.6493C274.818 19.129 275.615 19.3688 276.478 19.3688C277.399 19.3688 278.186 19.1865 278.838 18.822C279.49 18.4382 279.816 17.901 279.816 17.2103C279.816 16.5963 279.557 16.1071 279.039 15.7425C278.521 15.3588 277.706 15.0326 276.593 14.764L274.809 14.3035C273.638 14.0157 272.679 13.5265 271.931 12.8358C271.182 12.145 270.808 11.2529 270.808 10.1592C270.808 9.31502 271.058 8.57634 271.557 7.94318C272.075 7.29084 272.756 6.79199 273.6 6.44663C274.444 6.10127 275.356 5.92859 276.334 5.92859C277.62 5.92859 278.761 6.2068 279.759 6.76321C280.776 7.31962 281.495 8.09667 281.917 9.09438L279.788 10.0729C279.135 8.7682 277.974 8.11586 276.305 8.11586C275.499 8.11586 274.79 8.30773 274.176 8.69146C273.581 9.056 273.283 9.52607 273.283 10.1017C273.283 10.6389 273.494 11.0802 273.917 11.4255C274.339 11.7517 274.972 12.0203 275.816 12.2314L277.946 12.7782C279.385 13.1427 280.469 13.6896 281.198 14.4187C281.927 15.1286 282.291 16.0015 282.291 17.0376C282.291 17.9394 282.032 18.7356 281.514 19.4264C280.996 20.0979 280.296 20.6159 279.414 20.9805C278.531 21.345 277.552 21.5273 276.478 21.5273Z" fill="#1E1E1E"/>
<path d="M265.837 5.64086L267.247 3.48237C266.902 3.42481 266.595 3.25213 266.326 2.96433C266.058 2.65734 265.923 2.2832 265.923 1.84191C265.923 1.32387 266.096 0.892176 266.441 0.546818C266.806 0.182273 267.238 0 267.736 0C268.254 0 268.686 0.182273 269.031 0.546818C269.396 0.892176 269.578 1.32387 269.578 1.84191C269.578 2.1489 269.511 2.44629 269.377 2.73409C269.262 3.02189 269.07 3.36725 268.801 3.77017L266.988 6.38913L265.837 5.64086Z" fill="#1E1E1E"/>
<path d="M250.67 6.38907H253.001V8.54756H253.116C253.519 7.81847 254.162 7.2045 255.044 6.70565C255.927 6.18761 256.867 5.92859 257.865 5.92859C259.63 5.92859 260.973 6.44663 261.894 7.4827C262.834 8.49959 263.304 9.89062 263.304 11.6558V21.0668H260.858V12.0299C260.858 10.6677 260.532 9.67957 259.879 9.0656C259.227 8.45162 258.335 8.14464 257.203 8.14464C256.416 8.14464 255.706 8.36529 255.073 8.80658C254.459 9.24787 253.979 9.83306 253.634 10.5622C253.289 11.2721 253.116 12.0203 253.116 12.807V21.0668H250.67V6.38907Z" fill="#1E1E1E"/>
<path d="M240.986 21.5273C239.585 21.5273 238.329 21.1915 237.216 20.52C236.103 19.8485 235.23 18.9275 234.597 17.7571C233.983 16.5676 233.676 15.2341 233.676 13.7567C233.676 12.3369 233.964 11.0322 234.539 9.84265C235.134 8.65308 235.969 7.70335 237.043 6.99344C238.117 6.28354 239.365 5.92859 240.784 5.92859C242.223 5.92859 243.471 6.25476 244.526 6.90711C245.581 7.54026 246.387 8.42285 246.943 9.55485C247.519 10.6869 247.807 11.982 247.807 13.4401C247.807 13.7279 247.778 13.9774 247.72 14.1884H236.122C236.18 15.3012 236.448 16.2414 236.928 17.0088C237.408 17.7763 238.012 18.3519 238.741 18.7356C239.489 19.1194 240.266 19.3112 241.072 19.3112C242.953 19.3112 244.401 18.4287 245.418 16.6635L247.49 17.6708C246.857 18.8603 245.994 19.8005 244.9 20.4912C243.825 21.1819 242.521 21.5273 240.986 21.5273ZM245.217 12.1738C245.178 11.5599 245.005 10.9459 244.698 10.3319C244.391 9.71794 243.902 9.1999 243.231 8.7778C242.578 8.35569 241.753 8.14464 240.756 8.14464C239.604 8.14464 238.626 8.51878 237.82 9.26706C237.033 9.99615 236.515 10.9651 236.266 12.1738H245.217Z" fill="#1E1E1E"/>
<path d="M209.271 6.38907H211.602V8.54756H211.717C212.139 7.79928 212.772 7.17572 213.616 6.67687C214.46 6.17802 215.353 5.92859 216.293 5.92859C217.367 5.92859 218.298 6.18761 219.084 6.70565C219.89 7.22368 220.466 7.9144 220.811 8.7778C221.329 7.9144 222.01 7.22368 222.855 6.70565C223.718 6.18761 224.716 5.92859 225.848 5.92859C227.536 5.92859 228.802 6.44663 229.647 7.4827C230.51 8.49959 230.942 9.89062 230.942 11.6558V21.0668H228.524V12.0299C228.524 10.6677 228.246 9.67957 227.69 9.0656C227.133 8.45162 226.308 8.14464 225.215 8.14464C224.485 8.14464 223.824 8.35569 223.229 8.7778C222.634 9.1999 222.164 9.76591 221.819 10.4758C221.492 11.1857 221.329 11.9532 221.329 12.7782V21.0668H218.883V12.0587C218.883 10.6773 218.605 9.67957 218.048 9.0656C217.492 8.45162 216.677 8.14464 215.602 8.14464C214.873 8.14464 214.211 8.36529 213.616 8.80658C213.021 9.22868 212.551 9.80428 212.206 10.5334C211.88 11.2433 211.717 12.0107 211.717 12.8358V21.0668H209.271V6.38907Z" fill="#1E1E1E"/>
<path d="M199.17 21.5273C197.731 21.5273 196.436 21.1819 195.285 20.4912C194.134 19.8005 193.232 18.8603 192.58 17.6708C191.947 16.4812 191.63 15.1669 191.63 13.7279C191.63 12.2889 191.947 10.9747 192.58 9.78509C193.232 8.59552 194.134 7.65538 195.285 6.96466C196.436 6.27395 197.731 5.92859 199.17 5.92859C200.609 5.92859 201.905 6.27395 203.056 6.96466C204.207 7.65538 205.099 8.59552 205.732 9.78509C206.385 10.9747 206.711 12.2889 206.711 13.7279C206.711 15.1669 206.385 16.4812 205.732 17.6708C205.099 18.8603 204.207 19.8005 203.056 20.4912C201.905 21.1819 200.609 21.5273 199.17 21.5273ZM199.17 19.3112C200.072 19.3112 200.907 19.0906 201.674 18.6493C202.461 18.1888 203.085 17.5365 203.545 16.6923C204.025 15.8481 204.264 14.8599 204.264 13.7279C204.264 12.5959 204.025 11.6078 203.545 10.7636C203.085 9.9194 202.461 9.27665 201.674 8.83536C200.907 8.37488 200.072 8.14464 199.17 8.14464C198.269 8.14464 197.424 8.37488 196.638 8.83536C195.851 9.27665 195.218 9.9194 194.738 10.7636C194.278 11.6078 194.048 12.5959 194.048 13.7279C194.048 14.8599 194.278 15.8481 194.738 16.6923C195.218 17.5365 195.851 18.1888 196.638 18.6493C197.424 19.0906 198.269 19.3112 199.17 19.3112Z" fill="#1E1E1E"/>
<path d="M165.536 0.460571H168.241L171.982 15.5988L172.328 17.009H172.443L172.875 15.5988L177.479 0.460571H180.012L184.415 15.5988L184.847 17.009H184.962L189.02 0.460571H191.725L186.171 21.067H183.638L179.264 6.15899L178.803 4.54731H178.688L178.199 6.15899L173.652 21.067H171.119L165.536 0.460571Z" fill="#1E1E1E"/>
<path d="M155.252 0.460571H157.698V21.067H155.252V0.460571Z" fill="#1E1E1E"/>
<path d="M144.654 21.5273C143.579 21.5273 142.62 21.3162 141.776 20.8941C140.931 20.472 140.279 19.8964 139.819 19.1673C139.358 18.4191 139.128 17.5748 139.128 16.6347C139.128 15.0806 139.713 13.8718 140.884 13.0084C142.054 12.1259 143.531 11.6846 145.316 11.6846C146.198 11.6846 147.014 11.7805 147.762 11.9724C148.529 12.1642 149.115 12.3849 149.517 12.6343V11.7421C149.517 10.6485 149.134 9.7755 148.366 9.12316C147.599 8.45163 146.63 8.11586 145.459 8.11586C144.634 8.11586 143.877 8.29813 143.186 8.66268C142.495 9.00804 141.948 9.49729 141.545 10.1305L139.704 8.74902C140.279 7.86643 141.066 7.17572 142.063 6.67687C143.08 6.17802 144.203 5.92859 145.431 5.92859C147.426 5.92859 148.99 6.45622 150.122 7.51148C151.273 8.54756 151.849 9.96737 151.849 11.7709V21.0668H149.517V18.9659H149.402C148.98 19.6758 148.347 20.2802 147.503 20.779C146.659 21.2779 145.709 21.5273 144.654 21.5273ZM144.884 19.3688C145.709 19.3688 146.476 19.1577 147.186 18.7356C147.896 18.3135 148.462 17.7475 148.884 17.0376C149.306 16.3277 149.517 15.5507 149.517 14.7065C149.057 14.3995 148.491 14.15 147.819 13.9582C147.148 13.7663 146.438 13.6704 145.69 13.6704C144.347 13.6704 143.33 13.9486 142.639 14.505C141.968 15.0614 141.632 15.7809 141.632 16.6635C141.632 17.4693 141.939 18.1217 142.553 18.6205C143.167 19.1194 143.944 19.3688 144.884 19.3688Z" fill="#1E1E1E"/>
<path d="M123.971 6.38907H126.302V8.54756H126.417C126.82 7.81847 127.463 7.2045 128.345 6.70565C129.228 6.18761 130.168 5.92859 131.166 5.92859C132.931 5.92859 134.274 6.44663 135.195 7.4827C136.135 8.49959 136.605 9.89062 136.605 11.6558V21.0668H134.159V12.0299C134.159 10.6677 133.833 9.67957 133.18 9.0656C132.528 8.45162 131.636 8.14464 130.504 8.14464C129.717 8.14464 129.007 8.36529 128.374 8.80658C127.76 9.24787 127.28 9.83306 126.935 10.5622C126.59 11.2721 126.417 12.0203 126.417 12.807V21.0668H123.971V6.38907Z" fill="#1E1E1E"/>
<path d="M113.871 21.5273C112.432 21.5273 111.137 21.1819 109.985 20.4912C108.834 19.8005 107.932 18.8603 107.28 17.6708C106.647 16.4812 106.33 15.1669 106.33 13.7279C106.33 12.2889 106.647 10.9747 107.28 9.78509C107.932 8.59552 108.834 7.65538 109.985 6.96466C111.137 6.27395 112.432 5.92859 113.871 5.92859C115.31 5.92859 116.605 6.27395 117.756 6.96466C118.907 7.65538 119.799 8.59552 120.432 9.78509C121.085 10.9747 121.411 12.2889 121.411 13.7279C121.411 15.1669 121.085 16.4812 120.432 17.6708C119.799 18.8603 118.907 19.8005 117.756 20.4912C116.605 21.1819 115.31 21.5273 113.871 21.5273ZM113.871 19.3112C114.772 19.3112 115.607 19.0906 116.375 18.6493C117.161 18.1888 117.785 17.5365 118.245 16.6923C118.725 15.8481 118.965 14.8599 118.965 13.7279C118.965 12.5959 118.725 11.6078 118.245 10.7636C117.785 9.9194 117.161 9.27665 116.375 8.83536C115.607 8.37488 114.772 8.14464 113.871 8.14464C112.969 8.14464 112.125 8.37488 111.338 8.83536C110.551 9.27665 109.918 9.9194 109.439 10.7636C108.978 11.6078 108.748 12.5959 108.748 13.7279C108.748 14.8599 108.978 15.8481 109.439 16.6923C109.918 17.5365 110.551 18.1888 111.338 18.6493C112.125 19.0906 112.969 19.3112 113.871 19.3112Z" fill="#1E1E1E"/>
<path d="M102.195 3.68366C101.715 3.68366 101.302 3.51098 100.957 3.16562C100.612 2.82026 100.439 2.40775 100.439 1.92809C100.439 1.44842 100.612 1.0455 100.957 0.719332C101.302 0.373973 101.715 0.201294 102.195 0.201294C102.674 0.201294 103.087 0.373973 103.432 0.719332C103.777 1.0455 103.95 1.44842 103.95 1.92809C103.95 2.40775 103.777 2.82026 103.432 3.16562C103.106 3.51098 102.693 3.68366 102.195 3.68366ZM100.986 6.38897H103.403V21.0667H100.986V6.38897Z" fill="#1E1E1E"/>
<path d="M95.7165 21.297C95.1217 21.297 94.5653 21.2011 94.0473 21.0092C93.5484 20.8174 93.1263 20.5584 92.781 20.2322C92.3972 19.8676 92.1094 19.4455 91.9176 18.9659C91.7257 18.4862 91.6298 17.901 91.6298 17.2103V8.6051H89.0684V6.38905H91.6298V2.24475H94.0761V6.38905H97.6448V8.6051H94.0761V16.6059C94.0761 17.4117 94.2295 18.0065 94.5365 18.3903C94.9011 18.8124 95.4287 19.0234 96.1194 19.0234C96.6758 19.0234 97.2131 18.8603 97.7311 18.5342V20.9229C97.4433 21.0572 97.1459 21.1531 96.8389 21.2107C96.5511 21.2683 96.177 21.297 95.7165 21.297Z" fill="#1E1E1E"/>
<path d="M79.7584 21.5273C78.684 21.5273 77.7246 21.3162 76.8804 20.8941C76.0362 20.472 75.3839 19.8964 74.9234 19.1673C74.4629 18.4191 74.2327 17.5748 74.2327 16.6347C74.2327 15.0806 74.8179 13.8718 75.9882 13.0084C77.1586 12.1259 78.636 11.6846 80.4203 11.6846C81.3029 11.6846 82.1184 11.7805 82.8666 11.9724C83.6341 12.1642 84.2193 12.3849 84.6222 12.6343V11.7421C84.6222 10.6485 84.2385 9.7755 83.471 9.12316C82.7035 8.45163 81.7346 8.11586 80.5642 8.11586C79.7392 8.11586 78.9813 8.29813 78.2906 8.66268C77.5999 9.00804 77.0531 9.49729 76.6502 10.1305L74.8083 8.74902C75.3839 7.86643 76.1705 7.17572 77.1682 6.67687C78.1851 6.17802 79.3075 5.92859 80.5355 5.92859C82.5309 5.92859 84.0946 6.45622 85.2266 7.51148C86.3778 8.54756 86.9534 9.96737 86.9534 11.7709V21.0668H84.6222V18.9659H84.5071C84.085 19.6758 83.4518 20.2802 82.6076 20.779C81.7634 21.2779 80.8137 21.5273 79.7584 21.5273ZM79.9886 19.3688C80.8137 19.3688 81.5811 19.1577 82.291 18.7356C83.0009 18.3135 83.5669 17.7475 83.989 17.0376C84.4111 16.3277 84.6222 15.5507 84.6222 14.7065C84.1617 14.3995 83.5957 14.15 82.9242 13.9582C82.2527 13.7663 81.5428 13.6704 80.7945 13.6704C79.4514 13.6704 78.4345 13.9486 77.7438 14.505C77.0723 15.0614 76.7365 15.7809 76.7365 16.6635C76.7365 17.4693 77.0435 18.1217 77.6575 18.6205C78.2714 19.1194 79.0485 19.3688 79.9886 19.3688Z" fill="#1E1E1E"/>
<path d="M59.0754 6.38907H61.4066V8.54756H61.5217C61.9246 7.81847 62.5674 7.2045 63.45 6.70565C64.3326 6.18761 65.2727 5.92859 66.2704 5.92859C68.0356 5.92859 69.3786 6.44663 70.2996 7.4827C71.2397 8.49959 71.7098 9.89062 71.7098 11.6558V21.0668H69.2635V12.0299C69.2635 10.6677 68.9373 9.67957 68.285 9.0656C67.6327 8.45162 66.7405 8.14464 65.6085 8.14464C64.8218 8.14464 64.1119 8.36529 63.4788 8.80658C62.8648 9.24787 62.3851 9.83306 62.0398 10.5622C61.6944 11.2721 61.5217 12.0203 61.5217 12.807V21.0668H59.0754V6.38907Z" fill="#1E1E1E"/>
<path d="M48.283 6.38909H50.6141V8.74905H50.7293C51.017 7.94321 51.5735 7.28127 52.3985 6.76324C53.2235 6.22601 54.0869 5.9574 54.9887 5.9574C55.6602 5.9574 56.2358 6.05333 56.7155 6.2452V8.89295C56.1015 8.58596 55.4108 8.43247 54.6433 8.43247C53.9334 8.43247 53.2811 8.63393 52.6863 9.03684C52.0915 9.43976 51.6118 9.98658 51.2473 10.6773C50.9019 11.3488 50.7293 12.0779 50.7293 12.8646V21.0668H48.283V6.38909Z" fill="#1E1E1E"/>
<path d="M38.5992 21.5273C37.1985 21.5273 35.9418 21.1915 34.829 20.52C33.7162 19.8485 32.8432 18.9275 32.21 17.7571C31.596 16.5676 31.2891 15.2341 31.2891 13.7567C31.2891 12.3369 31.5769 11.0322 32.1525 9.84265C32.7472 8.65308 33.5819 7.70335 34.6563 6.99344C35.7308 6.28354 36.9779 5.92859 38.3977 5.92859C39.8367 5.92859 41.0838 6.25476 42.1391 6.90711C43.1943 7.54026 44.0002 8.42285 44.5566 9.55485C45.1322 10.6869 45.42 11.982 45.42 13.4401C45.42 13.7279 45.3912 13.9774 45.3336 14.1884H33.7354C33.7929 15.3012 34.0615 16.2414 34.5412 17.0088C35.0209 17.7763 35.6252 18.3519 36.3543 18.7356C37.1026 19.1194 37.8797 19.3112 38.6855 19.3112C40.5658 19.3112 42.0144 18.4287 43.0313 16.6635L45.1034 17.6708C44.4702 18.8603 43.6069 19.8005 42.5132 20.4912C41.4388 21.1819 40.1341 21.5273 38.5992 21.5273ZM42.8298 12.1738C42.7914 11.5599 42.6187 10.9459 42.3118 10.3319C42.0048 9.71794 41.5155 9.1999 40.844 8.7778C40.1916 8.35569 39.3666 8.14464 38.3689 8.14464C37.2177 8.14464 36.2392 8.51878 35.4334 9.26706C34.6467 9.99615 34.1287 10.9651 33.8793 12.1738H42.8298Z" fill="#1E1E1E"/>
<path d="M27.8139 21.297C27.2191 21.297 26.6627 21.2011 26.1447 21.0092C25.6458 20.8174 25.2237 20.5584 24.8784 20.2322C24.4946 19.8676 24.2068 19.4455 24.015 18.9659C23.8231 18.4862 23.7272 17.901 23.7272 17.2103V8.6051H21.1658V6.38905H23.7272V2.24475H26.1735V6.38905H29.7422V8.6051H26.1735V16.6059C26.1735 17.4117 26.327 18.0065 26.6339 18.3903C26.9985 18.8124 27.5261 19.0234 28.2168 19.0234C28.7733 19.0234 29.3105 18.8603 29.8285 18.5342V20.9229C29.5407 21.0572 29.2433 21.1531 28.9363 21.2107C28.6485 21.2683 28.2744 21.297 27.8139 21.297Z" fill="#1E1E1E"/>
<path d="M6.77124 6.38907H9.10241V8.54756H9.21753C9.62045 7.81847 10.2632 7.2045 11.1458 6.70565C12.0284 6.18761 12.9685 5.92859 13.9662 5.92859C15.7314 5.92859 17.0744 6.44663 17.9954 7.4827C18.9355 8.49959 19.4056 9.89062 19.4056 11.6558V21.0668H16.9593V12.0299C16.9593 10.6677 16.6331 9.67957 15.9808 9.0656C15.3285 8.45162 14.4363 8.14464 13.3043 8.14464C12.5176 8.14464 11.8077 8.36529 11.1746 8.80658C10.5606 9.24787 10.0809 9.83306 9.73557 10.5622C9.39021 11.2721 9.21753 12.0203 9.21753 12.807V21.0668H6.77124V6.38907Z" fill="#1E1E1E"/>
<path d="M0.234375 0.460571H2.65189V21.067H0.234375V0.460571Z" fill="#1E1E1E"/>
<rect x="0.234375" y="182.576" width="409.531" height="3" fill="#D1ECE3"/>
<path d="M96.1793 222.96C94.5153 222.96 93.0033 222.568 91.6433 221.784C90.2833 221 89.2113 219.928 88.4273 218.568C87.6593 217.192 87.2753 215.664 87.2753 213.984C87.2753 212.304 87.6593 210.784 88.4273 209.424C89.2113 208.048 90.2833 206.968 91.6433 206.184C93.0033 205.4 94.5153 205.008 96.1793 205.008C97.4593 205.008 98.6273 205.256 99.6833 205.752C100.755 206.232 101.683 206.92 102.467 207.816L101.003 209.232C100.347 208.448 99.6273 207.872 98.8433 207.504C98.0753 207.136 97.1873 206.952 96.1793 206.952C94.9313 206.952 93.7873 207.248 92.7473 207.84C91.7073 208.416 90.8753 209.24 90.2513 210.312C89.6433 211.368 89.3393 212.592 89.3393 213.984C89.3393 215.376 89.6433 216.608 90.2513 217.68C90.8753 218.736 91.7073 219.56 92.7473 220.152C93.7873 220.728 94.9313 221.016 96.1793 221.016C98.2593 221.016 100.027 220.16 101.483 218.448L102.971 219.888C102.171 220.832 101.187 221.584 100.019 222.144C98.8513 222.688 97.5713 222.96 96.1793 222.96ZM110.668 222.96C109.468 222.96 108.388 222.672 107.428 222.096C106.468 221.52 105.716 220.736 105.172 219.744C104.644 218.752 104.38 217.656 104.38 216.456C104.38 215.256 104.644 214.16 105.172 213.168C105.716 212.176 106.468 211.392 107.428 210.816C108.388 210.24 109.468 209.952 110.668 209.952C111.868 209.952 112.948 210.24 113.908 210.816C114.868 211.392 115.612 212.176 116.14 213.168C116.684 214.16 116.956 215.256 116.956 216.456C116.956 217.656 116.684 218.752 116.14 219.744C115.612 220.736 114.868 221.52 113.908 222.096C112.948 222.672 111.868 222.96 110.668 222.96ZM110.668 221.112C111.42 221.112 112.116 220.928 112.756 220.56C113.412 220.176 113.932 219.632 114.316 218.928C114.716 218.224 114.916 217.4 114.916 216.456C114.916 215.512 114.716 214.688 114.316 213.984C113.932 213.28 113.412 212.744 112.756 212.376C112.116 211.992 111.42 211.8 110.668 211.8C109.916 211.8 109.212 211.992 108.556 212.376C107.9 212.744 107.372 213.28 106.972 213.984C106.588 214.688 106.396 215.512 106.396 216.456C106.396 217.4 106.588 218.224 106.972 218.928C107.372 219.632 107.9 220.176 108.556 220.56C109.212 220.928 109.916 221.112 110.668 221.112ZM124.868 222.96C123.685 222.96 122.621 222.68 121.677 222.12C120.733 221.544 119.997 220.768 119.469 219.792C118.941 218.8 118.677 217.688 118.677 216.456C118.677 215.224 118.941 214.112 119.469 213.12C119.997 212.128 120.733 211.352 121.677 210.792C122.621 210.232 123.685 209.952 124.868 209.952C126.197 209.952 127.309 210.264 128.205 210.888C129.117 211.496 129.765 212.312 130.148 213.336L128.301 214.104C127.997 213.352 127.541 212.784 126.933 212.4C126.341 212 125.621 211.8 124.773 211.8C124.053 211.8 123.381 212 122.757 212.4C122.133 212.784 121.629 213.328 121.245 214.032C120.877 214.736 120.693 215.544 120.693 216.456C120.693 217.368 120.877 218.176 121.245 218.88C121.629 219.584 122.133 220.136 122.757 220.536C123.381 220.92 124.053 221.112 124.773 221.112C125.637 221.112 126.381 220.912 127.005 220.512C127.629 220.112 128.093 219.544 128.397 218.808L130.221 219.576C129.805 220.584 129.133 221.4 128.205 222.024C127.293 222.648 126.181 222.96 124.868 222.96ZM132.426 205.392H134.466V210.456L134.37 212.136H134.466C134.802 211.512 135.33 210.992 136.05 210.576C136.786 210.16 137.586 209.952 138.45 209.952C139.938 209.952 141.074 210.392 141.858 211.272C142.642 212.136 143.034 213.288 143.034 214.728V222.576H140.994V215.04C140.994 213.936 140.714 213.12 140.154 212.592C139.594 212.064 138.866 211.8 137.97 211.8C137.33 211.8 136.738 211.992 136.194 212.376C135.666 212.76 135.242 213.256 134.922 213.864C134.618 214.472 134.466 215.104 134.466 215.76V222.576H132.426V205.392ZM149.768 222.96C148.872 222.96 148.072 222.784 147.368 222.432C146.664 222.08 146.12 221.6 145.736 220.992C145.352 220.368 145.16 219.664 145.16 218.88C145.16 217.584 145.648 216.576 146.624 215.856C147.6 215.12 148.832 214.752 150.32 214.752C151.056 214.752 151.736 214.832 152.36 214.992C153 215.152 153.488 215.336 153.824 215.544V214.8C153.824 213.888 153.504 213.16 152.864 212.616C152.224 212.056 151.416 211.776 150.44 211.776C149.752 211.776 149.12 211.928 148.544 212.232C147.968 212.52 147.512 212.928 147.176 213.456L145.64 212.304C146.12 211.568 146.776 210.992 147.608 210.576C148.456 210.16 149.392 209.952 150.416 209.952C152.08 209.952 153.384 210.392 154.328 211.272C155.288 212.136 155.768 213.32 155.768 214.824V222.576H153.824V220.824H153.728C153.376 221.416 152.848 221.92 152.144 222.336C151.44 222.752 150.648 222.96 149.768 222.96ZM149.96 221.16C150.648 221.16 151.288 220.984 151.88 220.632C152.472 220.28 152.944 219.808 153.296 219.216C153.648 218.624 153.824 217.976 153.824 217.272C153.44 217.016 152.968 216.808 152.408 216.648C151.848 216.488 151.256 216.408 150.632 216.408C149.512 216.408 148.664 216.64 148.088 217.104C147.528 217.568 147.248 218.168 147.248 218.904C147.248 219.576 147.504 220.12 148.016 220.536C148.528 220.952 149.176 221.16 149.96 221.16ZM164.822 222.96C163.894 222.96 163.054 222.752 162.302 222.336C161.566 221.904 161.014 221.384 160.646 220.776H160.55V222.576H158.606V205.392H160.646V210.456L160.55 212.16H160.646C161.014 211.536 161.566 211.016 162.302 210.6C163.054 210.168 163.894 209.952 164.822 209.952C165.91 209.952 166.902 210.232 167.798 210.792C168.694 211.352 169.398 212.128 169.91 213.12C170.422 214.112 170.678 215.224 170.678 216.456C170.678 217.704 170.422 218.824 169.91 219.816C169.398 220.792 168.694 221.56 167.798 222.12C166.902 222.68 165.91 222.96 164.822 222.96ZM164.582 221.112C165.286 221.112 165.95 220.92 166.574 220.536C167.198 220.152 167.694 219.608 168.062 218.904C168.446 218.184 168.638 217.368 168.638 216.456C168.638 215.544 168.446 214.736 168.062 214.032C167.694 213.312 167.198 212.76 166.574 212.376C165.95 211.992 165.286 211.8 164.582 211.8C163.878 211.8 163.214 211.992 162.59 212.376C161.966 212.76 161.47 213.304 161.102 214.008C160.734 214.712 160.55 215.528 160.55 216.456C160.55 217.384 160.734 218.2 161.102 218.904C161.47 219.608 161.966 220.152 162.59 220.536C163.214 220.92 163.878 221.112 164.582 221.112ZM176.955 222.96C176.059 222.96 175.259 222.784 174.555 222.432C173.851 222.08 173.307 221.6 172.923 220.992C172.539 220.368 172.347 219.664 172.347 218.88C172.347 217.584 172.835 216.576 173.811 215.856C174.787 215.12 176.019 214.752 177.507 214.752C178.243 214.752 178.923 214.832 179.547 214.992C180.187 215.152 180.675 215.336 181.011 215.544V214.8C181.011 213.888 180.691 213.16 180.051 212.616C179.411 212.056 178.603 211.776 177.627 211.776C176.939 211.776 176.307 211.928 175.731 212.232C175.155 212.52 174.699 212.928 174.363 213.456L172.827 212.304C173.307 211.568 173.963 210.992 174.795 210.576C175.643 210.16 176.579 209.952 177.603 209.952C179.267 209.952 180.571 210.392 181.515 211.272C182.475 212.136 182.955 213.32 182.955 214.824V222.576H181.011V220.824H180.915C180.563 221.416 180.035 221.92 179.331 222.336C178.627 222.752 177.835 222.96 176.955 222.96ZM177.147 221.16C177.835 221.16 178.475 220.984 179.067 220.632C179.659 220.28 180.131 219.808 180.483 219.216C180.835 218.624 181.011 217.976 181.011 217.272C180.627 217.016 180.155 216.808 179.595 216.648C179.035 216.488 178.443 216.408 177.819 216.408C176.699 216.408 175.851 216.64 175.275 217.104C174.715 217.568 174.435 218.168 174.435 218.904C174.435 219.576 174.691 220.12 175.203 220.536C175.715 220.952 176.363 221.16 177.147 221.16ZM185.793 210.336H187.737V212.136H187.833C188.185 211.512 188.713 210.992 189.417 210.576C190.121 210.16 190.865 209.952 191.649 209.952C192.545 209.952 193.321 210.168 193.977 210.6C194.649 211.032 195.129 211.608 195.417 212.328C195.849 211.608 196.417 211.032 197.121 210.6C197.841 210.168 198.673 209.952 199.617 209.952C201.025 209.952 202.081 210.384 202.785 211.248C203.505 212.096 203.865 213.256 203.865 214.728V222.576H201.849V215.04C201.849 213.904 201.617 213.08 201.153 212.568C200.689 212.056 200.001 211.8 199.089 211.8C198.481 211.8 197.929 211.976 197.433 212.328C196.937 212.68 196.545 213.152 196.257 213.744C195.985 214.336 195.849 214.976 195.849 215.664V222.576H193.809V215.064C193.809 213.912 193.577 213.08 193.113 212.568C192.649 212.056 191.969 211.8 191.073 211.8C190.465 211.8 189.913 211.984 189.417 212.352C188.921 212.704 188.529 213.184 188.241 213.792C187.969 214.384 187.833 215.024 187.833 215.712V222.576H185.793V210.336ZM213.009 222.96C212.081 222.96 211.241 222.752 210.489 222.336C209.753 221.904 209.201 221.384 208.833 220.776H208.737V222.576H206.793V205.392H208.833V210.456L208.737 212.16H208.833C209.201 211.536 209.753 211.016 210.489 210.6C211.241 210.168 212.081 209.952 213.009 209.952C214.097 209.952 215.089 210.232 215.985 210.792C216.881 211.352 217.585 212.128 218.097 213.12C218.609 214.112 218.865 215.224 218.865 216.456C218.865 217.704 218.609 218.824 218.097 219.816C217.585 220.792 216.881 221.56 215.985 222.12C215.089 222.68 214.097 222.96 213.009 222.96ZM212.769 221.112C213.473 221.112 214.137 220.92 214.761 220.536C215.385 220.152 215.881 219.608 216.249 218.904C216.633 218.184 216.825 217.368 216.825 216.456C216.825 215.544 216.633 214.736 216.249 214.032C215.881 213.312 215.385 212.76 214.761 212.376C214.137 211.992 213.473 211.8 212.769 211.8C212.065 211.8 211.401 211.992 210.777 212.376C210.153 212.76 209.657 213.304 209.289 214.008C208.921 214.712 208.737 215.528 208.737 216.456C208.737 217.384 208.921 218.2 209.289 218.904C209.657 219.608 210.153 220.152 210.777 220.536C211.401 220.92 212.065 221.112 212.769 221.112ZM225.143 222.96C224.247 222.96 223.447 222.784 222.743 222.432C222.039 222.08 221.495 221.6 221.111 220.992C220.727 220.368 220.535 219.664 220.535 218.88C220.535 217.584 221.023 216.576 221.999 215.856C222.975 215.12 224.207 214.752 225.695 214.752C226.431 214.752 227.111 214.832 227.735 214.992C228.375 215.152 228.863 215.336 229.199 215.544V214.8C229.199 213.888 228.879 213.16 228.239 212.616C227.599 212.056 226.791 211.776 225.815 211.776C225.127 211.776 224.495 211.928 223.919 212.232C223.343 212.52 222.887 212.928 222.551 213.456L221.015 212.304C221.495 211.568 222.151 210.992 222.983 210.576C223.831 210.16 224.767 209.952 225.791 209.952C227.455 209.952 228.759 210.392 229.703 211.272C230.663 212.136 231.143 213.32 231.143 214.824V222.576H229.199V220.824H229.103C228.751 221.416 228.223 221.92 227.519 222.336C226.815 222.752 226.023 222.96 225.143 222.96ZM225.335 221.16C226.023 221.16 226.663 220.984 227.255 220.632C227.847 220.28 228.319 219.808 228.671 219.216C229.023 218.624 229.199 217.976 229.199 217.272C228.815 217.016 228.343 216.808 227.783 216.648C227.223 216.488 226.631 216.408 226.007 216.408C224.887 216.408 224.039 216.64 223.463 217.104C222.903 217.568 222.623 218.168 222.623 218.904C222.623 219.576 222.879 220.12 223.391 220.536C223.903 220.952 224.551 221.16 225.335 221.16ZM239.535 214.296H247.143V215.976H239.535V214.296ZM256.139 205.392H262.307C263.171 205.392 263.979 205.592 264.731 205.992C265.499 206.392 266.107 206.944 266.555 207.648C267.003 208.352 267.227 209.144 267.227 210.024C267.227 210.856 267.011 211.584 266.579 212.208C266.163 212.832 265.595 213.312 264.875 213.648V213.744C265.739 214.032 266.443 214.528 266.987 215.232C267.531 215.936 267.803 216.76 267.803 217.704C267.803 218.632 267.563 219.472 267.083 220.224C266.619 220.96 265.987 221.536 265.187 221.952C264.403 222.368 263.555 222.576 262.643 222.576H256.139V205.392ZM262.307 212.832C262.883 212.832 263.387 212.696 263.819 212.424C264.267 212.152 264.611 211.808 264.851 211.392C265.091 210.96 265.211 210.52 265.211 210.072C265.211 209.64 265.091 209.216 264.851 208.8C264.627 208.368 264.299 208.016 263.867 207.744C263.451 207.472 262.963 207.336 262.403 207.336H258.155V212.832H262.307ZM262.763 220.632C263.339 220.632 263.851 220.488 264.299 220.2C264.763 219.912 265.115 219.544 265.355 219.096C265.611 218.632 265.739 218.16 265.739 217.68C265.739 217.2 265.611 216.736 265.355 216.288C265.099 215.824 264.739 215.456 264.275 215.184C263.811 214.896 263.275 214.752 262.667 214.752H258.155V220.632H262.763ZM275.925 222.96C274.725 222.96 273.645 222.672 272.685 222.096C271.725 221.52 270.973 220.736 270.429 219.744C269.901 218.752 269.637 217.656 269.637 216.456C269.637 215.256 269.901 214.16 270.429 213.168C270.973 212.176 271.725 211.392 272.685 210.816C273.645 210.24 274.725 209.952 275.925 209.952C277.125 209.952 278.205 210.24 279.165 210.816C280.125 211.392 280.869 212.176 281.397 213.168C281.941 214.16 282.213 215.256 282.213 216.456C282.213 217.656 281.941 218.752 281.397 219.744C280.869 220.736 280.125 221.52 279.165 222.096C278.205 222.672 277.125 222.96 275.925 222.96ZM275.925 221.112C276.677 221.112 277.373 220.928 278.013 220.56C278.669 220.176 279.189 219.632 279.573 218.928C279.973 218.224 280.173 217.4 280.173 216.456C280.173 215.512 279.973 214.688 279.573 213.984C279.189 213.28 278.669 212.744 278.013 212.376C277.373 211.992 276.677 211.8 275.925 211.8C275.173 211.8 274.469 211.992 273.813 212.376C273.157 212.744 272.629 213.28 272.229 213.984C271.845 214.688 271.653 215.512 271.653 216.456C271.653 217.4 271.845 218.224 272.229 218.928C272.629 219.632 273.157 220.176 273.813 220.56C274.469 220.928 275.173 221.112 275.925 221.112ZM284.465 205.392H286.505V222.576H284.465V205.392ZM290.728 208.08C290.328 208.08 289.984 207.936 289.696 207.648C289.408 207.36 289.264 207.016 289.264 206.616C289.264 206.216 289.408 205.88 289.696 205.608C289.984 205.32 290.328 205.176 290.728 205.176C291.128 205.176 291.472 205.32 291.76 205.608C292.048 205.88 292.192 206.216 292.192 206.616C292.192 207.016 292.048 207.36 291.76 207.648C291.488 207.936 291.144 208.08 290.728 208.08ZM289.72 210.336H291.736V222.576H289.72V210.336ZM293.598 210.336H295.782L299.574 220.176H299.622L303.462 210.336H305.598L300.606 222.576H298.542L293.598 210.336ZM308.47 208.08C308.07 208.08 307.726 207.936 307.438 207.648C307.15 207.36 307.006 207.016 307.006 206.616C307.006 206.216 307.15 205.88 307.438 205.608C307.726 205.32 308.07 205.176 308.47 205.176C308.87 205.176 309.214 205.32 309.502 205.608C309.79 205.88 309.934 206.216 309.934 206.616C309.934 207.016 309.79 207.36 309.502 207.648C309.23 207.936 308.886 208.08 308.47 208.08ZM307.462 210.336H309.478V222.576H307.462V210.336ZM316.479 222.96C315.583 222.96 314.783 222.784 314.079 222.432C313.375 222.08 312.831 221.6 312.447 220.992C312.063 220.368 311.871 219.664 311.871 218.88C311.871 217.584 312.359 216.576 313.335 215.856C314.311 215.12 315.543 214.752 317.031 214.752C317.767 214.752 318.447 214.832 319.071 214.992C319.711 215.152 320.199 215.336 320.535 215.544V214.8C320.535 213.888 320.215 213.16 319.575 212.616C318.935 212.056 318.127 211.776 317.151 211.776C316.463 211.776 315.831 211.928 315.255 212.232C314.679 212.52 314.223 212.928 313.887 213.456L312.351 212.304C312.831 211.568 313.487 210.992 314.319 210.576C315.167 210.16 316.103 209.952 317.127 209.952C318.791 209.952 320.095 210.392 321.039 211.272C321.999 212.136 322.479 213.32 322.479 214.824V222.576H320.535V220.824H320.439C320.087 221.416 319.559 221.92 318.855 222.336C318.151 222.752 317.359 222.96 316.479 222.96ZM316.671 221.16C317.359 221.16 317.999 220.984 318.591 220.632C319.183 220.28 319.655 219.808 320.007 219.216C320.359 218.624 320.535 217.976 320.535 217.272C320.151 217.016 319.679 216.808 319.119 216.648C318.559 216.488 317.967 216.408 317.343 216.408C316.223 216.408 315.375 216.64 314.799 217.104C314.239 217.568 313.959 218.168 313.959 218.904C313.959 219.576 314.215 220.12 314.727 220.536C315.239 220.952 315.887 221.16 316.671 221.16Z" fill="#109B83"/>
</svg>
