<svg width="80" height="81" viewBox="0 0 80 81" fill="none" xmlns="http://www.w3.org/2000/svg">
<path d="M62.5921 62.1528H19.3483C18.664 62.1528 18.0935 61.6251 18.0405 60.9434L15.0588 22.9178H16.4883L25.4552 55.3837C25.6131 55.9529 26.1305 56.3474 26.7203 56.3474H63.5558L63.8999 60.7377C63.9594 61.5009 63.3566 62.1528 62.5921 62.1528Z" fill="#00DBA2"/>
<path d="M63.8572 60.1931H25.6285C23.8628 60.1931 22.3028 59.0044 21.8331 57.3034L16.139 36.6826L15.0588 22.9165H16.4883L25.4552 55.3836C25.6131 55.9528 26.1305 56.3473 26.7203 56.3473H63.5558L63.8572 60.1931Z" fill="#1C96F9"/>
<path d="M15.6641 29.6354L13.7329 59.0575L12.7252 58.4663L9.00227 57.9954C8.24034 57.8984 7.723 57.1702 7.88461 56.4186L15.0587 22.918L15.6641 29.6354Z" fill="#00DBA2"/>
<path d="M15.0586 22.9172L18.5722 61.8971L12.7246 58.4667L15.0586 22.9172Z" fill="#00B698"/>
<path d="M70.8319 57.5684H25.6284C25.0373 57.5684 24.5198 57.1739 24.3633 56.6061L17.25 30.8513H65.1764L72.097 55.9063C72.3273 56.742 71.6986 57.5684 70.8319 57.5684Z" fill="#EAF6FF"/>
<path d="M72.0967 55.9067L63.2513 23.8802C63.0943 23.3113 62.5765 22.9172 61.9864 22.9172H15.0586L24.3629 56.6054C24.52 57.1744 25.0377 57.5684 25.6279 57.5684H70.8319C71.6988 57.5684 72.3277 56.7425 72.0967 55.9067Z" fill="#D1ECE3"/>
<path d="M65.3555 31.4984L63.2513 23.8802C63.0943 23.3113 62.5765 22.9172 61.9864 22.9172H15.0586L17.4287 31.4984H65.3555Z" fill="#2480F0"/>
<path d="M61.0353 19C59.8612 19 58.807 19.5198 58.0885 20.3408C57.37 19.52 56.3157 19 55.1417 19C53.9677 19 52.9134 19.5198 52.1949 20.3408C51.4764 19.52 50.4222 19 49.2481 19C48.0741 19 47.0198 19.5198 46.3013 20.3408C45.5828 19.52 44.5286 19 43.3545 19C42.1805 19 41.1262 19.5198 40.4077 20.3408C39.6892 19.52 38.635 19 37.4609 19C36.2869 19 35.2326 19.5198 34.5142 20.3408C33.7957 19.52 32.7414 19 31.5674 19C30.3933 19 29.3391 19.5198 28.6206 20.3408C27.9021 19.52 26.8478 19 25.6738 19C24.4997 19 23.4455 19.5198 22.727 20.3408C22.0085 19.52 20.9542 19 19.7802 19C17.6203 19 15.8633 20.7572 15.8633 22.9169C15.8633 23.4528 16.2976 23.887 16.8334 23.887C17.3692 23.887 17.8035 23.4527 17.8035 22.9169C17.8035 21.827 18.6902 20.9404 19.7801 20.9404C20.87 20.9404 21.7566 21.827 21.7566 22.9169C21.7566 24.0068 20.87 24.8935 19.7801 24.8935C19.2443 24.8935 18.8099 25.3278 18.8099 25.8636C18.8099 26.3995 19.2443 26.8337 19.7801 26.8337C21.9399 26.8337 23.697 25.0765 23.697 22.9168C23.697 21.8269 24.5836 20.9403 25.6735 20.9403C26.7634 20.9403 27.6501 21.8269 27.6501 22.9168C27.6501 24.0067 26.7634 24.8933 25.6735 24.8933C25.1377 24.8933 24.7034 25.3277 24.7034 25.8635C24.7034 26.3994 25.1377 26.8336 25.6735 26.8336C27.8334 26.8336 29.5904 25.0764 29.5904 22.9167C29.5904 21.8268 30.4771 20.9401 31.567 20.9401C32.6569 20.9401 33.5435 21.8268 33.5435 22.9167C33.5435 24.0066 32.6569 24.8932 31.567 24.8932C31.0312 24.8932 30.5969 25.3275 30.5969 25.8633C30.5969 26.3992 31.0312 26.8335 31.567 26.8335C33.7269 26.8335 35.4839 25.0763 35.4839 22.9165C35.4839 21.8266 36.3705 20.94 37.4604 20.94C38.5504 20.94 39.437 21.8266 39.437 22.9165C39.437 24.0065 38.5504 24.8931 37.4604 24.8931C36.9247 24.8931 36.4903 25.3274 36.4903 25.8632C36.4903 26.3991 36.9247 26.8333 37.4604 26.8333C39.6203 26.8333 41.3774 25.0762 41.3774 22.9164C41.3774 21.8265 42.264 20.9399 43.3539 20.9399C44.4438 20.9399 45.3304 21.8265 45.3304 22.9164C45.3304 24.0063 44.4438 24.893 43.3539 24.893C42.8181 24.893 42.3838 25.3273 42.3838 25.8631C42.3838 26.399 42.8181 26.8332 43.3539 26.8332C45.5138 26.8332 47.2708 25.076 47.2708 22.9163C47.2708 21.8264 48.1574 20.9397 49.2474 20.9397C50.3373 20.9397 51.2239 21.8264 51.2239 22.9163C51.2239 24.0062 50.3373 24.8928 49.2474 24.8928C48.7116 24.8928 48.2772 25.3272 48.2772 25.863C48.2772 26.3989 48.7116 26.8331 49.2474 26.8331C51.4072 26.8331 53.1643 25.0759 53.1643 22.9162C53.1643 21.8262 54.0509 20.9396 55.1408 20.9396C56.2307 20.9396 57.1174 21.8262 57.1174 22.9162C57.1174 24.0061 56.2307 24.8927 55.1408 24.8927C54.605 24.8927 54.1707 25.327 54.1707 25.8628C54.1707 26.3987 54.605 26.833 55.1408 26.833C57.3007 26.833 59.0577 25.0758 59.0577 22.916C59.0577 21.8261 59.9444 20.9395 61.0343 20.9395C62.1242 20.9395 63.0108 21.8261 63.0108 22.916C63.0108 24.006 62.1242 24.8926 61.0343 24.8926C60.4985 24.8926 60.0641 25.3269 60.0641 25.8627C60.0641 26.3986 60.4985 26.8328 61.0343 26.8328C63.1941 26.8328 64.9512 25.0757 64.9512 22.9159C64.9512 20.7562 63.1951 19 61.0353 19Z" fill="#D9ECFD"/>
<path d="M18.2019 22.918C18.101 23.5842 17.5266 24.0938 16.8334 24.0938C16.14 24.0938 15.5657 23.5841 15.4648 22.918H18.2019Z" fill="#2480F0"/>
<path d="M32.6286 42.2006L30.958 36.9918C30.7838 36.4487 30.2786 36.0803 29.7083 36.0803H25.8623C24.9728 36.0803 24.3411 36.9465 24.6127 37.7934L26.2835 43.0022C26.4577 43.5452 26.9628 43.9137 27.5331 43.9137H31.3791C32.2685 43.9138 32.9003 43.0476 32.6286 42.2006Z" fill="#00B698"/>
<path d="M37.6771 37.4442H35.8861C35.3503 37.4442 34.916 37.0098 34.916 36.474C34.916 35.9381 35.3503 35.5039 35.8861 35.5039H37.6771C38.2129 35.5039 38.6472 35.9382 38.6472 36.474C38.6473 37.0098 38.2129 37.4442 37.6771 37.4442Z" fill="#2480F0"/>
<path d="M43.7335 37.4442H41.9425C41.4067 37.4442 40.9724 37.0098 40.9724 36.474C40.9724 35.9381 41.4067 35.5039 41.9425 35.5039H43.7335C44.2693 35.5039 44.7036 35.9382 44.7036 36.474C44.7036 37.0098 44.2693 37.4442 43.7335 37.4442Z" fill="#00B698"/>
<path d="M49.7899 37.4442H47.9989C47.4631 37.4442 47.0288 37.0098 47.0288 36.474C47.0288 35.9381 47.4631 35.5039 47.9989 35.5039H49.7899C50.3257 35.5039 50.76 35.9382 50.76 36.474C50.76 37.0098 50.3257 37.4442 49.7899 37.4442Z" fill="#00B698"/>
<path d="M55.846 37.4442H54.0551C53.5193 37.4442 53.085 37.0098 53.085 36.474C53.085 35.9381 53.5193 35.5039 54.0551 35.5039H55.846C56.3818 35.5039 56.8162 35.9382 56.8162 36.474C56.8163 37.0098 56.3818 37.4442 55.846 37.4442Z" fill="#00B698"/>
<path d="M61.9024 37.4442H60.1115C59.5757 37.4442 59.1414 37.0098 59.1414 36.474C59.1414 35.9381 59.5757 35.5039 60.1115 35.5039H61.9024C62.4382 35.5039 62.8726 35.9382 62.8726 36.474C62.8726 37.0098 62.4382 37.4442 61.9024 37.4442Z" fill="#00B698"/>
<path d="M38.9664 42.7332H37.1754C36.6397 42.7332 36.2053 42.2989 36.2053 41.7631C36.2053 41.2273 36.6397 40.793 37.1754 40.793H38.9664C39.5022 40.793 39.9365 41.2273 39.9365 41.7631C39.9365 42.2989 39.5022 42.7332 38.9664 42.7332Z" fill="#2480F0"/>
<path d="M45.0226 42.7332H43.2316C42.6958 42.7332 42.2615 42.2989 42.2615 41.7631C42.2615 41.2273 42.6958 40.793 43.2316 40.793H45.0226C45.5583 40.793 45.9927 41.2273 45.9927 41.7631C45.9927 42.2989 45.5585 42.7332 45.0226 42.7332Z" fill="#00B698"/>
<path d="M51.0789 42.7332H49.288C48.7522 42.7332 48.3179 42.2989 48.3179 41.7631C48.3179 41.2273 48.7522 40.793 49.288 40.793H51.0789C51.6147 40.793 52.0491 41.2273 52.0491 41.7631C52.0491 42.2989 51.6147 42.7332 51.0789 42.7332Z" fill="#00B698"/>
<path d="M57.1353 42.7332H55.3444C54.8086 42.7332 54.3743 42.2989 54.3743 41.7631C54.3743 41.2273 54.8086 40.793 55.3444 40.793H57.1353C57.6711 40.793 58.1055 41.2273 58.1055 41.7631C58.1055 42.2989 57.6711 42.7332 57.1353 42.7332Z" fill="#00B698"/>
<path d="M63.1917 42.7332H61.4008C60.865 42.7332 60.4307 42.2989 60.4307 41.7631C60.4307 41.2273 60.865 40.793 61.4008 40.793H63.1917C63.7275 40.793 64.1619 41.2273 64.1619 41.7631C64.1619 42.2989 63.7275 42.7332 63.1917 42.7332Z" fill="#00B698"/>
<path d="M40.2555 48.0225H38.4645C37.9287 48.0225 37.4944 47.5882 37.4944 47.0524C37.4944 46.5166 37.9287 46.0823 38.4645 46.0823H40.2555C40.7913 46.0823 41.2256 46.5166 41.2256 47.0524C41.2256 47.5882 40.7913 48.0225 40.2555 48.0225Z" fill="#2480F0"/>
<path d="M46.3116 48.0225H44.5207C43.9849 48.0225 43.5505 47.5882 43.5505 47.0524C43.5505 46.5166 43.9849 46.0823 44.5207 46.0823H46.3116C46.8474 46.0823 47.2817 46.5166 47.2817 47.0524C47.2817 47.5882 46.8474 48.0225 46.3116 48.0225Z" fill="#00B698"/>
<path d="M52.368 48.0225H50.5771C50.0413 48.0225 49.6069 47.5882 49.6069 47.0524C49.6069 46.5166 50.0413 46.0823 50.5771 46.0823H52.368C52.9038 46.0823 53.3381 46.5166 53.3381 47.0524C53.3381 47.5882 52.9039 48.0225 52.368 48.0225Z" fill="#00B698"/>
<path d="M58.4244 48.0225H56.6335C56.0977 48.0225 55.6633 47.5882 55.6633 47.0524C55.6633 46.5166 56.0977 46.0823 56.6335 46.0823H58.4244C58.9602 46.0823 59.3945 46.5166 59.3945 47.0524C59.3945 47.5882 58.9603 48.0225 58.4244 48.0225Z" fill="#00B698"/>
<path d="M64.4807 48.0225H62.6899C62.1541 48.0225 61.7197 47.5882 61.7197 47.0524C61.7197 46.5166 62.1541 46.0823 62.6899 46.0823H64.4808C65.0166 46.0823 65.4509 46.5166 65.4509 47.0524C65.4509 47.5882 65.0165 48.0225 64.4807 48.0225Z" fill="#00B698"/>
<path d="M41.151 53.3117H39.36C38.8242 53.3117 38.3899 52.8774 38.3899 52.3416C38.3899 51.8058 38.8242 51.3715 39.36 51.3715H41.151C41.6868 51.3715 42.1211 51.8058 42.1211 52.3416C42.1211 52.8774 41.6868 53.3117 41.151 53.3117Z" fill="#2480F0"/>
<path d="M47.2071 53.3117H45.4162C44.8804 53.3117 44.446 52.8774 44.446 52.3416C44.446 51.8058 44.8804 51.3715 45.4162 51.3715H47.2071C47.7429 51.3715 48.1772 51.8058 48.1772 52.3416C48.1772 52.8774 47.7429 53.3117 47.2071 53.3117Z" fill="#00B698"/>
<path d="M53.2638 53.3117H51.4728C50.937 53.3117 50.5027 52.8774 50.5027 52.3416C50.5027 51.8058 50.937 51.3715 51.4728 51.3715H53.2638C53.7996 51.3715 54.2339 51.8058 54.2339 52.3416C54.2339 52.8774 53.7996 53.3117 53.2638 53.3117Z" fill="#00B698"/>
<path d="M59.3199 53.3117H57.529C56.9932 53.3117 56.5588 52.8774 56.5588 52.3416C56.5588 51.8058 56.9932 51.3715 57.529 51.3715H59.3199C59.8557 51.3715 60.29 51.8058 60.29 52.3416C60.29 52.8774 59.8557 53.3117 59.3199 53.3117Z" fill="#00B698"/>
<path d="M65.3763 53.3117H63.5854C63.0496 53.3117 62.6152 52.8774 62.6152 52.3416C62.6152 51.8058 63.0496 51.3715 63.5854 51.3715H65.3763C65.9121 51.3715 66.3464 51.8058 66.3464 52.3416C66.3464 52.8774 65.9121 53.3117 65.3763 53.3117Z" fill="#00B698"/>
<path d="M30.229 53.3955C29.8036 53.3955 29.4132 53.1135 29.2944 52.6834L28.0975 48.35C27.9549 47.8334 28.258 47.2991 28.7744 47.1565C29.2906 47.0138 29.8252 47.3168 29.9679 47.8333L31.1648 52.1667C31.3075 52.6833 31.0044 53.2176 30.4879 53.3602C30.4015 53.3841 30.3146 53.3955 30.229 53.3955Z" fill="#00B698"/>
<path d="M33.5302 53.3955C33.1048 53.3955 32.7144 53.1135 32.5956 52.6834L31.9972 50.5167C31.8545 50.0001 32.1576 49.4658 32.6741 49.3231C33.1902 49.18 33.7248 49.4836 33.8676 50L34.4661 52.1667C34.6087 52.6833 34.3056 53.2176 33.7891 53.3602C33.7026 53.3841 33.6157 53.3955 33.5302 53.3955Z" fill="#00B698"/>
</svg>
