<svg width="80" height="81" viewBox="0 0 80 81" fill="none" xmlns="http://www.w3.org/2000/svg">
<path d="M55.7127 17.7602L55.7137 17.7583L47.7474 13.1859L47.7468 13.1871C44.6021 11.5259 40.5626 11.7624 36.1555 14.2993C26.1284 20.071 17.9998 35.5556 17.9998 48.8851C17.9998 56.2134 20.4599 61.3576 24.3386 63.5513L24.3359 63.5573L31.6146 67.7469L31.6221 67.7314C34.8216 69.6381 39.0188 69.5004 43.6185 66.8527C53.6457 61.0809 61.7744 45.5963 61.7744 32.2668C61.7744 25.1137 59.4316 20.0391 55.7127 17.7602Z" fill="#00B698"/>
<path d="M61.7743 32.2669C61.7743 18.9374 53.6457 12.8108 43.6186 18.5826C33.5915 24.3543 25.4626 39.8389 25.4626 53.1684C25.4626 66.4979 33.5913 72.6245 43.6186 66.8527C53.6457 61.081 61.7743 45.5964 61.7743 32.2669Z" fill="#00DBA2"/>
<path d="M54.1133 47.2044C58.469 37.0126 57.3116 26.7589 51.5283 24.3021C45.745 21.8453 37.5257 28.1158 33.1701 38.3075C28.8144 48.4993 29.9717 58.753 35.7551 61.2098C41.5384 63.6666 49.7576 57.3961 54.1133 47.2044Z" fill="#D1ECE3"/>
<path d="M46.1566 41.2568C46.1566 39.3937 45.0205 38.5373 43.6188 39.344C42.2173 40.1508 41.0811 42.315 41.0811 44.1781C41.0811 46.0413 42.2173 46.8976 43.6188 46.091C45.0203 45.2843 46.1566 43.1199 46.1566 41.2568Z" fill="#2480F0"/>
<path d="M42.6299 44.4247V29.7701C42.6299 29.2257 43.0725 28.7844 43.6186 28.7844C44.1646 28.7844 44.6073 29.2257 44.6073 29.7701V41.0102L52.6356 36.3889C53.1085 36.1164 53.7132 36.2785 53.9861 36.7498C54.259 37.2213 54.0968 37.8241 53.6239 38.0964L42.6299 44.4247Z" fill="#2480F0"/>
<path d="M43.6187 25.2962C36.3807 29.4624 30.5134 40.6396 30.5134 50.261C30.5134 55.1532 32.0311 58.7002 34.474 60.4583L53.0049 25.1581C50.6242 23.2812 47.2989 23.1778 43.6187 25.2962Z" fill="url(#paint0_linear_542_1311)"/>
<defs>
<linearGradient id="paint0_linear_542_1311" x1="66.6725" y1="53.8679" x2="22.4746" y2="32.2565" gradientUnits="userSpaceOnUse">
<stop stop-color="white"/>
<stop offset="1" stop-color="white" stop-opacity="0"/>
</linearGradient>
</defs>
</svg>
