<svg width="80" height="81" viewBox="0 0 80 81" fill="none" xmlns="http://www.w3.org/2000/svg">
<path d="M36.4172 72.2526C30.3068 72.2526 24.7593 70.9747 20.6395 68.5961C16.358 66.1241 13.9999 62.6498 14 58.8128C14 54.2651 17.3374 49.7301 23.1565 46.3705C28.3322 43.3823 34.9292 41.5813 41.7324 41.2993C48.5674 41.016 54.8286 42.3008 59.3605 44.9173C63.642 47.3892 66 50.8637 66 54.7006C66 59.2482 62.6626 63.7832 56.8435 67.1429C51.6678 70.1311 45.0709 71.932 38.2677 72.214C37.646 72.2397 37.0286 72.2526 36.4172 72.2526ZM43.5647 43.5418C36.879 43.5418 29.8128 45.1738 24.3024 48.3553C19.2116 51.2945 16.2918 55.106 16.2918 58.8128C16.2918 61.7965 18.2428 64.5661 21.7853 66.6114C30.4409 71.6087 45.6539 70.9569 55.6975 65.1581C60.7883 62.2189 63.7081 58.4073 63.7081 54.7006C63.7081 51.7169 61.7571 48.9474 58.2146 46.902C54.3079 44.6465 49.065 43.5418 43.5647 43.5418Z" fill="#7AB2F6"/>
<path d="M37.477 68.0149C33.1112 68.0149 29.142 67.0985 26.1878 65.3928C23.0615 63.5879 21.3398 61.0354 21.3398 58.2055C21.3398 54.8767 23.7533 51.5741 27.9615 49.1444C31.6553 47.0118 36.3593 45.7267 41.2071 45.5258C46.0878 45.3232 50.5643 46.2449 53.8127 48.1204C56.939 49.9253 58.6607 52.4778 58.6607 55.3077C58.6608 58.6364 56.2472 61.9391 52.039 64.3688C48.3453 66.5013 43.6412 67.7865 38.7934 67.9874C38.3513 68.0057 37.9118 68.0149 37.477 68.0149ZM42.5121 47.7773C37.8622 47.7773 32.9445 48.914 29.1074 51.1293C25.6275 53.1385 23.6318 55.7176 23.6318 58.2055C23.6318 60.1821 24.9465 62.0297 27.3337 63.408C33.3395 66.8754 43.9085 66.4155 50.893 62.3839C54.3729 60.3749 56.3687 57.7956 56.3686 55.3077C56.3686 53.3311 55.0539 51.4835 52.6667 50.1052C49.9602 48.5426 46.326 47.7773 42.5121 47.7773Z" fill="#7AB2F6"/>
<path d="M38.5575 63.7873C36.0218 63.7873 33.5914 63.261 31.7357 62.1896C29.7646 61.0516 28.6792 59.421 28.6792 57.5982C28.6792 55.4882 30.1688 53.418 32.7662 51.9184C37.4005 49.2428 44.2079 48.9816 48.2643 51.3235C50.2354 52.4615 51.3209 54.0921 51.3209 55.9148C51.3209 58.0248 49.831 60.0951 47.2339 61.5946C44.7196 63.0463 41.5647 63.7873 38.5575 63.7873ZM41.4771 52.0391C38.8419 52.0391 36.0433 52.673 33.912 53.9034C32.0429 54.9825 30.971 56.3292 30.971 57.5984C30.971 58.8409 32.0101 59.7016 32.8816 60.2048C36.1815 62.11 42.2292 61.8377 46.0877 59.6099C47.9569 58.5308 49.0287 57.1841 49.0287 55.915C49.0288 54.6724 47.9897 53.8117 47.1182 53.3085C45.641 52.4556 43.6127 52.0391 41.4771 52.0391Z" fill="#7AB2F6"/>
<path d="M55.7423 21.1541C55.4814 16.7731 53.8501 13.663 51.4124 12.227L51.4128 12.2252L49.847 11.3212C49.5495 11.1504 45.3214 8.76363 41.4542 8.90629C39.1847 8.99006 36.9027 10.1354 35.0013 11.4562C31.9234 13.5942 29.461 16.4979 27.7624 19.8385C25.5681 24.1539 24.2192 29.0713 24.2192 33.6304C24.2192 37.2625 25.078 40.1296 26.5356 42.0482L32.0045 50.1551C33.0287 51.6732 34.3847 52.9386 35.97 53.8555L39.9633 56.1653C40.0965 56.2631 40.236 56.3436 40.3814 56.4071L40.3861 56.4098L40.3862 56.409C42.3479 57.2597 45.3183 55.0451 46.7686 51.22L53.4645 33.5602C55.0994 29.5208 55.9809 25.1581 55.7423 21.1541Z" fill="#00B698"/>
<path d="M53.4646 33.5604C55.0994 29.5208 55.9809 25.1581 55.7423 21.1542C55.2615 13.0821 50.1346 9.31152 43.8658 12.4123C36.47 16.0707 30.3284 27.4335 30.3284 37.1629C30.3284 40.795 31.1871 43.6621 32.6447 45.5807L39.3406 55.5086C41.084 58.0936 45.0252 55.8181 46.7687 51.2201L53.4646 33.5604Z" fill="#00DBA2"/>
<path d="M51.1967 25.1218C51.1967 31.1175 47.5514 38.0826 43.0547 40.6788C38.558 43.275 34.9126 40.5192 34.9126 34.5235C34.9126 28.5278 38.558 21.5627 43.0547 18.9665C47.5514 16.3704 51.1967 19.1262 51.1967 25.1218Z" fill="white"/>
</svg>
