<svg width="40" height="41" viewBox="0 0 40 41" fill="none" xmlns="http://www.w3.org/2000/svg">
<g clip-path="url(#clip0_540_7287)">
<path d="M20 0.576416C8.95599 0.576416 0 9.53241 0 20.5764C0 31.6204 8.95599 40.5764 20 40.5764C31.044 40.5764 40 31.6204 40 20.5764C40 9.53241 31.044 0.576416 20 0.576416ZM14.1882 30.8108H9.31732V16.1566H14.1882V30.8108ZM11.7529 14.1555H11.7212C10.0867 14.1555 9.02954 13.0303 9.02954 11.6241C9.02954 10.1861 10.119 9.09204 11.7853 9.09204C13.4515 9.09204 14.4769 10.1861 14.5087 11.6241C14.5087 13.0303 13.4515 14.1555 11.7529 14.1555ZM31.7517 30.8108H26.8814V22.9711C26.8814 21.0009 26.1761 19.6572 24.4138 19.6572C23.0682 19.6572 22.2668 20.5636 21.9147 21.4385C21.7859 21.7516 21.7545 22.1893 21.7545 22.6272V30.8108H16.8839C16.8839 30.8108 16.9476 17.5314 16.8839 16.1566H21.7545V18.2314C22.4017 17.2329 23.5599 15.8126 26.1441 15.8126C29.3488 15.8126 31.7517 17.907 31.7517 22.4081V30.8108Z" fill="#4C555B"/>
</g>
<defs>
<clipPath id="clip0_540_7287">
<rect width="40" height="40" fill="white" transform="translate(0 0.576416)"/>
</clipPath>
</defs>
</svg>
