<svg width="228" height="31" viewBox="0 0 228 31" fill="none" xmlns="http://www.w3.org/2000/svg">
<path d="M45.2664 0.74585H47.1678L49.7961 11.418L50.0366 12.4122H50.1149L50.4168 11.418L53.6491 0.74585H55.4274L58.5199 11.418L58.8219 12.4122H58.9002L61.7466 0.74585H63.648L59.7502 15.2713H57.9719L54.9018 4.76196L54.5774 3.62735H54.4991L54.158 4.76196L50.9649 15.2713H49.1865L45.2664 0.74585Z" fill="#202124"/>
<path d="M66.1364 14.8669C65.3311 14.3782 64.6992 13.7154 64.2462 12.8785C63.7933 12.0416 63.5696 11.1148 63.5696 10.0981C63.5696 9.08145 63.7933 8.15465 64.2462 7.31772C64.6992 6.4808 65.3255 5.81801 66.1364 5.32933C66.9417 4.84066 67.8532 4.59912 68.8654 4.59912C69.8776 4.59912 70.7835 4.84066 71.5944 5.32933C72.3997 5.81801 73.0316 6.4808 73.4845 7.31772C73.9375 8.15465 74.1612 9.08145 74.1612 10.0981C74.1612 11.1148 73.9375 12.036 73.4845 12.8785C73.0316 13.7154 72.4053 14.3782 71.5944 14.8669C70.7891 15.3556 69.8776 15.5971 68.8654 15.5971C67.8532 15.5971 66.9473 15.35 66.1364 14.8669ZM70.6325 13.5582C71.1806 13.238 71.6167 12.783 71.9467 12.1876C72.2766 11.5922 72.4388 10.8957 72.4388 10.0981C72.4388 9.30051 72.2766 8.60401 71.9467 8.00861C71.6167 7.41321 71.1806 6.95824 70.6325 6.63808C70.0845 6.32353 69.4973 6.16063 68.8654 6.16063C68.2335 6.16063 67.6407 6.31791 67.0871 6.63808C66.5334 6.95824 66.0917 7.41321 65.7617 8.00861C65.4318 8.60401 65.2696 9.30051 65.2696 10.0981C65.2696 10.8957 65.4318 11.5922 65.7617 12.1876C66.0917 12.783 66.5334 13.238 67.0871 13.5582C67.6407 13.8727 68.2335 14.0356 68.8654 14.0356C69.4973 14.0356 70.0901 13.8783 70.6325 13.5582Z" fill="#202124"/>
<path d="M75.9506 4.92491H77.5891V6.4471H77.6674C77.9638 5.91911 78.4055 5.48098 78.9983 5.12712C79.5911 4.77325 80.2174 4.59912 80.8773 4.59912C81.6322 4.59912 82.2865 4.77886 82.8457 5.14397C83.405 5.50907 83.8076 5.99774 84.0481 6.60437C84.4116 5.99774 84.8925 5.50907 85.4908 5.14397C86.0892 4.77886 86.7882 4.59912 87.5823 4.59912C88.7679 4.59912 89.657 4.95862 90.261 5.6832C90.8594 6.40779 91.1613 7.39074 91.1613 8.63771V15.2713H89.4669V8.9017C89.4669 7.94121 89.2712 7.2447 88.8797 6.8122C88.4883 6.37969 87.9123 6.16063 87.1405 6.16063C86.6261 6.16063 86.1619 6.30668 85.7481 6.60437C85.3287 6.90207 85.0043 7.30088 84.7695 7.80079C84.5346 8.3007 84.4171 8.83991 84.4171 9.42408V15.2657H82.7003V8.91295C82.7003 7.94122 82.5046 7.23348 82.1132 6.80097C81.7217 6.36847 81.1513 6.1494 80.3964 6.1494C79.8819 6.1494 79.4177 6.30106 79.0039 6.60437C78.5845 6.90769 78.2601 7.31212 78.0253 7.82326C77.7904 8.3344 77.673 8.87925 77.673 9.45779V15.2601H75.9562V4.91367L75.9506 4.92491Z" fill="#202124"/>
<path d="M95.5625 14.8894C94.7796 14.4175 94.1701 13.766 93.7339 12.9291C93.2977 12.0977 93.0796 11.1597 93.0796 10.1206C93.0796 9.08145 93.2865 8.19958 93.6947 7.36266C94.103 6.52573 94.6901 5.85169 95.4395 5.35178C96.1944 4.85187 97.0668 4.60474 98.0678 4.60474C99.0688 4.60474 99.9524 4.82941 100.696 5.28438C101.434 5.73935 102.005 6.36283 102.402 7.16044C102.799 7.95805 103 8.87361 103 9.90151C103 10.1037 102.978 10.2778 102.939 10.4295H94.7964C94.8355 11.2159 95.0257 11.8787 95.3612 12.4179C95.6967 12.9571 96.1273 13.3672 96.6418 13.6368C97.1619 13.9064 97.7043 14.0412 98.2691 14.0412C99.5889 14.0412 100.607 13.4177 101.317 12.1764L102.771 12.8841C102.329 13.721 101.725 14.3838 100.965 14.8725C100.204 15.3612 99.2869 15.6027 98.2076 15.6027C97.2234 15.6027 96.3398 15.3668 95.5625 14.895V14.8894ZM101.177 9.0028C101.149 8.57029 101.026 8.13779 100.814 7.70528C100.596 7.27278 100.26 6.90769 99.7958 6.60999C99.3317 6.31229 98.7501 6.16625 98.0511 6.16625C97.2458 6.16625 96.5579 6.42463 95.9987 6.94701C95.4395 7.46939 95.0704 8.15464 94.8971 9.00842H101.177V9.0028Z" fill="#202124"/>
<path d="M104.997 4.92491H106.635V6.4471H106.713C106.999 5.93034 107.446 5.49784 108.067 5.13836C108.688 4.77888 109.347 4.59912 110.046 4.59912C111.288 4.59912 112.233 4.95862 112.882 5.6832C113.536 6.40779 113.86 7.39074 113.86 8.63771V15.2713H112.144V8.9017C112.144 7.94121 111.914 7.2447 111.456 6.8122C110.997 6.37969 110.371 6.16063 109.577 6.16063C109.023 6.16063 108.531 6.31792 108.089 6.62685C107.653 6.9414 107.312 7.34582 107.071 7.85696C106.831 8.3681 106.708 8.89609 106.708 9.44655V15.2713H104.991V4.92491H104.997Z" fill="#202124"/>
<path d="M123.524 2.38599H119.464V0.74585H129.284V2.38599H125.246V15.2713H123.529V2.38599H123.524Z" fill="#202124"/>
<path d="M131.42 14.8894C130.637 14.4175 130.027 13.766 129.591 12.9291C129.155 12.0977 128.937 11.1597 128.937 10.1206C128.937 9.08145 129.144 8.19958 129.552 7.36266C129.96 6.52573 130.547 5.85169 131.297 5.35178C132.052 4.85187 132.924 4.60474 133.925 4.60474C134.926 4.60474 135.81 4.82941 136.553 5.28438C137.291 5.73935 137.862 6.36283 138.259 7.16044C138.656 7.95805 138.857 8.87361 138.857 9.90151C138.857 10.1037 138.835 10.2778 138.796 10.4295H130.654C130.693 11.2159 130.883 11.8787 131.218 12.4179C131.554 12.9571 131.984 13.3672 132.499 13.6368C133.019 13.9064 133.561 14.0412 134.126 14.0412C135.446 14.0412 136.464 13.4177 137.174 12.1764L138.628 12.8841C138.186 13.721 137.582 14.3838 136.822 14.8725C136.061 15.3612 135.144 15.6027 134.065 15.6027C133.081 15.6027 132.197 15.3668 131.42 14.895V14.8894ZM137.034 9.0028C137.006 8.57029 136.883 8.13779 136.671 7.70528C136.453 7.27278 136.117 6.90769 135.653 6.60999C135.189 6.31229 134.607 6.16625 133.908 6.16625C133.103 6.16625 132.415 6.42463 131.856 6.94701C131.297 7.46939 130.928 8.15464 130.754 9.00842H137.034V9.0028Z" fill="#202124"/>
<path d="M142.934 14.8725C142.14 14.3951 141.519 13.7379 141.078 12.9066C140.636 12.0753 140.412 11.1372 140.412 10.0981C140.412 9.05897 140.636 8.11533 141.078 7.27841C141.525 6.44148 142.14 5.7843 142.934 5.31248C143.728 4.84065 144.623 4.60474 145.618 4.60474C146.737 4.60474 147.676 4.86312 148.437 5.3855C149.197 5.90788 149.74 6.59875 150.064 7.46376L148.51 8.11533C148.252 7.48061 147.872 6.99756 147.369 6.66616C146.865 6.33476 146.256 6.17187 145.54 6.17187C144.936 6.17187 144.366 6.33476 143.846 6.66616C143.32 6.99756 142.901 7.45815 142.582 8.05355C142.263 8.64895 142.106 9.33421 142.106 10.1037C142.106 10.8733 142.263 11.5585 142.582 12.1539C142.901 12.7493 143.32 13.2099 143.846 13.5413C144.371 13.8727 144.936 14.0356 145.54 14.0356C146.267 14.0356 146.893 13.8671 147.419 13.5301C147.945 13.1931 148.336 12.71 148.593 12.0921L150.131 12.7437C149.779 13.5975 149.22 14.2884 148.442 14.8107C147.671 15.3387 146.731 15.6027 145.624 15.6027C144.629 15.6027 143.734 15.3612 142.94 14.8837L142.934 14.8725Z" fill="#202124"/>
<path d="M151.982 0.74585H153.699V5.02596L153.621 6.44705H153.699C153.984 5.91905 154.432 5.48093 155.041 5.12706C155.656 4.77319 156.322 4.59907 157.049 4.59907C158.301 4.59907 159.258 4.96979 159.918 5.70561C160.577 6.44142 160.907 7.41877 160.907 8.63765V15.2713H159.191V8.90165C159.191 7.96924 158.956 7.27835 158.486 6.82899C158.016 6.38526 157.401 6.16058 156.646 6.16058C156.109 6.16058 155.612 6.32348 155.159 6.64926C154.706 6.97505 154.353 7.3907 154.091 7.90746C153.828 8.42421 153.699 8.95783 153.699 9.50829V15.2713H151.982V0.74585Z" fill="#202124"/>
<path d="M163.379 4.92491H165.018V6.4471H165.096C165.392 5.91911 165.834 5.48098 166.427 5.12712C167.02 4.77325 167.646 4.59912 168.306 4.59912C169.061 4.59912 169.715 4.77886 170.274 5.14397C170.834 5.50907 171.236 5.99774 171.477 6.60437C171.84 5.99774 172.321 5.50907 172.919 5.14397C173.518 4.77886 174.217 4.59912 175.011 4.59912C176.196 4.59912 177.086 4.95862 177.69 5.6832C178.288 6.40779 178.59 7.39074 178.59 8.63771V15.2713H176.896V8.9017C176.896 7.94121 176.7 7.2447 176.308 6.8122C175.917 6.37969 175.341 6.16063 174.569 6.16063C174.055 6.16063 173.59 6.30668 173.177 6.60437C172.757 6.90207 172.433 7.30088 172.198 7.80079C171.963 8.3007 171.846 8.83991 171.846 9.42408V15.2657H170.129V8.91295C170.129 7.94122 169.933 7.23348 169.542 6.80097C169.15 6.36847 168.58 6.1494 167.825 6.1494C167.31 6.1494 166.846 6.30106 166.432 6.60437C166.013 6.90769 165.689 7.31212 165.454 7.82326C165.219 8.3344 165.102 8.87925 165.102 9.45779V15.2601H163.385V4.91367L163.379 4.92491Z" fill="#202124"/>
<path d="M182.225 15.1477C181.632 14.85 181.174 14.44 180.849 13.9233C180.525 13.4009 180.363 12.8111 180.363 12.1483C180.363 11.053 180.771 10.1992 181.593 9.58135C182.415 8.9691 183.45 8.66018 184.702 8.66018C185.323 8.66018 185.899 8.72757 186.43 8.86238C186.962 8.99719 187.37 9.15447 187.655 9.3286V8.6995C187.655 7.92998 187.387 7.3065 186.85 6.84029C186.313 6.37409 185.631 6.13818 184.809 6.13818C184.227 6.13818 183.696 6.26174 183.215 6.5145C182.728 6.76165 182.348 7.10991 182.063 7.55926L180.771 6.58752C181.174 5.96404 181.733 5.47537 182.437 5.12712C183.142 4.77325 183.931 4.59912 184.792 4.59912C186.19 4.59912 187.291 4.96984 188.097 5.70566C188.896 6.44148 189.299 7.44692 189.299 8.71635V15.2713H187.661V13.7885H187.582C187.286 14.2884 186.844 14.7152 186.251 15.0691C185.659 15.423 184.993 15.5971 184.249 15.5971C183.506 15.5971 182.823 15.4454 182.231 15.1477H182.225ZM186.022 13.6256C186.52 13.3279 186.917 12.9291 187.213 12.4291C187.51 11.9292 187.655 11.3788 187.655 10.7834C187.331 10.5643 186.934 10.3902 186.464 10.2554C185.994 10.1206 185.496 10.0532 184.971 10.0532C184.026 10.0532 183.315 10.2498 182.84 10.643C182.365 11.0361 182.124 11.5417 182.124 12.1651C182.124 12.7325 182.342 13.1931 182.773 13.5469C183.204 13.9008 183.752 14.0749 184.411 14.0749C184.987 14.0749 185.53 13.9289 186.028 13.6312L186.022 13.6256Z" fill="#202124"/>
<path d="M191.676 0.74585H193.392V9.87339L198.241 4.92486H200.422V5.00349L196.384 9.10387L200.528 15.1926V15.2713H198.487L195.176 10.3003L193.398 12.0865V15.2713H191.681V0.74585H191.676Z" fill="#202124"/>
<path d="M203.514 14.8894C202.731 14.4175 202.122 13.766 201.686 12.9291C201.249 12.0977 201.031 11.1597 201.031 10.1206C201.031 9.08145 201.238 8.19958 201.647 7.36266C202.055 6.52573 202.642 5.85169 203.391 5.35178C204.146 4.85187 205.019 4.60474 206.02 4.60474C207.021 4.60474 207.904 4.82941 208.648 5.28438C209.386 5.73935 209.957 6.36283 210.354 7.16044C210.751 7.95805 210.952 8.87361 210.952 9.90151C210.952 10.1037 210.93 10.2778 210.89 10.4295H202.748C202.787 11.2159 202.977 11.8787 203.313 12.4179C203.649 12.9571 204.079 13.3672 204.594 13.6368C205.114 13.9064 205.656 14.0412 206.221 14.0412C207.541 14.0412 208.558 13.4177 209.269 12.1764L210.723 12.8841C210.281 13.721 209.677 14.3838 208.916 14.8725C208.156 15.3612 207.239 15.6027 206.159 15.6027C205.175 15.6027 204.292 15.3668 203.514 14.895V14.8894ZM209.129 9.0028C209.101 8.57029 208.978 8.13779 208.765 7.70528C208.547 7.27278 208.212 6.90769 207.748 6.60999C207.283 6.31229 206.702 6.16625 206.003 6.16625C205.198 6.16625 204.51 6.42463 203.95 6.94701C203.391 7.46939 203.022 8.15464 202.849 9.00842H209.129V9.0028Z" fill="#202124"/>
<path d="M212.948 4.92491H214.587V6.58752H214.665C214.866 6.02021 215.258 5.54839 215.839 5.16644C216.421 4.78449 217.025 4.59912 217.657 4.59912C218.127 4.59912 218.535 4.67216 218.87 4.82381V6.67178C218.44 6.45271 217.953 6.346 217.416 6.346C216.919 6.346 216.46 6.48641 216.041 6.77288C215.621 7.05934 215.291 7.4413 215.04 7.92436C214.788 8.40742 214.665 8.92417 214.665 9.48025V15.2769H212.948V4.93052V4.92491Z" fill="#202124"/>
<path d="M220.951 14.8163C220.207 14.294 219.687 13.6312 219.374 12.8167L220.912 12.1258C221.169 12.7493 221.549 13.2268 222.053 13.5694C222.556 13.9064 223.115 14.0749 223.719 14.0749C224.368 14.0749 224.916 13.9401 225.374 13.6761C225.833 13.4121 226.062 13.0358 226.062 12.5527C226.062 12.1202 225.883 11.772 225.514 11.508C225.151 11.244 224.58 11.0193 223.797 10.8283L222.545 10.5025C221.723 10.3003 221.052 9.95769 220.526 9.46902C220 8.98035 219.738 8.35124 219.738 7.58172C219.738 6.98632 219.916 6.46395 220.274 6.00898C220.632 5.55401 221.108 5.20576 221.7 4.96424C222.293 4.71709 222.931 4.59912 223.618 4.59912C224.519 4.59912 225.324 4.79572 226.034 5.18891C226.739 5.5821 227.242 6.12693 227.539 6.82905L226.046 7.51994C225.587 6.59876 224.77 6.13818 223.602 6.13818C223.037 6.13818 222.539 6.27298 222.114 6.53697C221.689 6.80097 221.477 7.13799 221.477 7.54241C221.477 7.92436 221.622 8.22767 221.918 8.46358C222.215 8.69949 222.657 8.89609 223.249 9.04213L224.743 9.42408C225.755 9.68246 226.515 10.0644 227.024 10.5699C227.533 11.0811 227.79 11.6933 227.79 12.4291C227.79 13.0639 227.611 13.6256 227.242 14.103C226.879 14.5861 226.387 14.9512 225.766 15.2095C225.145 15.4679 224.457 15.5971 223.708 15.5971C222.601 15.5971 221.684 15.3387 220.94 14.8163H220.951Z" fill="#202124"/>
<path d="M49.726 30.144C48.926 30.144 48.214 29.96 47.59 29.592C46.966 29.216 46.478 28.704 46.126 28.056C45.774 27.4 45.598 26.648 45.598 25.8C45.598 24.952 45.774 24.204 46.126 23.556C46.478 22.9 46.962 22.388 47.578 22.02C48.194 21.644 48.902 21.456 49.702 21.456C50.222 21.456 50.718 21.552 51.19 21.744C51.662 21.928 52.082 22.188 52.45 22.524C52.826 22.852 53.114 23.236 53.314 23.676L52.258 24.156C52.106 23.828 51.898 23.544 51.634 23.304C51.37 23.064 51.07 22.876 50.734 22.74C50.406 22.604 50.062 22.536 49.702 22.536C49.142 22.536 48.642 22.676 48.202 22.956C47.762 23.236 47.418 23.62 47.17 24.108C46.922 24.596 46.798 25.16 46.798 25.8C46.798 26.44 46.922 27.008 47.17 27.504C47.426 28 47.774 28.388 48.214 28.668C48.662 28.94 49.17 29.076 49.738 29.076C50.106 29.076 50.454 29.004 50.782 28.86C51.11 28.708 51.402 28.504 51.658 28.248C51.922 27.984 52.134 27.684 52.294 27.348L53.35 27.816C53.15 28.272 52.866 28.676 52.498 29.028C52.13 29.38 51.706 29.656 51.226 29.856C50.754 30.048 50.254 30.144 49.726 30.144ZM57.2462 30.144C56.6462 30.144 56.1182 30.012 55.6622 29.748C55.2062 29.476 54.8462 29.104 54.5822 28.632C54.3262 28.16 54.1982 27.616 54.1982 27C54.1982 26.384 54.3262 25.84 54.5822 25.368C54.8382 24.896 55.1942 24.528 55.6502 24.264C56.1062 23.992 56.6302 23.856 57.2222 23.856C57.8142 23.856 58.3382 23.992 58.7942 24.264C59.2502 24.528 59.6062 24.896 59.8622 25.368C60.1182 25.84 60.2462 26.384 60.2462 27C60.2462 27.616 60.1182 28.16 59.8622 28.632C59.6062 29.104 59.2502 29.476 58.7942 29.748C58.3462 30.012 57.8302 30.144 57.2462 30.144ZM57.2462 29.1C57.6062 29.1 57.9262 29.012 58.2062 28.836C58.4862 28.652 58.7022 28.404 58.8542 28.092C59.0142 27.78 59.0942 27.416 59.0942 27C59.0942 26.584 59.0142 26.22 58.8542 25.908C58.7022 25.596 58.4822 25.352 58.1942 25.176C57.9062 24.992 57.5822 24.9 57.2222 24.9C56.8542 24.9 56.5302 24.992 56.2502 25.176C55.9702 25.352 55.7502 25.596 55.5902 25.908C55.4302 26.22 55.3502 26.584 55.3502 27C55.3502 27.416 55.4302 27.78 55.5902 28.092C55.7502 28.404 55.9742 28.652 56.2622 28.836C56.5502 29.012 56.8782 29.1 57.2462 29.1ZM64.2311 30.144C63.6311 30.144 63.0991 30.012 62.6351 29.748C62.1711 29.476 61.8071 29.104 61.5431 28.632C61.2871 28.16 61.1591 27.616 61.1591 27C61.1591 26.384 61.2871 25.84 61.5431 25.368C61.8071 24.896 62.1671 24.528 62.6231 24.264C63.0871 23.992 63.6151 23.856 64.2071 23.856C64.7911 23.856 65.3151 23.992 65.7791 24.264C66.2511 24.536 66.6031 24.924 66.8351 25.428L65.8031 25.86C65.6511 25.564 65.4311 25.332 65.1431 25.164C64.8631 24.996 64.5391 24.912 64.1711 24.912C63.8111 24.912 63.4911 25 63.2111 25.176C62.9311 25.352 62.7111 25.6 62.5511 25.92C62.3911 26.232 62.3111 26.592 62.3111 27C62.3111 27.408 62.3911 27.768 62.5511 28.08C62.7111 28.392 62.9351 28.64 63.2231 28.824C63.5111 29 63.8351 29.088 64.1951 29.088C64.5631 29.088 64.8911 28.996 65.1791 28.812C65.4671 28.62 65.6831 28.364 65.8271 28.044L66.8711 28.464C66.6391 28.992 66.2871 29.404 65.8151 29.7C65.3511 29.996 64.8231 30.144 64.2311 30.144ZM68.011 30V21.6H69.139V30H68.011ZM72.163 30V26.928H73.291V30H72.163ZM72.163 26.928C72.163 26.384 72.099 25.972 71.971 25.692C71.843 25.404 71.667 25.204 71.443 25.092C71.227 24.98 70.979 24.92 70.699 24.912C70.203 24.912 69.819 25.084 69.547 25.428C69.275 25.772 69.139 26.256 69.139 26.88H68.659C68.659 26.248 68.751 25.708 68.935 25.26C69.127 24.804 69.395 24.456 69.739 24.216C70.091 23.976 70.507 23.856 70.987 23.856C71.459 23.856 71.867 23.952 72.211 24.144C72.555 24.336 72.823 24.636 73.015 25.044C73.207 25.444 73.299 25.972 73.291 26.628V26.928H72.163ZM78.4096 30L78.3616 28.956V26.868C78.3616 26.428 78.3096 26.06 78.2056 25.764C78.1096 25.468 77.9576 25.244 77.7496 25.092C77.5496 24.94 77.2816 24.864 76.9456 24.864C76.6336 24.864 76.3616 24.928 76.1296 25.056C75.9056 25.184 75.7176 25.384 75.5656 25.656L74.5576 25.272C74.7016 25 74.8816 24.76 75.0976 24.552C75.3136 24.336 75.5736 24.168 75.8776 24.048C76.1816 23.92 76.5376 23.856 76.9456 23.856C77.5136 23.856 77.9856 23.968 78.3616 24.192C78.7376 24.416 79.0176 24.74 79.2016 25.164C79.3936 25.588 79.4856 26.112 79.4776 26.736L79.4656 30H78.4096ZM76.6456 30.144C75.9336 30.144 75.3776 29.984 74.9776 29.664C74.5856 29.336 74.3896 28.884 74.3896 28.308C74.3896 27.692 74.5936 27.224 75.0016 26.904C75.4176 26.576 75.9936 26.412 76.7296 26.412H78.3976V27.312H77.0416C76.4896 27.312 76.1016 27.4 75.8776 27.576C75.6536 27.744 75.5416 27.98 75.5416 28.284C75.5416 28.564 75.6456 28.784 75.8536 28.944C76.0696 29.096 76.3656 29.172 76.7416 29.172C77.0696 29.172 77.3536 29.104 77.5936 28.968C77.8336 28.824 78.0216 28.624 78.1576 28.368C78.2936 28.112 78.3616 27.82 78.3616 27.492H78.7576C78.7576 28.308 78.5816 28.956 78.2296 29.436C77.8856 29.908 77.3576 30.144 76.6456 30.144ZM80.9131 30V21.6H82.0531V28.884L81.9931 30H80.9131ZM84.0211 30.144C83.5171 30.144 83.0771 30.012 82.7011 29.748C82.3331 29.484 82.0491 29.116 81.8491 28.644C81.6491 28.172 81.5491 27.624 81.5491 27C81.5491 26.368 81.6491 25.82 81.8491 25.356C82.0491 24.884 82.3331 24.516 82.7011 24.252C83.0771 23.988 83.5171 23.856 84.0211 23.856C84.5571 23.856 85.0291 23.988 85.4371 24.252C85.8451 24.516 86.1611 24.884 86.3851 25.356C86.6171 25.82 86.7331 26.368 86.7331 27C86.7331 27.624 86.6171 28.172 86.3851 28.644C86.1611 29.116 85.8451 29.484 85.4371 29.748C85.0291 30.012 84.5571 30.144 84.0211 30.144ZM83.7451 29.112C84.1051 29.112 84.4211 29.024 84.6931 28.848C84.9651 28.664 85.1771 28.416 85.3291 28.104C85.4891 27.784 85.5691 27.416 85.5691 27C85.5691 26.584 85.4931 26.22 85.3411 25.908C85.1891 25.588 84.9771 25.34 84.7051 25.164C84.4331 24.98 84.1171 24.888 83.7571 24.888C83.4291 24.888 83.1331 24.98 82.8691 25.164C82.6131 25.34 82.4131 25.588 82.2691 25.908C82.1251 26.228 82.0531 26.592 82.0531 27C82.0531 27.416 82.1251 27.784 82.2691 28.104C82.4131 28.416 82.6131 28.664 82.8691 28.848C83.1251 29.024 83.4171 29.112 83.7451 29.112ZM91.6635 30L91.6155 28.956V26.868C91.6155 26.428 91.5635 26.06 91.4595 25.764C91.3635 25.468 91.2115 25.244 91.0035 25.092C90.8035 24.94 90.5355 24.864 90.1995 24.864C89.8875 24.864 89.6155 24.928 89.3835 25.056C89.1595 25.184 88.9715 25.384 88.8195 25.656L87.8115 25.272C87.9555 25 88.1355 24.76 88.3515 24.552C88.5675 24.336 88.8275 24.168 89.1315 24.048C89.4355 23.92 89.7915 23.856 90.1995 23.856C90.7675 23.856 91.2395 23.968 91.6155 24.192C91.9915 24.416 92.2715 24.74 92.4555 25.164C92.6475 25.588 92.7395 26.112 92.7315 26.736L92.7195 30H91.6635ZM89.8995 30.144C89.1875 30.144 88.6315 29.984 88.2315 29.664C87.8395 29.336 87.6435 28.884 87.6435 28.308C87.6435 27.692 87.8475 27.224 88.2555 26.904C88.6715 26.576 89.2475 26.412 89.9835 26.412H91.6515V27.312H90.2955C89.7435 27.312 89.3555 27.4 89.1315 27.576C88.9075 27.744 88.7955 27.98 88.7955 28.284C88.7955 28.564 88.8995 28.784 89.1075 28.944C89.3235 29.096 89.6195 29.172 89.9955 29.172C90.3235 29.172 90.6075 29.104 90.8475 28.968C91.0875 28.824 91.2755 28.624 91.4115 28.368C91.5475 28.112 91.6155 27.82 91.6155 27.492H92.0115C92.0115 28.308 91.8355 28.956 91.4835 29.436C91.1395 29.908 90.6115 30.144 89.8995 30.144ZM94.167 30V24H95.235L95.283 24.828C95.475 24.508 95.715 24.268 96.003 24.108C96.291 23.94 96.623 23.856 96.999 23.856C97.479 23.856 97.887 23.968 98.223 24.192C98.559 24.408 98.803 24.74 98.955 25.188C99.131 24.756 99.379 24.428 99.699 24.204C100.019 23.972 100.399 23.856 100.839 23.856C101.519 23.856 102.051 24.08 102.435 24.528C102.819 24.968 103.007 25.648 102.999 26.568V30H101.871V26.928C101.871 26.384 101.811 25.972 101.691 25.692C101.579 25.404 101.427 25.204 101.235 25.092C101.043 24.98 100.819 24.92 100.563 24.912C100.115 24.912 99.767 25.084 99.519 25.428C99.279 25.772 99.159 26.256 99.159 26.88V30H98.019V26.928C98.019 26.384 97.963 25.972 97.851 25.692C97.739 25.404 97.583 25.204 97.383 25.092C97.191 24.98 96.967 24.92 96.711 24.912C96.263 24.912 95.915 25.084 95.667 25.428C95.427 25.772 95.307 26.256 95.307 26.88V30H94.167ZM104.456 30V21.6H105.596V28.884L105.536 30H104.456ZM107.564 30.144C107.06 30.144 106.62 30.012 106.244 29.748C105.876 29.484 105.592 29.116 105.392 28.644C105.192 28.172 105.092 27.624 105.092 27C105.092 26.368 105.192 25.82 105.392 25.356C105.592 24.884 105.876 24.516 106.244 24.252C106.62 23.988 107.06 23.856 107.564 23.856C108.1 23.856 108.572 23.988 108.98 24.252C109.388 24.516 109.704 24.884 109.928 25.356C110.16 25.82 110.276 26.368 110.276 27C110.276 27.624 110.16 28.172 109.928 28.644C109.704 29.116 109.388 29.484 108.98 29.748C108.572 30.012 108.1 30.144 107.564 30.144ZM107.288 29.112C107.648 29.112 107.964 29.024 108.236 28.848C108.508 28.664 108.72 28.416 108.872 28.104C109.032 27.784 109.112 27.416 109.112 27C109.112 26.584 109.036 26.22 108.884 25.908C108.732 25.588 108.52 25.34 108.248 25.164C107.976 24.98 107.66 24.888 107.3 24.888C106.972 24.888 106.676 24.98 106.412 25.164C106.156 25.34 105.956 25.588 105.812 25.908C105.668 26.228 105.596 26.592 105.596 27C105.596 27.416 105.668 27.784 105.812 28.104C105.956 28.416 106.156 28.664 106.412 28.848C106.668 29.024 106.96 29.112 107.288 29.112ZM115.206 30L115.158 28.956V26.868C115.158 26.428 115.106 26.06 115.002 25.764C114.906 25.468 114.754 25.244 114.546 25.092C114.346 24.94 114.078 24.864 113.742 24.864C113.43 24.864 113.158 24.928 112.926 25.056C112.702 25.184 112.514 25.384 112.362 25.656L111.354 25.272C111.498 25 111.678 24.76 111.894 24.552C112.11 24.336 112.37 24.168 112.674 24.048C112.978 23.92 113.334 23.856 113.742 23.856C114.31 23.856 114.782 23.968 115.158 24.192C115.534 24.416 115.814 24.74 115.998 25.164C116.19 25.588 116.282 26.112 116.274 26.736L116.262 30H115.206ZM113.442 30.144C112.73 30.144 112.174 29.984 111.774 29.664C111.382 29.336 111.186 28.884 111.186 28.308C111.186 27.692 111.39 27.224 111.798 26.904C112.214 26.576 112.79 26.412 113.526 26.412H115.194V27.312H113.838C113.286 27.312 112.898 27.4 112.674 27.576C112.45 27.744 112.338 27.98 112.338 28.284C112.338 28.564 112.442 28.784 112.65 28.944C112.866 29.096 113.162 29.172 113.538 29.172C113.866 29.172 114.15 29.104 114.39 28.968C114.63 28.824 114.818 28.624 114.954 28.368C115.09 28.112 115.158 27.82 115.158 27.492H115.554C115.554 28.308 115.378 28.956 115.026 29.436C114.682 29.908 114.154 30.144 113.442 30.144Z" fill="#202124"/>
<path d="M8.7406 29.9942H0.598365C0.268425 29.9942 0 29.7246 0 29.3932V0.606388C0 0.274989 0.268425 0.00537109 0.598365 0.00537109H8.7406C9.07054 0.00537109 9.33897 0.274989 9.33897 0.606388V3.15647C9.33897 3.48787 9.07054 3.75749 8.7406 3.75749H4.32836C3.99842 3.75749 3.73 4.0271 3.73 4.3585V25.6243C3.73 25.9557 3.99842 26.2253 4.32836 26.2253H8.7406C9.07054 26.2253 9.33897 26.4949 9.33897 26.8263V29.3988C9.33897 29.7302 9.07054 29.9999 8.7406 29.9999V29.9942Z" fill="#202124"/>
<path d="M26.8483 0.00562243H34.957C35.287 0.00562243 35.5498 0.27524 35.5498 0.60664V29.3935C35.5498 29.7249 35.2814 29.9945 34.957 29.9945H26.8483C26.5184 29.9945 26.2556 29.7249 26.2556 29.3935V26.8434C26.2556 26.512 26.524 26.2424 26.8483 26.2424H31.2382C31.5681 26.2424 31.831 25.9728 31.831 25.6414V4.37561C31.831 4.04421 31.5626 3.77459 31.2382 3.77459H26.8483C26.5184 3.77459 26.2556 3.50497 26.2556 3.17357V0.601017C26.2556 0.269618 26.524 0 26.8483 0V0.00562243Z" fill="#202124"/>
<path d="M22.52 14.6828L21.0493 12.4978C21.0269 12.627 20.9822 12.7506 20.9206 12.8629V12.8741L18.119 17.1206L22.5703 23.8553C22.7996 24.2653 23.0625 24.3664 23.4092 24.372C23.4092 24.372 23.4148 24.372 23.4204 24.372H27.2286C27.7208 24.372 28.1234 23.9676 28.1234 23.4733V23.0015L22.5256 14.6828H22.52Z" fill="#202124"/>
<path d="M28.1176 6.5325C28.1176 6.03821 27.7149 5.63379 27.2228 5.63379H23.4145C22.9224 5.63379 22.5142 6.05506 22.5198 6.5325V14.0143L28.1176 22.333V6.5325Z" fill="#202124"/>
<path d="M13.1753 6.5325C13.1753 6.03821 12.7727 5.63379 12.2806 5.63379H8.47227C7.98015 5.63379 7.57751 6.03821 7.57751 6.5325V22.4116L13.1753 14.1154V6.5325Z" fill="#202124"/>
<path d="M20.557 11.745C20.5179 11.6776 20.4675 11.6102 20.4172 11.5484C20.2494 11.3743 20.009 11.2563 19.7294 11.2563H16.0777C15.7142 11.2563 15.4234 11.4473 15.2109 11.7731L13.2648 14.6546L7.57751 23.08V23.4732C7.57751 23.5968 7.60547 23.7147 7.66139 23.8158C7.8012 24.1416 8.10877 24.3719 8.53937 24.3719H12.275H12.3588C12.7223 24.3719 13.0131 24.1809 13.2256 23.8552L17.8839 16.7778L20.5906 12.6718C20.7415 12.3966 20.7248 12.0427 20.5458 11.745H20.557Z" fill="#202124"/>
</svg>
