<svg width="40" height="39" viewBox="0 0 40 39" fill="none" xmlns="http://www.w3.org/2000/svg">
<path fill-rule="evenodd" clip-rule="evenodd" d="M19.9362 0.182617C23.542 0.223763 26.7994 1.10994 29.7085 2.84116C32.5829 4.53781 34.974 6.94352 36.6531 9.82823C38.3738 12.7549 39.2546 16.032 39.2956 19.6597C39.1935 24.6232 37.6279 28.8626 34.599 32.3778C31.5701 35.8929 27.6908 38.0676 23.675 38.9013V24.985H27.4716L28.3302 19.5163H22.5813V15.9344C22.5493 15.1919 22.7842 14.4624 23.2433 13.8779C23.7031 13.2918 24.5127 12.9838 25.6722 12.9538H29.1438V8.1633C29.094 8.14727 28.6213 8.0839 27.7258 7.97317C26.7102 7.85434 25.6889 7.79088 24.6664 7.78305C22.3522 7.79372 20.522 8.44652 19.1757 9.74144C17.8294 11.036 17.1417 12.9089 17.1125 15.3603V19.5163H12.7375V24.985H17.1125V38.9013C12.1817 38.0676 8.30239 35.8929 5.27348 32.3778C2.24458 28.8626 0.679107 24.6232 0.576904 19.6597C0.617795 16.0319 1.49862 12.7547 3.21937 9.82823C4.8985 6.94352 7.2896 4.53781 10.164 2.84116C13.0731 1.11028 16.3305 0.224096 19.9362 0.182617Z" fill="#4C555B"/>
</svg>
