<svg width="40" height="41" viewBox="0 0 40 41" fill="none" xmlns="http://www.w3.org/2000/svg">
<g clip-path="url(#clip0_540_7289)">
<path d="M20 0.576416C8.95601 0.576416 0 9.53243 0 20.5764C0 31.6204 8.95601 40.5764 20 40.5764C31.044 40.5764 40 31.6204 40 20.5764C40 9.53243 31.044 0.576416 20 0.576416ZM30.0336 15.879V18.587C28.7566 18.5875 27.5159 18.3373 26.3458 17.8436C25.5934 17.5259 24.8923 17.1167 24.2512 16.622L24.2704 24.9574C24.2623 26.8344 23.5198 28.5979 22.1758 29.9263C21.082 31.0075 19.6961 31.6951 18.1939 31.9177C17.8409 31.9699 17.4817 31.9967 17.1184 31.9967C15.5104 31.9967 13.9838 31.4758 12.7349 30.5147C12.4999 30.3338 12.2752 30.1376 12.0612 29.9263C10.6046 28.4867 9.85352 26.5356 9.98 24.483C10.0765 22.9206 10.702 21.4305 11.7448 20.2626C13.1245 18.7171 15.0547 17.8593 17.1184 17.8593C17.4817 17.8593 17.8409 17.8866 18.1939 17.9388V18.9401V21.7254C17.8592 21.615 17.5018 21.5543 17.1296 21.5543C15.2441 21.5543 13.7188 23.0926 13.747 24.9795C13.7648 26.1867 14.4243 27.242 15.397 27.8238C15.8541 28.0972 16.3799 28.2666 16.9411 28.2974C17.3808 28.3215 17.803 28.2602 18.1939 28.1312C19.541 27.6862 20.5128 26.4209 20.5128 24.9285L20.5173 19.3467V9.1561H24.2466C24.2502 9.52563 24.2877 9.88618 24.3574 10.2356C24.6389 11.6497 25.436 12.8766 26.5454 13.713C27.5127 14.4426 28.7173 14.8751 30.0228 14.8751C30.0237 14.8751 30.0345 14.8751 30.0335 14.8742V15.879H30.0336Z" fill="#4C555B"/>
</g>
<defs>
<clipPath id="clip0_540_7289">
<rect width="40" height="40" fill="white" transform="translate(0 0.576416)"/>
</clipPath>
</defs>
</svg>
