<svg width="40" height="41" viewBox="0 0 40 41" fill="none" xmlns="http://www.w3.org/2000/svg">
<g clip-path="url(#clip0_540_7281)">
<path d="M23.8281 20.5764C23.8281 22.6907 22.1143 24.4045 20 24.4045C17.8857 24.4045 16.1719 22.6907 16.1719 20.5764C16.1719 18.4622 17.8857 16.7483 20 16.7483C22.1143 16.7483 23.8281 18.4622 23.8281 20.5764Z" fill="#4C555B"/>
<path d="M28.9526 13.8033C28.7686 13.3046 28.475 12.8533 28.0936 12.4828C27.7231 12.1013 27.272 11.8077 26.7731 11.6237C26.3684 11.4666 25.7605 11.2795 24.6408 11.2285C23.4296 11.1733 23.0664 11.1614 20 11.1614C16.9333 11.1614 16.5701 11.173 15.3592 11.2282C14.2395 11.2795 13.6313 11.4666 13.2269 11.6237C12.728 11.8077 12.2766 12.1013 11.9064 12.4828C11.525 12.8533 11.2314 13.3043 11.0471 13.8033C10.8899 14.2079 10.7028 14.8162 10.6519 15.9359C10.5966 17.1468 10.5847 17.5099 10.5847 20.5767C10.5847 23.6431 10.5966 24.0062 10.6519 25.2175C10.7028 26.3372 10.8899 26.9451 11.0471 27.3497C11.2314 27.8487 11.5247 28.2997 11.9061 28.6702C12.2766 29.0517 12.7277 29.3453 13.2266 29.5293C13.6313 29.6868 14.2395 29.8738 15.3592 29.9248C16.5701 29.98 16.933 29.9916 19.9997 29.9916C23.0667 29.9916 23.4299 29.98 24.6405 29.9248C25.7602 29.8738 26.3684 29.6868 26.7731 29.5293C27.7747 29.1429 28.5663 28.3513 28.9526 27.3497C29.1098 26.9451 29.2969 26.3372 29.3481 25.2175C29.4034 24.0062 29.415 23.6431 29.415 20.5767C29.415 17.5099 29.4034 17.1468 29.3481 15.9359C29.2972 14.8162 29.1101 14.2079 28.9526 13.8033ZM20 26.4736C16.7429 26.4736 14.1025 23.8335 14.1025 20.5764C14.1025 17.3192 16.7429 14.6791 20 14.6791C23.2568 14.6791 25.8972 17.3192 25.8972 20.5764C25.8972 23.8335 23.2568 26.4736 20 26.4736ZM26.1304 15.8242C25.3693 15.8242 24.7522 15.2071 24.7522 14.446C24.7522 13.6849 25.3693 13.0678 26.1304 13.0678C26.8915 13.0678 27.5085 13.6849 27.5085 14.446C27.5082 15.2071 26.8915 15.8242 26.1304 15.8242Z" fill="#4C555B"/>
<path d="M20 0.576416C8.95599 0.576416 0 9.53241 0 20.5764C0 31.6204 8.95599 40.5764 20 40.5764C31.044 40.5764 40 31.6204 40 20.5764C40 9.53241 31.044 0.576416 20 0.576416ZM31.4151 25.3112C31.3596 26.5338 31.1652 27.3684 30.8813 28.099C30.2847 29.6417 29.0652 30.8611 27.5226 31.4578C26.7923 31.7416 25.9573 31.9357 24.7351 31.9915C23.5104 32.0474 23.1192 32.0608 20.0003 32.0608C16.8811 32.0608 16.4902 32.0474 15.2652 31.9915C14.043 31.9357 13.208 31.7416 12.4777 31.4578C11.7111 31.1694 11.0172 30.7174 10.4434 30.133C9.85931 29.5596 9.40735 28.8653 9.11896 28.099C8.83514 27.3687 8.64075 26.5338 8.58521 25.3115C8.52875 24.0865 8.51562 23.6953 8.51562 20.5764C8.51562 17.4575 8.52875 17.0663 8.5849 15.8416C8.64044 14.6191 8.83453 13.7844 9.11835 13.0538C9.40674 12.2875 9.85901 11.5933 10.4434 11.0198C11.0168 10.4354 11.7111 9.98346 12.4774 9.69507C13.208 9.41125 14.0427 9.21716 15.2652 9.16132C16.4899 9.10547 16.8811 9.09204 20 9.09204C23.1189 9.09204 23.5101 9.10547 24.7348 9.16162C25.9573 9.21716 26.792 9.41125 27.5226 9.69476C28.2889 9.98315 28.9832 10.4354 29.5569 11.0198C30.141 11.5936 30.5933 12.2875 30.8813 13.0538C31.1655 13.7844 31.3596 14.6191 31.4154 15.8416C31.4713 17.0663 31.4844 17.4575 31.4844 20.5764C31.4844 23.6953 31.4713 24.0865 31.4151 25.3112Z" fill="#4C555B"/>
</g>
<defs>
<clipPath id="clip0_540_7281">
<rect width="40" height="40" fill="white" transform="translate(0 0.576416)"/>
</clipPath>
</defs>
</svg>
