<svg width="20" height="20" viewBox="0 0 20 20" fill="none" xmlns="http://www.w3.org/2000/svg">
<path d="M16.6673 8.33317C16.6673 12.494 12.0515 16.8273 10.5015 18.1657C10.3571 18.2742 10.1813 18.333 10.0007 18.333C9.81999 18.333 9.64421 18.2742 9.49982 18.1657C7.94982 16.8273 3.33398 12.494 3.33398 8.33317C3.33398 6.56506 4.03636 4.86937 5.28661 3.61913C6.53685 2.36888 8.23254 1.6665 10.0007 1.6665C11.7688 1.6665 13.4645 2.36888 14.7147 3.61913C15.9649 4.86937 16.6673 6.56506 16.6673 8.33317Z" stroke="#1DE9B6" stroke-width="1.66667" stroke-linecap="round" stroke-linejoin="round"/>
<path d="M10 10.8335C11.3807 10.8335 12.5 9.71421 12.5 8.3335C12.5 6.95278 11.3807 5.8335 10 5.8335C8.61929 5.8335 7.5 6.95278 7.5 8.3335C7.5 9.71421 8.61929 10.8335 10 10.8335Z" stroke="#1DE9B6" stroke-width="1.66667" stroke-linecap="round" stroke-linejoin="round"/>
</svg>
