<svg width="180" height="181" viewBox="0 0 180 181" fill="none" xmlns="http://www.w3.org/2000/svg">
<path d="M79.7965 149.076C88.3794 149.076 95.3373 147.13 95.3373 144.73C95.3373 142.329 88.3794 140.383 79.7965 140.383C71.2135 140.383 64.2556 142.329 64.2556 144.73C64.2556 147.13 71.2135 149.076 79.7965 149.076Z" fill="black" stroke="black" stroke-width="0.288" stroke-miterlimit="10"/>
<path d="M96.0014 136.068C95.4182 136.782 93.9108 137.72 91.9537 138.057C89.9299 138.409 88.2363 137.917 87.5266 137.435L86.7676 135.675C87.9552 136.068 89.6874 136.402 91.7007 136.016C93.6192 135.647 95.0352 134.772 95.9242 134.069C95.9487 134.716 95.9733 135.338 96.0014 136.068Z" fill="white" stroke="black" stroke-width="0.288" stroke-miterlimit="10"/>
<path d="M94.5959 68.2379C96.5776 68.2063 98.5488 68.3504 100.513 68.6279C102.677 68.9336 104.852 69.429 106.795 70.4656C109.511 71.9132 111.669 74.3938 111.606 77.6194C111.514 82.4752 106.152 86.8848 102.962 89.0809C98.085 92.4399 92.6353 94.8573 87.3648 97.1974C81.75 99.6885 75.9455 102.264 70.9034 105.964C64.2556 110.844 54.3577 121.269 59.4209 129.385C60.352 130.879 62.2001 131.943 64.361 132.232C76.346 133.834 85.2988 125.014 93.1975 117.239C94.5362 115.921 95.8011 114.674 97.0871 113.469C104.35 106.645 110.095 106.094 112.227 106.174C115.147 106.283 117.705 107.517 119.824 109.832C124.139 114.547 124.539 122.457 124.395 126.754C124.177 133.265 121.777 138.777 117.638 142.281C113.798 145.531 108.159 147.519 103.057 147.519C102.372 147.519 101.697 147.484 101.036 147.41C95.8679 146.838 91.7287 143.039 90.7906 138.18C91.0049 138.173 91.2369 138.159 91.4794 138.131C91.7815 138.096 92.0591 138.047 92.3085 137.994C92.5545 139.062 93.2396 141.441 95.3689 143.342C96.9254 144.733 98.9458 145.661 101.202 145.91C106.388 146.486 112.6 144.564 116.662 141.132C120.47 137.91 122.68 132.787 122.884 126.708C123.021 122.643 122.659 115.173 118.707 110.854C116.869 108.848 114.669 107.78 112.168 107.685C112.041 107.682 111.915 107.678 111.788 107.678C106.075 107.678 100.348 112.474 98.1131 114.568C96.8411 115.763 95.5833 117.003 94.2516 118.314C86.107 126.336 76.8731 135.425 64.1573 133.728C61.515 133.377 59.3224 132.084 58.1383 130.187C55.5769 126.083 56.0372 121.055 59.4665 115.647C62.8502 110.313 67.966 106.248 70.0074 104.751C75.1795 100.953 81.0613 98.3463 86.7499 95.82C91.9571 93.5116 97.3401 91.1223 102.101 87.8405C104.476 86.2032 110.014 81.9306 110.091 77.5948C110.165 73.6243 106.187 71.3299 102.758 70.571C99.5782 69.8682 96.2754 69.6645 93.0148 69.9139C93.2994 69.6434 93.591 69.3517 93.8826 69.0355C94.1321 68.7685 94.3675 68.5049 94.5889 68.2449L94.5959 68.2379Z" fill="white" stroke="black" stroke-width="0.288" stroke-miterlimit="10"/>
<path d="M96.764 133.324C96.1351 133.95 94.424 135.492 91.7009 136.016C88.5281 136.624 86.0545 135.45 85.3131 135.064L68.9712 74.1726C71.6732 75.3567 74.6562 76.0102 77.7939 76.0102C83.2295 76.0102 88.2083 74.0426 92.0523 70.7749L96.7606 133.324H96.764Z" fill="white" stroke="black" stroke-width="0.288" stroke-miterlimit="10"/>
<mask id="mask0_542_1377" style="mask-type:luminance" maskUnits="userSpaceOnUse" x="75" y="104" width="32" height="26">
<path d="M97.2313 109.027C94.3291 109.027 91.3354 108.673 88.5456 109.649C84.779 110.971 80.6188 113.922 78.0082 116.916C74.8213 120.573 74.1994 127.425 79.7298 129.277C83.2259 130.447 86.5218 129.902 89.7965 128.433C94.0129 126.543 99.0971 124.14 102.663 121.132C106.23 118.124 108.229 111.909 105.548 107.548C103.25 103.813 99.8279 102.576 97.2278 109.024C94.3255 109.024 99.8279 102.576 97.2278 109.024L97.2313 109.027Z" fill="white"/>
</mask>
<g mask="url(#mask0_542_1377)">
<path d="M96.7638 133.324C96.1349 133.95 94.4238 135.492 91.7007 136.016C88.5279 136.624 86.0543 135.45 85.3129 135.064L68.9709 74.1727C71.6729 75.3568 74.656 76.0103 77.7937 76.0103C83.2293 76.0103 88.2081 74.0427 92.052 70.775L96.7604 133.324H96.7638Z" fill="white" stroke="black" stroke-width="0.288" stroke-miterlimit="10"/>
<path d="M94.5959 68.2379C96.5776 68.2063 98.5488 68.3504 100.513 68.6279C102.677 68.9336 104.852 69.429 106.795 70.4656C109.511 71.9132 111.669 74.3938 111.606 77.6194C111.514 82.4752 106.152 86.8848 102.962 89.0809C98.085 92.4399 92.6353 94.8573 87.3648 97.1974C81.75 99.6885 75.9455 102.264 70.9034 105.964C64.2556 110.844 54.3577 121.269 59.4209 129.385C60.352 130.879 62.2001 131.943 64.361 132.232C76.346 133.834 85.2988 125.014 93.1975 117.239C94.5362 115.921 95.8011 114.674 97.0871 113.469C104.35 106.645 110.095 106.094 112.227 106.174C115.147 106.283 117.705 107.517 119.824 109.832C124.139 114.547 124.539 122.457 124.395 126.754C124.177 133.265 121.777 138.777 117.638 142.281C113.798 145.531 108.159 147.519 103.057 147.519C102.372 147.519 101.697 147.484 101.036 147.41C95.8679 146.838 91.7287 143.039 90.7906 138.18C91.0049 138.173 91.2369 138.159 91.4794 138.131C91.7815 138.096 92.0591 138.047 92.3085 137.994C92.5545 139.062 93.2396 141.441 95.3689 143.342C96.9254 144.733 98.9458 145.661 101.202 145.91C106.388 146.486 112.6 144.564 116.662 141.132C120.47 137.91 122.68 132.787 122.884 126.708C123.021 122.643 122.659 115.173 118.707 110.854C116.869 108.848 114.669 107.78 112.168 107.685C112.041 107.682 111.915 107.678 111.788 107.678C106.075 107.678 100.348 112.474 98.1131 114.568C96.8411 115.763 95.5833 117.003 94.2516 118.314C86.107 126.336 76.8731 135.425 64.1573 133.728C61.515 133.377 59.3224 132.084 58.1383 130.187C55.5769 126.083 56.0372 121.055 59.4665 115.647C62.8502 110.313 67.966 106.248 70.0074 104.751C75.1795 100.953 81.0613 98.3463 86.7499 95.82C91.9571 93.5116 97.3401 91.1223 102.101 87.8405C104.476 86.2032 110.014 81.9306 110.091 77.5948C110.165 73.6243 106.187 71.3299 102.758 70.571C99.5782 69.8682 96.2754 69.6645 93.0148 69.9139C93.2994 69.6434 93.591 69.3517 93.8826 69.0355C94.1321 68.7685 94.3675 68.5049 94.5889 68.2449L94.5959 68.2379Z" fill="white" stroke="black" stroke-width="0.288" stroke-miterlimit="10"/>
</g>
<path d="M86.3335 83.7133C86.0826 81.9829 84.4765 80.7836 82.7462 81.0345C81.0159 81.2854 79.8165 82.8915 80.0674 84.6218L81.3702 93.6071C81.6211 95.3374 83.2272 96.5367 84.9575 96.2858C86.6879 96.035 87.8872 94.4289 87.6363 92.6986L86.3335 83.7133Z" fill="white" stroke="black" stroke-width="0.288" stroke-miterlimit="10"/>
<path d="M77.7902 76.0066C89.9709 76.0066 99.8453 66.1322 99.8453 53.9515C99.8453 41.7708 89.9709 31.8963 77.7902 31.8963C65.6095 31.8963 55.7351 41.7708 55.7351 53.9515C55.7351 66.1322 65.6095 76.0066 77.7902 76.0066Z" fill="#2480F0" stroke="black" stroke-width="0.288" stroke-miterlimit="10"/>
<path d="M73.5737 75.6062C73.5737 75.6062 73.5562 75.6027 73.5421 75.5991C73.5176 75.5956 73.4789 75.5886 73.4297 75.578C73.4086 75.5745 73.3805 75.5675 73.3489 75.5605C73.2575 75.5429 73.1451 75.5183 73.0046 75.4867C73.0046 75.4867 72.994 75.4832 72.987 75.4832C72.9378 75.4726 72.8886 75.4586 72.8359 75.448C72.6778 75.4094 72.4951 75.3637 72.2913 75.3075C72.2913 75.3075 72.2913 75.304 72.2842 75.304C72.1472 75.2653 71.9996 75.2232 71.845 75.1775C69.4101 74.4994 67.1403 73.4207 65.1235 72.0047C64.6597 71.6779 64.2064 71.3336 63.7672 70.9717C63.7566 70.9646 63.7496 70.9576 63.739 70.9506C60.4924 68.2626 58.0294 64.6647 56.7399 60.5467C56.6872 60.3815 56.6415 60.2129 56.5923 60.0442C56.5923 60.0442 56.5923 60.0407 56.5888 60.0372C56.5853 60.0231 56.5783 60.0056 56.5748 59.9915C56.5712 59.9634 56.5607 59.9283 56.5466 59.8791C56.4834 59.6577 56.4272 59.4329 56.3709 59.2045C56.3639 59.1834 56.3605 59.1623 56.3534 59.1377C56.2972 58.9128 56.248 58.6844 56.2023 58.4525C56.1953 58.435 56.1917 58.4174 56.1882 58.3963C56.1425 58.1855 56.1039 57.9712 56.0653 57.7569C56.0583 57.7217 56.0547 57.6831 56.0477 57.6444C56.0091 57.4231 55.9774 57.2017 55.9458 56.9803C55.9107 56.7309 55.8825 56.4814 55.8544 56.2319C55.8544 56.2249 55.8544 56.2179 55.8509 56.2073C55.8263 55.9649 55.8088 55.7225 55.7912 55.48C55.7736 55.2341 55.7596 54.9881 55.7525 54.7386V54.7C55.742 54.454 55.7385 54.201 55.7385 53.9516C55.7385 53.2805 55.7702 52.6164 55.8264 51.9593C55.8369 51.8328 55.8509 51.7064 55.865 51.5834C55.8861 51.3655 55.9142 51.1477 55.9458 50.9298C56.009 50.445 56.0934 49.9671 56.1917 49.4928C56.2269 49.3171 56.262 49.1449 56.3042 48.9727C56.3042 48.9517 56.3112 48.9306 56.3183 48.9095C56.3956 48.5757 56.4834 48.2419 56.5748 47.9151C56.6239 47.7395 56.6766 47.5673 56.7293 47.3951C56.7856 47.223 56.8418 47.0508 56.898 46.8786C56.9542 46.7064 57.0175 46.5308 57.0807 46.3586C57.2037 46.0248 57.3337 45.6945 57.4743 45.3677C57.6113 45.0375 57.7554 44.7107 57.9135 44.391C57.9873 44.2399 58.061 44.0923 58.1348 43.9447C58.1383 43.9342 58.1453 43.9236 58.1524 43.9131C58.2332 43.755 58.3175 43.5969 58.4018 43.4388C58.4264 43.3861 58.4545 43.3333 58.4862 43.2842C58.6267 43.0241 58.7778 42.7677 58.9324 42.5182C59.0097 42.3882 59.0905 42.2617 59.1713 42.1352C59.3751 41.8084 59.593 41.4887 59.8178 41.1725C59.9057 41.053 59.9935 40.9335 60.0778 40.8141C60.0989 40.786 60.1165 40.7614 60.1411 40.7332C60.2394 40.5997 60.3414 40.4662 60.4433 40.3362C60.6576 40.0586 60.8825 39.7881 61.1144 39.5246C61.1144 39.5246 61.1144 39.5246 61.1179 39.5175C61.2092 39.4156 61.2971 39.3137 61.3884 39.2153C61.4552 39.138 61.529 39.0572 61.6098 38.9764C61.6801 38.8956 61.7538 38.8148 61.8311 38.7375C61.9506 38.6075 62.0736 38.481 62.2001 38.358C62.3231 38.2315 62.4496 38.1086 62.5796 37.9891C62.7026 37.8696 62.8255 37.7537 62.952 37.6412C63.0855 37.5148 63.2226 37.3953 63.3631 37.2758C63.4756 37.1775 63.5915 37.0791 63.711 36.9842C63.7391 36.9561 63.7672 36.9315 63.7953 36.9139C63.8796 36.8401 63.9675 36.7699 64.0553 36.7031C64.2099 36.5731 64.368 36.4501 64.5296 36.3307C64.7756 36.1444 65.0286 35.9617 65.2886 35.786C65.4186 35.6947 65.5486 35.6033 65.6821 35.519C65.7172 35.4944 65.7559 35.4698 65.7945 35.4452C65.9808 35.3222 66.1705 35.2028 66.3603 35.0903C66.3954 35.0657 66.434 35.0447 66.4727 35.0236C66.6343 34.9252 66.7995 34.8268 66.9646 34.739C67.2035 34.5984 67.4459 34.4684 67.6919 34.3419C67.7059 34.3349 67.7165 34.3279 67.7306 34.3208L67.7552 34.3103L68.1381 34.117C67.966 34.3876 51.9683 58.5193 73.5772 75.6062H73.5737Z" fill="black" stroke="black" stroke-width="0.288" stroke-linecap="round" stroke-linejoin="round"/>
<path d="M56.1356 58.3224C61.7188 62.3315 70.1445 64.1797 78.6018 63.4313C87.0557 62.6864 94.473 59.5135 99.8488 54.4609C100.232 54.6682 100.443 55.0301 100.446 55.4553C100.446 55.6134 100.422 55.768 100.379 55.9226C100.313 56.1721 100.221 56.4145 100.077 56.6324C99.9192 56.8713 99.6978 57.0399 99.4765 57.2191C99.4624 57.2297 99.4448 57.2437 99.4307 57.2578C99.2269 57.4229 99.0232 57.5845 98.8158 57.7462C98.4012 58.0694 97.9761 58.3822 97.5475 58.6843C97.1188 58.9865 96.6761 59.2851 96.2299 59.5733C95.7836 59.8614 95.3233 60.139 94.863 60.4095C94.3957 60.6801 93.9248 60.9401 93.447 61.1896C92.9656 61.4425 92.4773 61.685 91.9853 61.9134C91.4899 62.1453 90.9875 62.3666 90.4815 62.5809C89.972 62.7953 89.4555 62.9956 88.9355 63.1853C88.4155 63.375 87.8814 63.5577 87.3509 63.7299C86.8133 63.9021 86.2721 64.0602 85.7275 64.2078C85.1794 64.3553 84.6243 64.4959 84.0691 64.6189C83.5139 64.7419 82.9447 64.8613 82.3755 64.9632C81.8063 65.0651 81.2266 65.1564 80.6503 65.2373C80.0741 65.3181 79.4838 65.3848 78.897 65.4375C78.8443 65.4411 78.7916 65.4481 78.7389 65.4516C77.5865 65.5535 76.4269 65.6132 75.2709 65.6238C74.1466 65.6343 73.0187 65.6027 71.8979 65.5219C70.777 65.441 69.7194 65.3181 68.6372 65.1459C67.5796 64.9773 66.5325 64.7629 65.4959 64.5029C64.477 64.2464 63.4686 63.9442 62.4743 63.5929C61.4904 63.2485 60.5242 62.8585 59.5755 62.4228C59.0133 62.1664 58.4582 61.8888 57.91 61.6006C57.636 61.4566 57.3654 61.309 57.0949 61.1579C56.7646 60.9752 56.4518 60.8241 56.1848 60.5466C55.8615 60.2128 55.6226 59.7806 55.5734 59.3168C55.5418 59.0357 55.6121 58.7546 55.8124 58.5438C55.9002 58.4489 56.0127 58.3681 56.1356 58.3224Z" fill="white" stroke="black" stroke-width="0.288" stroke-miterlimit="10"/>
<path d="M83.2538 86.414C84.519 86.414 85.5447 85.3884 85.5447 84.1231C85.5447 82.8579 84.519 81.8323 83.2538 81.8323C81.9886 81.8323 80.9629 82.8579 80.9629 84.1231C80.9629 85.3884 81.9886 86.414 83.2538 86.414Z" fill="#FF676A" stroke="black" stroke-width="0.288" stroke-miterlimit="10"/>
<path d="M95.629 118.205C95.1933 118.63 94.7541 119.062 94.3044 119.505C90.998 122.762 87.5125 126.195 83.6862 129.01L83.4121 127.98C85.9489 126.157 88.0993 124.22 90.5448 121.919C92.3262 120.243 93.9952 118.567 95.5412 117.049L95.629 118.205Z" fill="black"/>
<path d="M74.0798 102.06L74.2731 103.708C74.6877 103.455 75.1128 103.202 75.552 102.949C75.8858 102.756 76.2196 102.569 76.5464 102.387C76.4129 101.888 76.2793 101.385 76.1423 100.886C75.8647 101.037 75.5837 101.196 75.2991 101.357C74.8844 101.593 74.4769 101.828 74.0798 102.063V102.06Z" fill="black"/>
<path d="M87.337 73.8423C79.1361 79.3798 69.6633 76.748 69.6633 76.748L68.9712 74.1725C71.6732 75.3566 74.6562 76.0102 77.7939 76.0102C81.2127 76.0102 84.4488 75.2302 87.337 73.8423Z" fill="black"/>
<path d="M85.3551 85.0368C85.2321 86.2244 84.2342 87.1485 83.015 87.1485C81.715 87.1485 80.6609 86.0979 80.6609 84.7978C80.6609 84.3165 80.8049 83.8702 81.0509 83.4978C80.9946 83.6946 80.963 83.9054 80.963 84.1232C80.963 85.3881 81.989 86.4141 83.2539 86.4141C84.1956 86.4141 85.0037 85.8484 85.3551 85.0368Z" fill="black"/>
<path d="M94.9016 134.779C94.9016 134.779 94.9016 134.782 94.8946 134.786C94.7681 134.919 92.6634 137.084 89.3219 138.071C88.5208 137.934 87.8919 137.685 87.5265 137.435L86.771 135.678C86.771 135.678 86.7781 135.682 86.7851 135.682C86.887 135.721 87.3929 135.903 88.173 136.033C88.2994 136.058 88.4365 136.079 88.5771 136.096C88.6965 136.114 88.823 136.128 88.953 136.139C89.0373 136.149 89.1251 136.156 89.213 136.16C89.227 136.163 89.2411 136.163 89.2552 136.163C89.3571 136.17 89.4625 136.177 89.5679 136.177C89.6135 136.181 89.6628 136.184 89.7085 136.184H89.8455C89.9544 136.184 90.0633 136.184 90.1792 136.181C90.2495 136.177 90.3198 136.177 90.3936 136.174C90.5096 136.167 90.629 136.16 90.7485 136.149C90.7555 136.149 90.7661 136.146 90.7766 136.146C90.9242 136.132 91.0787 136.118 91.2333 136.093C91.3879 136.072 91.5426 136.047 91.7007 136.016C92.4702 135.875 93.2889 135.622 94.1181 135.208C94.213 135.165 94.3113 135.116 94.4062 135.063C94.4694 135.032 94.5327 134.997 94.5959 134.958C94.6451 134.93 94.6978 134.902 94.747 134.87C94.7997 134.842 94.8489 134.811 94.9016 134.779Z" fill="black" stroke="black" stroke-width="0.288" stroke-miterlimit="10"/>
</svg>
