<svg width="183" height="41" viewBox="0 0 183 41" fill="none" xmlns="http://www.w3.org/2000/svg">
<rect x="104" width="79" height="41" fill="#1CE9B6"/>
<path d="M31.2355 9.94L25.7455 31H19.5355L16.1755 17.14L12.6955 31H6.48551L1.14551 9.94H6.63551L9.66551 25.27L13.4155 9.94H19.0555L22.6555 25.27L25.7155 9.94H31.2355ZM36.3882 12.52C35.4882 12.52 34.7482 12.26 34.1682 11.74C33.6082 11.2 33.3282 10.54 33.3282 9.76C33.3282 8.96 33.6082 8.3 34.1682 7.78C34.7482 7.24 35.4882 6.97 36.3882 6.97C37.2682 6.97 37.9882 7.24 38.5482 7.78C39.1282 8.3 39.4182 8.96 39.4182 9.76C39.4182 10.54 39.1282 11.2 38.5482 11.74C37.9882 12.26 37.2682 12.52 36.3882 12.52ZM38.9382 14.26V31H33.8082V14.26H38.9382ZM52.8559 14.08C54.8159 14.08 56.3759 14.72 57.5359 16C58.7159 17.26 59.3059 19 59.3059 21.22V31H54.2059V21.91C54.2059 20.79 53.9159 19.92 53.3359 19.3C52.7559 18.68 51.9759 18.37 50.9959 18.37C50.0159 18.37 49.2359 18.68 48.6559 19.3C48.0759 19.92 47.7859 20.79 47.7859 21.91V31H42.6559V14.26H47.7859V16.48C48.3059 15.74 49.0059 15.16 49.8859 14.74C50.7659 14.3 51.7559 14.08 52.8559 14.08ZM45.6259 12.85C46.1059 9.89 47.4859 8.41 49.7659 8.41C50.2059 8.41 50.5859 8.48 50.9059 8.62C51.2459 8.74 51.6559 8.93 52.1359 9.19C52.4959 9.39 52.7859 9.54 53.0059 9.64C53.2259 9.72 53.4559 9.76 53.6959 9.76C54.4359 9.76 54.8659 9.31 54.9859 8.41H57.6259C57.1459 11.37 55.7659 12.85 53.4859 12.85C53.0459 12.85 52.6559 12.79 52.3159 12.67C51.9959 12.53 51.5959 12.33 51.1159 12.07C50.7559 11.87 50.4659 11.73 50.2459 11.65C50.0259 11.55 49.7959 11.5 49.5559 11.5C48.8159 11.5 48.3759 11.95 48.2359 12.85H45.6259ZM61.8507 22.6C61.8507 20.88 62.1707 19.37 62.8107 18.07C63.4707 16.77 64.3607 15.77 65.4807 15.07C66.6007 14.37 67.8507 14.02 69.2307 14.02C70.4107 14.02 71.4407 14.26 72.3207 14.74C73.2207 15.22 73.9107 15.85 74.3907 16.63V14.26H79.5207V31H74.3907V28.63C73.8907 29.41 73.1907 30.04 72.2907 30.52C71.4107 31 70.3807 31.24 69.2007 31.24C67.8407 31.24 66.6007 30.89 65.4807 30.19C64.3607 29.47 63.4707 28.46 62.8107 27.16C62.1707 25.84 61.8507 24.32 61.8507 22.6ZM74.3907 22.63C74.3907 21.35 74.0307 20.34 73.3107 19.6C72.6107 18.86 71.7507 18.49 70.7307 18.49C69.7107 18.49 68.8407 18.86 68.1207 19.6C67.4207 20.32 67.0707 21.32 67.0707 22.6C67.0707 23.88 67.4207 24.9 68.1207 25.66C68.8407 26.4 69.7107 26.77 70.7307 26.77C71.7507 26.77 72.6107 26.4 73.3107 25.66C74.0307 24.92 74.3907 23.91 74.3907 22.63ZM100.332 14.26L89.8321 38.95H84.3121L88.1521 30.43L81.3421 14.26H87.0721L90.9421 24.73L94.7821 14.26H100.332Z" fill="#FF00B8"/>
<path d="M122.405 10.15V12.94H116.855V31H113.435V12.94H107.855V10.15H122.405ZM141.018 22.33C141.018 22.95 140.978 23.51 140.898 24.01H128.268C128.368 25.33 128.858 26.39 129.738 27.19C130.618 27.99 131.698 28.39 132.978 28.39C134.818 28.39 136.118 27.62 136.878 26.08H140.568C140.068 27.6 139.158 28.85 137.838 29.83C136.538 30.79 134.918 31.27 132.978 31.27C131.398 31.27 129.978 30.92 128.718 30.22C127.478 29.5 126.498 28.5 125.778 27.22C125.078 25.92 124.728 24.42 124.728 22.72C124.728 21.02 125.068 19.53 125.748 18.25C126.448 16.95 127.418 15.95 128.658 15.25C129.918 14.55 131.358 14.2 132.978 14.2C134.538 14.2 135.928 14.54 137.148 15.22C138.368 15.9 139.318 16.86 139.998 18.1C140.678 19.32 141.018 20.73 141.018 22.33ZM137.448 21.25C137.428 19.99 136.978 18.98 136.098 18.22C135.218 17.46 134.128 17.08 132.828 17.08C131.648 17.08 130.638 17.46 129.798 18.22C128.958 18.96 128.458 19.97 128.298 21.25H137.448ZM143.244 22.72C143.244 21.02 143.584 19.53 144.264 18.25C144.964 16.95 145.924 15.95 147.144 15.25C148.364 14.55 149.764 14.2 151.344 14.2C153.344 14.2 154.994 14.68 156.294 15.64C157.614 16.58 158.504 17.93 158.964 19.69H155.274C154.974 18.87 154.494 18.23 153.834 17.77C153.174 17.31 152.344 17.08 151.344 17.08C149.944 17.08 148.824 17.58 147.984 18.58C147.164 19.56 146.754 20.94 146.754 22.72C146.754 24.5 147.164 25.89 147.984 26.89C148.824 27.89 149.944 28.39 151.344 28.39C153.324 28.39 154.634 27.52 155.274 25.78H158.964C158.484 27.46 157.584 28.8 156.264 29.8C154.944 30.78 153.304 31.27 151.344 31.27C149.764 31.27 148.364 30.92 147.144 30.22C145.924 29.5 144.964 28.5 144.264 27.22C143.584 25.92 143.244 24.42 143.244 22.72ZM170.922 14.2C172.182 14.2 173.302 14.47 174.282 15.01C175.282 15.55 176.062 16.35 176.622 17.41C177.202 18.47 177.492 19.75 177.492 21.25V31H174.102V21.76C174.102 20.28 173.732 19.15 172.992 18.37C172.252 17.57 171.242 17.17 169.962 17.17C168.682 17.17 167.662 17.57 166.902 18.37C166.162 19.15 165.792 20.28 165.792 21.76V31H162.372V8.8H165.792V16.39C166.372 15.69 167.102 15.15 167.982 14.77C168.882 14.39 169.862 14.2 170.922 14.2Z" fill="black"/>
</svg>
