<svg width="20" height="20" viewBox="0 0 20 20" fill="none" xmlns="http://www.w3.org/2000/svg">
<path d="M8.33398 10H11.6673" stroke="#1DE9B6" stroke-width="1.66667" stroke-linecap="round" stroke-linejoin="round"/>
<path d="M8.33398 6.66667H11.6673" stroke="#1DE9B6" stroke-width="1.66667" stroke-linecap="round" stroke-linejoin="round"/>
<path d="M11.6673 17.5V15C11.6673 14.558 11.4917 14.134 11.1792 13.8215C10.8666 13.5089 10.4427 13.3333 10.0007 13.3333C9.55862 13.3333 9.1347 13.5089 8.82214 13.8215C8.50958 14.134 8.33398 14.558 8.33398 15V17.5" stroke="#1DE9B6" stroke-width="1.66667" stroke-linecap="round" stroke-linejoin="round"/>
<path d="M4.99935 8.33333H3.33268C2.89065 8.33333 2.46673 8.50893 2.15417 8.82149C1.84161 9.13405 1.66602 9.55797 1.66602 10V15.8333C1.66602 16.2754 1.84161 16.6993 2.15417 17.0118C2.46673 17.3244 2.89065 17.5 3.33268 17.5H16.666C17.108 17.5 17.532 17.3244 17.8445 17.0118C18.1571 16.6993 18.3327 16.2754 18.3327 15.8333V7.5C18.3327 7.05797 18.1571 6.63405 17.8445 6.32149C17.532 6.00893 17.108 5.83333 16.666 5.83333H14.9993" stroke="#1DE9B6" stroke-width="1.66667" stroke-linecap="round" stroke-linejoin="round"/>
<path d="M5 17.5V4.16667C5 3.72464 5.17559 3.30072 5.48816 2.98816C5.80072 2.67559 6.22464 2.5 6.66667 2.5H13.3333C13.7754 2.5 14.1993 2.67559 14.5118 2.98816C14.8244 3.30072 15 3.72464 15 4.16667V17.5" stroke="#1DE9B6" stroke-width="1.66667" stroke-linecap="round" stroke-linejoin="round"/>
</svg>
