<svg width="54" height="54" viewBox="0 0 54 54" fill="none" xmlns="http://www.w3.org/2000/svg">
<g filter="url(#filter0_dd_195_16019)">
<mask id="path-1-inside-1_195_16019" fill="white">
<path d="M3 16C3 8.26801 9.26801 2 17 2H37C44.732 2 51 8.26801 51 16V36C51 43.732 44.732 50 37 50H17C9.26801 50 3 43.732 3 36V16Z"/>
</mask>
<path d="M3 16C3 8.26801 9.26801 2 17 2H37C44.732 2 51 8.26801 51 16V36C51 43.732 44.732 50 37 50H17C9.26801 50 3 43.732 3 36V16Z" fill="white" shape-rendering="crispEdges"/>
<path d="M17 2V3H37V2V1H17V2ZM51 16H50V36H51H52V16H51ZM37 50V49H17V50V51H37V50ZM3 36H4V16H3H2V36H3ZM17 50V49C9.8203 49 4 43.1797 4 36H3H2C2 44.2843 8.71573 51 17 51V50ZM51 36H50C50 43.1797 44.1797 49 37 49V50V51C45.2843 51 52 44.2843 52 36H51ZM37 2V3C44.1797 3 50 8.8203 50 16H51H52C52 7.71573 45.2843 1 37 1V2ZM17 2V1C8.71573 1 2 7.71573 2 16H3H4C4 8.8203 9.8203 3 17 3V2Z" fill="#F3F4F6" mask="url(#path-1-inside-1_195_16019)"/>
<path d="M30 28C30.2 27 30.7 26.3 31.5 25.5C32.5 24.6 33 23.3 33 22C33 20.4087 32.3679 18.8826 31.2426 17.7574C30.1174 16.6321 28.5913 16 27 16C25.4087 16 23.8826 16.6321 22.7574 17.7574C21.6321 18.8826 21 20.4087 21 22C21 23 21.2 24.2 22.5 25.5C23.2 26.2 23.8 27 24 28" stroke="#1DE9B6" stroke-width="2" stroke-linecap="round" stroke-linejoin="round"/>
<path d="M24 32H30" stroke="#1DE9B6" stroke-width="2" stroke-linecap="round" stroke-linejoin="round"/>
<path d="M25 36H29" stroke="#1DE9B6" stroke-width="2" stroke-linecap="round" stroke-linejoin="round"/>
</g>
<defs>
<filter id="filter0_dd_195_16019" x="0" y="0" width="54" height="54" filterUnits="userSpaceOnUse" color-interpolation-filters="sRGB">
<feFlood flood-opacity="0" result="BackgroundImageFix"/>
<feColorMatrix in="SourceAlpha" type="matrix" values="0 0 0 0 0 0 0 0 0 0 0 0 0 0 0 0 0 0 127 0" result="hardAlpha"/>
<feMorphology radius="1" operator="erode" in="SourceAlpha" result="effect1_dropShadow_195_16019"/>
<feOffset dy="1"/>
<feGaussianBlur stdDeviation="1"/>
<feComposite in2="hardAlpha" operator="out"/>
<feColorMatrix type="matrix" values="0 0 0 0 0 0 0 0 0 0 0 0 0 0 0 0 0 0 0.1 0"/>
<feBlend mode="normal" in2="BackgroundImageFix" result="effect1_dropShadow_195_16019"/>
<feColorMatrix in="SourceAlpha" type="matrix" values="0 0 0 0 0 0 0 0 0 0 0 0 0 0 0 0 0 0 127 0" result="hardAlpha"/>
<feOffset dy="1"/>
<feGaussianBlur stdDeviation="1.5"/>
<feComposite in2="hardAlpha" operator="out"/>
<feColorMatrix type="matrix" values="0 0 0 0 0 0 0 0 0 0 0 0 0 0 0 0 0 0 0.1 0"/>
<feBlend mode="normal" in2="effect1_dropShadow_195_16019" result="effect2_dropShadow_195_16019"/>
<feBlend mode="normal" in="SourceGraphic" in2="effect2_dropShadow_195_16019" result="shape"/>
</filter>
</defs>
</svg>
