<svg width="20" height="20" viewBox="0 0 20 20" fill="none" xmlns="http://www.w3.org/2000/svg">
<g clip-path="url(#clip0_195_15074)">
<path d="M16.6673 8.33333C16.6673 12.4942 12.0515 16.8275 10.5015 18.1658C10.3571 18.2744 10.1813 18.3331 10.0007 18.3331C9.81999 18.3331 9.64421 18.2744 9.49982 18.1658C7.94982 16.8275 3.33398 12.4942 3.33398 8.33333C3.33398 6.56522 4.03636 4.86953 5.28661 3.61929C6.53685 2.36905 8.23254 1.66667 10.0007 1.66667C11.7688 1.66667 13.4645 2.36905 14.7147 3.61929C15.9649 4.86953 16.6673 6.56522 16.6673 8.33333Z" stroke="#1DE9B6" stroke-width="1.66667" stroke-linecap="round" stroke-linejoin="round"/>
<path d="M10 10.8333C11.3807 10.8333 12.5 9.71404 12.5 8.33333C12.5 6.95262 11.3807 5.83333 10 5.83333C8.61929 5.83333 7.5 6.95262 7.5 8.33333C7.5 9.71404 8.61929 10.8333 10 10.8333Z" stroke="#1DE9B6" stroke-width="1.66667" stroke-linecap="round" stroke-linejoin="round"/>
</g>
<defs>
<clipPath id="clip0_195_15074">
<rect width="20" height="20" fill="white"/>
</clipPath>
</defs>
</svg>
