<svg width="24" height="24" viewBox="0 0 24 24" fill="none" xmlns="http://www.w3.org/2000/svg">
<path d="M15.4768 12.89L16.9918 21.416C17.0087 21.5164 16.9946 21.6196 16.9514 21.7118C16.9081 21.8039 16.8377 21.8807 16.7497 21.9318C16.6616 21.9829 16.56 22.0059 16.4586 21.9977C16.3571 21.9895 16.2605 21.9506 16.1818 21.886L12.6018 19.199C12.4289 19.0699 12.219 19.0001 12.0033 19.0001C11.7875 19.0001 11.5776 19.0699 11.4048 19.199L7.81875 21.885C7.74007 21.9494 7.64361 21.9884 7.54225 21.9966C7.44088 22.0048 7.33942 21.9818 7.25141 21.9309C7.16341 21.8799 7.09303 21.8033 7.04967 21.7113C7.00631 21.6194 6.99204 21.5163 7.00875 21.416L8.52275 12.89" stroke="#FF37C7" stroke-width="2" stroke-linecap="round" stroke-linejoin="round"/>
<path d="M12 14C15.3137 14 18 11.3137 18 8C18 4.68629 15.3137 2 12 2C8.68629 2 6 4.68629 6 8C6 11.3137 8.68629 14 12 14Z" stroke="#FF37C7" stroke-width="2" stroke-linecap="round" stroke-linejoin="round"/>
</svg>
