<?xml version="1.0" encoding="UTF-8"?><svg id="Layer_1" xmlns="http://www.w3.org/2000/svg" viewBox="0 0 533.72 533.72"><defs><style>.cls-1{fill:#2480f0;}.cls-1,.cls-2{stroke:#1d1e21;stroke-miterlimit:10;stroke-width:2px;}.cls-2{fill:#1d1e21;}.cls-3{fill:#fff;stroke-width:0px;}</style></defs><circle class="cls-2" cx="277.4" cy="266.86" r="245.3"/><circle class="cls-1" cx="256.32" cy="266.86" r="245.3"/><path class="cls-3" d="m126.96,182.2h10.87v57.64h-10.87v-57.64Z"/><path class="cls-3" d="m149.5,198.78h9.9v5.15h.64c1.29-1.98,3.02-3.55,5.19-4.71,2.17-1.15,4.6-1.73,7.29-1.73,2.9,0,5.42.68,7.57,2.05,2.15,1.37,3.67,3.1,4.59,5.19,1.34-2.15,3.18-3.89,5.51-5.23,2.33-1.34,5.08-2.01,8.25-2.01,4.67,0,8.22,1.44,10.67,4.31,2.44,2.87,3.66,6.75,3.66,11.63v26.4h-10.46v-24.47c0-2.58-.6-4.56-1.81-5.96-1.21-1.39-2.89-2.09-5.03-2.09-2.74,0-4.92,1.09-6.56,3.26-1.64,2.17-2.46,5.03-2.46,8.57v20.69h-10.54v-24.47c0-2.58-.63-4.56-1.89-5.96-1.26-1.39-3.05-2.09-5.35-2.09-2.58,0-4.66,1.09-6.24,3.26-1.58,2.17-2.38,5.03-2.38,8.57v20.69h-10.54v-41.05Z"/><path class="cls-3" d="m222.51,198.78h9.9v4.99h.64c1.13-1.77,2.76-3.26,4.91-4.47,2.15-1.21,4.62-1.81,7.41-1.81,3.7,0,7.07.93,10.1,2.78,3.03,1.85,5.41,4.44,7.12,7.77,1.72,3.33,2.58,7.08,2.58,11.27s-.86,8.01-2.58,11.31c-1.72,3.3-4.09,5.88-7.12,7.73-3.03,1.85-6.4,2.78-10.1,2.78-2.79,0-5.27-.59-7.45-1.77-2.17-1.18-3.8-2.66-4.87-4.43h-.64l.64,5.8v16.5h-10.54v-58.44Zm26.56,31.07c1.72-1.02,3.08-2.44,4.11-4.27,1.02-1.82,1.53-3.92,1.53-6.28s-.51-4.45-1.53-6.28c-1.02-1.82-2.39-3.23-4.11-4.23-1.72-.99-3.57-1.49-5.55-1.49s-3.76.5-5.47,1.49c-1.72.99-3.09,2.4-4.11,4.23-1.02,1.83-1.53,3.92-1.53,6.28s.51,4.46,1.53,6.28c1.02,1.83,2.39,3.25,4.11,4.27,1.72,1.02,3.54,1.53,5.47,1.53s3.84-.51,5.55-1.53Z"/><path class="cls-3" d="m275.16,237.3c-2.79-2.55-4.19-5.89-4.19-10.02,0-2.74.72-5.15,2.17-7.25,1.45-2.09,3.43-3.7,5.96-4.83,2.52-1.13,5.31-1.69,8.37-1.69,4.24,0,7.86.62,10.87,1.85v-1.77c0-2.25-.84-4.08-2.54-5.47-1.69-1.39-3.96-2.09-6.8-2.09-1.93,0-3.8.44-5.59,1.33-1.8.89-3.29,2.05-4.47,3.5l-6.76-5.31c1.98-2.58,4.48-4.56,7.49-5.96,3-1.39,6.28-2.09,9.82-2.09,6.28,0,11.05,1.45,14.33,4.35,3.27,2.9,4.91,7.14,4.91,12.72v25.28h-10.38v-4.19h-.64c-1.24,1.61-2.86,2.92-4.87,3.94-2.01,1.02-4.33,1.53-6.96,1.53-4.35,0-7.92-1.28-10.71-3.82Zm20.49-7.33c1.8-1.96,2.7-4.25,2.7-6.88-2.74-1.29-5.61-1.93-8.61-1.93-5.47,0-8.21,2.04-8.21,6.12,0,1.66.59,3.02,1.77,4.07,1.18,1.05,2.87,1.57,5.07,1.57,3.06,0,5.49-.98,7.29-2.94Z"/><path class="cls-3" d="m326.27,238.35c-3.27-1.85-5.84-4.44-7.69-7.77s-2.78-7.08-2.78-11.27.93-7.93,2.78-11.23c1.85-3.3,4.41-5.89,7.69-7.77,3.27-1.88,6.98-2.82,11.11-2.82,4.56,0,8.48.98,11.75,2.94,3.27,1.96,5.63,4.74,7.08,8.33l-9.66,4.02c-1.72-3.65-4.78-5.47-9.18-5.47-3.22,0-5.86,1.1-7.93,3.3-2.07,2.2-3.1,5.1-3.1,8.69s1.03,6.58,3.1,8.77c2.07,2.2,4.71,3.3,7.93,3.3,4.45,0,7.67-1.93,9.66-5.8l9.58,4.19c-1.77,3.6-4.29,6.39-7.57,8.37-3.27,1.98-7.16,2.98-11.67,2.98-4.13,0-7.84-.93-11.11-2.78Z"/><path class="cls-3" d="m376.02,240.18c-1.72-.63-3.11-1.49-4.19-2.59-2.52-2.46-3.78-5.96-3.78-10.51v-19.29h-7.16v-9.02h7.16v-11.59h10.55v11.59h10.06v9.02h-10.06v17.47c0,2.15.46,3.7,1.37,4.63.75.88,2.04,1.32,3.86,1.32,1.02,0,1.86-.13,2.54-.4.67-.27,1.54-.72,2.62-1.37v10.3c-2.31.91-4.75,1.37-7.33,1.37-2.04,0-3.92-.32-5.63-.94Z"/><path class="cls-3" d="m72.31,322.2c-1.72-.63-3.11-1.49-4.19-2.59-2.52-2.46-3.78-5.96-3.78-10.51v-19.29h-7.16v-9.02h7.16v-11.59h10.55v11.59h10.06v9.02h-10.06v17.47c0,2.15.46,3.7,1.37,4.63.75.88,2.04,1.32,3.86,1.32,1.02,0,1.86-.13,2.54-.4.67-.27,1.54-.72,2.62-1.37v10.3c-2.31.91-4.75,1.37-7.33,1.37-2.04,0-3.92-.32-5.63-.94Z"/><path class="cls-3" d="m94.12,264.21h10.54v14.57l-.64,7.16h.64c1.18-1.93,2.9-3.49,5.15-4.67,2.25-1.18,4.7-1.77,7.33-1.77,4.99,0,8.81,1.49,11.47,4.47,2.66,2.98,3.98,7.1,3.98,12.36v25.52h-10.54v-24.23c0-2.63-.71-4.67-2.13-6.12s-3.31-2.17-5.67-2.17c-2.79,0-5.08,1.13-6.88,3.38s-2.7,5.02-2.7,8.29v20.85h-10.54v-57.64Z"/><path class="cls-3" d="m150.79,320.32c-3.27-1.88-5.84-4.47-7.69-7.77-1.85-3.3-2.78-7.02-2.78-11.15,0-3.92.91-7.55,2.74-10.91,1.82-3.35,4.35-6.02,7.57-8.01,3.22-1.99,6.81-2.98,10.79-2.98,4.24,0,7.89.91,10.95,2.74,3.06,1.83,5.38,4.32,6.96,7.49,1.58,3.17,2.38,6.68,2.38,10.55,0,1.23-.08,2.42-.24,3.54h-30.83c.54,3.27,1.84,5.75,3.9,7.45,2.07,1.69,4.55,2.54,7.45,2.54,2.42,0,4.49-.52,6.24-1.57,1.74-1.05,3.12-2.46,4.15-4.23l8.53,4.19c-4.19,7.3-10.54,10.95-19.08,10.95-4.08,0-7.75-.94-11.03-2.82Zm20.77-23.99c-.11-1.29-.58-2.56-1.41-3.82-.83-1.26-1.99-2.31-3.46-3.14-1.48-.83-3.21-1.25-5.19-1.25-2.52,0-4.68.74-6.48,2.21-1.8,1.48-3.1,3.47-3.9,6h20.45Z"/><path class="cls-3" d="m210.11,264.21h36.55v10.3h-25.68v14.01h23.1v10.3h-23.1v23.02h-10.87v-57.64Z"/><path class="cls-3" d="m256.72,318.55c-2.58-3.06-3.86-7.33-3.86-12.8v-24.95h10.54v23.67c0,2.79.67,4.98,2.01,6.56,1.34,1.58,3.11,2.38,5.31,2.38,3,0,5.39-1.1,7.17-3.3,1.77-2.2,2.66-4.99,2.66-8.37v-20.93h10.54v41.05h-9.9v-5.15h-.64c-1.24,1.99-2.97,3.56-5.19,4.71-2.23,1.15-4.68,1.73-7.37,1.73-4.94,0-8.69-1.53-11.27-4.59Z"/><path class="cls-3" d="m314.04,322.2c-1.72-.63-3.11-1.49-4.19-2.59-2.52-2.46-3.78-5.96-3.78-10.51v-19.29h-7.16v-9.02h7.16v-11.59h10.55v11.59h10.06v9.02h-10.06v17.47c0,2.15.46,3.7,1.37,4.63.75.88,2.04,1.32,3.86,1.32,1.02,0,1.86-.13,2.54-.4.67-.27,1.54-.72,2.62-1.37v10.3c-2.31.91-4.75,1.37-7.33,1.37-2.04,0-3.92-.32-5.63-.94Z"/><path class="cls-3" d="m338.99,318.55c-2.58-3.06-3.86-7.33-3.86-12.8v-24.95h10.54v23.67c0,2.79.67,4.98,2.01,6.56,1.34,1.58,3.11,2.38,5.31,2.38,3,0,5.39-1.1,7.17-3.3,1.77-2.2,2.66-4.99,2.66-8.37v-20.93h10.54v41.05h-9.9v-5.15h-.64c-1.24,1.99-2.97,3.56-5.19,4.71-2.23,1.15-4.68,1.73-7.37,1.73-4.94,0-8.69-1.53-11.27-4.59Z"/><path class="cls-3" d="m383.67,280.8h9.9v5.47h.64c1.02-1.93,2.6-3.54,4.75-4.83s4.51-1.93,7.08-1.93c1.88,0,3.59.32,5.15.97v10.46c-1.45-.54-2.67-.93-3.66-1.17-.99-.24-2.05-.36-3.18-.36-3.11,0-5.58,1.13-7.41,3.39-1.83,2.26-2.74,5.11-2.74,8.55v20.5h-10.54v-41.05Z"/><path class="cls-3" d="m423.84,320.32c-3.27-1.88-5.84-4.47-7.69-7.77-1.85-3.3-2.78-7.02-2.78-11.15,0-3.92.91-7.55,2.74-10.91,1.82-3.35,4.35-6.02,7.57-8.01,3.22-1.99,6.81-2.98,10.79-2.98,4.24,0,7.89.91,10.95,2.74,3.06,1.83,5.38,4.32,6.96,7.49,1.58,3.17,2.38,6.68,2.38,10.55,0,1.23-.08,2.42-.24,3.54h-30.83c.54,3.27,1.84,5.75,3.9,7.45,2.07,1.69,4.55,2.54,7.45,2.54,2.42,0,4.49-.52,6.24-1.57,1.74-1.05,3.12-2.46,4.15-4.23l8.53,4.19c-4.19,7.3-10.54,10.95-19.08,10.95-4.08,0-7.75-.94-11.03-2.82Zm20.77-23.99c-.11-1.29-.58-2.56-1.41-3.82-.83-1.26-1.99-2.31-3.46-3.14-1.48-.83-3.21-1.25-5.19-1.25-2.52,0-4.68.74-6.48,2.21-1.8,1.48-3.1,3.47-3.9,6h20.45Z"/><path class="cls-3" d="m231.08,449.51h-22.75c-.92,0-1.67-.75-1.67-1.67v-80.06c0-.92.75-1.67,1.67-1.67h22.75c.92,0,1.67.75,1.67,1.67v7.09c0,.92-.75,1.67-1.67,1.67h-12.32c-.92,0-1.67.75-1.67,1.67v59.15c0,.92.75,1.67,1.67,1.67h12.32c.92,0,1.67.75,1.67,1.67v7.15c0,.92-.75,1.67-1.67,1.67Z"/><path class="cls-3" d="m281.67,366.12h22.65c.92,0,1.66.75,1.66,1.67v80.06c0,.92-.74,1.67-1.66,1.67h-22.65c-.92,0-1.66-.75-1.66-1.67v-7.09c0-.92.74-1.67,1.66-1.67h12.27c.92,0,1.66-.75,1.66-1.67v-59.15c0-.92-.74-1.67-1.66-1.67h-12.27c-.92,0-1.66-.75-1.66-1.67v-7.15c0-.92.74-1.67,1.66-1.67Z"/><path class="cls-3" d="m269.58,406.93l-4.11-6.08c-.07.36-.19.7-.36,1.02l-.02.03-7.81,11.81,12.43,18.74c.64,1.13,1.37,1.42,2.34,1.44,0,0,.02,0,.03,0h10.63c1.38,0,2.5-1.12,2.5-2.5v-1.31l-15.63-23.14h0Z"/><path class="cls-3" d="m285.22,384.26c0-1.38-1.12-2.5-2.5-2.5h-10.63c-1.38,0-2.51,1.17-2.5,2.5v20.8l15.63,23.14v-43.94Z"/><path class="cls-3" d="m243.48,384.26c0-1.38-1.12-2.5-2.5-2.5h-10.63c-1.38,0-2.5,1.12-2.5,2.5v44.16l15.63-23.07v-21.09Z"/><path class="cls-3" d="m264.09,398.76c-.11-.19-.24-.38-.39-.55-.47-.49-1.14-.81-1.92-.81h-10.2c-1.01,0-1.82.54-2.42,1.44l-5.44,8.01-15.88,23.44v1.09c0,.35.08.67.23.95.39.91,1.25,1.55,2.46,1.55h10.44s0,0,.01,0h.24c1.01,0,1.83-.53,2.42-1.44l13.02-19.68h0s7.55-11.42,7.55-11.42c.42-.76.37-1.75-.12-2.58Z"/><path class="cls-3" d="m59.89,176l1.46-3.08,20.07,9.49-1.46,3.08-20.06-9.49Z"/><path class="cls-3" d="m69.3,171.02l1.54-2.76,1.9,1.06.09-.16c-.47-.78-.69-1.69-.69-2.72s.27-2.01.78-2.94c.92-1.66,2.12-2.65,3.59-2.97,1.47-.32,3.06,0,4.77.95l8.72,4.85-1.61,2.9-8.34-4.64c-1.08-.6-2.04-.78-2.88-.54s-1.51.84-2.04,1.78c-.38.69-.53,1.4-.45,2.14.08.74.36,1.44.82,2.09.47.65,1.07,1.18,1.81,1.59l7.42,4.13-1.63,2.93-13.81-7.69Z"/><path class="cls-3" d="m94.09,160.42c-.52.39-1.05.64-1.6.75-1.21.27-2.48-.03-3.8-.89l-7.08-4.63-1.51,2.31-2.44-1.6,1.51-2.31-3.74-2.44,1.83-2.8,3.74,2.44,2.12-3.24,2.44,1.6-2.12,3.24,6.51,4.26c.75.49,1.36.69,1.84.61.53-.07.99-.41,1.39-1.02.2-.31.34-.6.41-.88.07-.28.11-.61.12-1l2.72,1.78c-.13.76-.46,1.54-.99,2.36-.38.59-.84,1.08-1.35,1.47Z"/><path class="cls-3" d="m98.97,151.98c-1.32.54-2.7.7-4.13.48-1.43-.22-2.78-.81-4.04-1.78-1.2-.92-2.11-2.03-2.73-3.35-.62-1.32-.87-2.68-.75-4.1.12-1.42.63-2.73,1.55-3.93.96-1.26,2.07-2.15,3.32-2.65,1.25-.5,2.55-.62,3.89-.37,1.34.25,2.62.85,3.86,1.79.33.25.59.48.8.69l-7.4,9.72c1.29.8,2.54,1.08,3.75.83,1.21-.25,2.19-.86,2.95-1.85.61-.8.96-1.64,1.02-2.49.07-.86-.07-1.69-.42-2.5l2.73-1.39c.6,1.36.83,2.75.69,4.15-.13,1.4-.71,2.77-1.72,4.1-.93,1.22-2.05,2.09-3.37,2.63Zm-2.21-12.14c-.49-.32-1.06-.52-1.72-.61-.66-.09-1.33,0-2.02.27-.69.27-1.31.78-1.88,1.51-.68.89-.98,1.85-.91,2.88.07,1.03.47,2,1.2,2.92l5.32-6.98Z"/><path class="cls-3" d="m96.51,130.56l2.1-2.36,1.74,1.54.12-.14c-.37-.8-.47-1.7-.3-2.69.17-1,.58-1.87,1.24-2.61.48-.54.99-.94,1.53-1.21l2.57,2.29c-.84.39-1.52.87-2.04,1.46-.78.88-1.09,1.91-.91,3.09.17,1.18.75,2.2,1.72,3.07l6.27,5.57-2.22,2.5-11.82-10.5Z"/><path class="cls-3" d="m105.33,120.74l2.27-2.2,1.51,1.56.13-.13c-.22-.88-.17-1.81.14-2.8.31-.99.84-1.85,1.6-2.58,1.37-1.32,2.8-1.92,4.29-1.8,1.5.12,2.93.89,4.29,2.3l6.94,7.17-2.38,2.3-6.64-6.86c-.86-.89-1.73-1.34-2.6-1.35-.87,0-1.69.36-2.46,1.11-.56.55-.92,1.19-1.05,1.92-.14.74-.08,1.48.18,2.24.26.76.68,1.44,1.27,2.05l5.91,6.11-2.41,2.33-10.99-11.37Z"/><path class="cls-3" d="m130.3,118.8c-.97.21-1.9.17-2.79-.15-.89-.31-1.67-.87-2.32-1.67-.69-.85-1.06-1.77-1.12-2.75s.17-1.95.67-2.9c.5-.95,1.23-1.82,2.17-2.59.72-.59,1.43-1.05,2.13-1.39.7-.34,1.29-.56,1.79-.67l-.53-.65c-.64-.79-1.45-1.19-2.42-1.21-.97-.02-1.92.34-2.83,1.08-.62.51-1.1,1.13-1.44,1.87-.33.74-.47,1.48-.42,2.24l-2.89.08c-.08-1.18.14-2.34.68-3.47.53-1.13,1.32-2.11,2.37-2.96,1.76-1.43,3.49-2.11,5.17-2.02,1.68.08,3.16.91,4.44,2.49l6.24,7.67-2.53,2.05-1.23-1.52-.14.12c.09.83-.05,1.7-.41,2.59-.36.9-.96,1.68-1.8,2.36-.88.72-1.81,1.18-2.78,1.4Zm2.89-5.78c.27-.74.34-1.5.21-2.27-.13-.77-.45-1.46-.94-2.07-.57.09-1.15.27-1.75.55s-1.17.63-1.72,1.08c-1.01.82-1.59,1.62-1.74,2.41-.15.79.05,1.51.58,2.16.47.58,1.07.88,1.8.89.73.02,1.46-.27,2.18-.85.64-.52,1.1-1.15,1.38-1.9Z"/><path class="cls-3" d="m145.43,107.62c-.63.17-1.21.2-1.77.1-1.22-.2-2.29-.94-3.19-2.23l-4.86-6.93-2.26,1.58-1.67-2.39,2.26-1.58-2.56-3.66,2.74-1.92,2.56,3.66,3.17-2.22,1.67,2.39-3.17,2.22,4.47,6.37c.51.73,1,1.15,1.48,1.25.52.13,1.07-.02,1.67-.43.3-.21.54-.43.71-.67.17-.23.33-.53.48-.88l1.87,2.67c-.4.66-.99,1.26-1.79,1.82-.58.4-1.18.69-1.8.86Z"/><path class="cls-3" d="m141.87,87.18c-.61-.14-1.08-.47-1.41-1-.33-.53-.42-1.09-.28-1.69.15-.6.48-1.07,1.01-1.4s1.09-.43,1.7-.3c.61.13,1.07.46,1.4.98.33.53.42,1.09.28,1.71-.14.61-.47,1.08-1,1.41-.52.33-1.09.42-1.71.29Zm1.53,2.58l2.83-1.78,8.41,13.39-2.83,1.78-8.41-13.39Z"/><path class="cls-3" d="m160.19,97.34c-1.46-.05-2.8-.47-4.03-1.26-1.23-.79-2.21-1.88-2.96-3.26-.75-1.38-1.11-2.8-1.1-4.27,0-1.46.39-2.81,1.16-4.06.76-1.25,1.84-2.24,3.24-3,1.38-.75,2.81-1.09,4.27-1.03,1.46.06,2.81.48,4.03,1.28s2.21,1.87,2.94,3.24c.75,1.38,1.11,2.8,1.1,4.27-.01,1.46-.39,2.81-1.14,4.05-.75,1.24-1.83,2.24-3.23,2.99-1.4.76-2.83,1.11-4.29,1.06Zm4.68-5.5c.45-.73.68-1.56.7-2.49.02-.93-.23-1.86-.74-2.81-.51-.95-1.16-1.67-1.94-2.16-.78-.49-1.6-.75-2.46-.78-.86-.03-1.68.17-2.46.59-.78.42-1.4,1-1.86,1.74-.46.74-.7,1.57-.71,2.5-.02.92.23,1.86.74,2.81.51.95,1.16,1.67,1.94,2.16.78.49,1.61.75,2.48.78s1.7-.17,2.48-.6c.78-.42,1.4-1,1.85-1.74Z"/><path class="cls-3" d="m167.35,76.45l2.91-1.24.85,2,.17-.07c.11-.9.48-1.76,1.13-2.57s1.45-1.43,2.42-1.84c1.75-.75,3.3-.8,4.65-.15,1.36.65,2.42,1.87,3.19,3.68l3.92,9.18-3.05,1.3-3.75-8.78c-.49-1.14-1.14-1.87-1.95-2.19-.81-.32-1.71-.26-2.7.16-.72.31-1.28.78-1.67,1.42-.39.64-.6,1.36-.63,2.16-.03.8.12,1.59.46,2.37l3.34,7.81-3.08,1.32-6.21-14.54Z"/><path class="cls-3" d="m191.37,83.56c-.98-.15-1.83-.52-2.56-1.14-.72-.61-1.25-1.41-1.57-2.39-.34-1.04-.36-2.03-.06-2.97.3-.94.86-1.76,1.67-2.47.81-.71,1.8-1.26,2.96-1.64.88-.29,1.71-.47,2.48-.54.77-.07,1.41-.06,1.91.01l-.26-.8c-.32-.96-.92-1.63-1.83-2-.9-.37-1.92-.37-3.03,0-.77.25-1.44.66-2.01,1.23-.58.57-.97,1.21-1.19,1.94l-2.73-.96c.35-1.14.97-2.13,1.88-3,.9-.86,1.99-1.5,3.27-1.92,2.16-.71,4.01-.72,5.55-.04s2.62,1.99,3.25,3.91l3.08,9.4-3.09,1.01-.61-1.86-.18.06c-.21.81-.65,1.57-1.31,2.27-.66.71-1.5,1.23-2.52,1.56-1.08.35-2.11.46-3.09.31Zm4.77-4.37c.52-.59.86-1.28,1.01-2.04.15-.77.1-1.52-.14-2.27-.56-.12-1.17-.16-1.83-.12-.66.04-1.33.17-1.99.39-1.24.4-2.06.95-2.48,1.63-.42.68-.5,1.42-.23,2.23.23.71.69,1.2,1.36,1.48.68.28,1.46.27,2.34-.02.79-.26,1.44-.68,1.96-1.28Z"/><path class="cls-3" d="m199.84,57.93l3.24-.84,5.61,21.48-3.24.85-5.6-21.48Z"/><path class="cls-3" d="m213.32,54.27l3.75-.5,5.4,13.82.62,1.86.18-.02.21-1.97,2.53-14.88,3.38-.45,6.14,13.73.71,1.81.18-.02.12-1.92,1.6-14.76,3.72-.49-2.89,22.77-3.57.47-6.15-14.04-.76-1.99-.18.02-.25,2.13-2.46,15.18-3.47.46-8.82-21.22Z"/><path class="cls-3" d="m248.08,72.2c-1.28-.71-2.28-1.69-3.01-2.96-.73-1.27-1.11-2.68-1.14-4.25-.03-1.57.29-3,.96-4.3s1.64-2.32,2.88-3.08,2.66-1.16,4.25-1.19c1.57-.03,2.99.31,4.27,1.03,1.28.72,2.28,1.71,3.01,2.98.73,1.27,1.11,2.67,1.14,4.22.03,1.57-.29,3-.97,4.3-.67,1.3-1.63,2.32-2.86,3.08-1.24.76-2.65,1.16-4.24,1.19-1.59.03-3.03-.31-4.3-1.01Zm6.67-2.76c.74-.45,1.32-1.08,1.76-1.9.44-.81.64-1.76.62-2.83-.02-1.07-.27-2.01-.74-2.8-.47-.8-1.08-1.41-1.84-1.82-.75-.42-1.57-.62-2.46-.6-.89.02-1.7.25-2.45.7-.75.45-1.34,1.08-1.77,1.9s-.65,1.76-.62,2.83.27,2.01.74,2.81c.47.8,1.09,1.4,1.85,1.82.76.42,1.59.62,2.48.6.89-.02,1.7-.25,2.44-.7Z"/><path class="cls-3" d="m264.26,56.67l3.15.29-.2,2.16.19.02c.55-.74,1.28-1.31,2.19-1.73s1.88-.57,2.91-.48c1.13.11,2.09.47,2.87,1.08.79.61,1.32,1.38,1.61,2.3.64-.83,1.43-1.47,2.38-1.93.94-.45,2.02-.62,3.24-.51,1.81.17,3.13.85,3.95,2.04.82,1.19,1.14,2.73.97,4.62l-.95,10.09-3.3-.31.89-9.54c.23-2.43-.69-3.74-2.75-3.93-1.13-.11-2.1.26-2.89,1.1-.79.84-1.26,1.94-1.38,3.3l-.79,8.43-3.3-.31.89-9.54c.23-2.43-.72-3.74-2.84-3.94-1.09-.1-2.03.27-2.81,1.12-.79.85-1.24,1.95-1.37,3.31l-.79,8.4-3.33-.31,1.47-15.74Z"/><path class="cls-3" d="m292.82,75.45c-1.05-.96-1.79-2.14-2.2-3.52-.42-1.39-.46-2.86-.13-4.42.31-1.48.93-2.78,1.85-3.9.92-1.13,2.05-1.94,3.38-2.44,1.33-.5,2.73-.6,4.21-.29,1.56.33,2.83.95,3.82,1.87.99.92,1.66,2.03,2,3.35.34,1.32.36,2.74.04,4.25-.08.4-.18.74-.28,1.02l-11.95-2.52c-.17,1.51.12,2.75.86,3.75.74.99,1.72,1.61,2.93,1.87.99.21,1.89.16,2.69-.14.8-.31,1.5-.79,2.08-1.45l2.43,1.87c-.98,1.12-2.13,1.93-3.46,2.41-1.33.48-2.81.55-4.45.2-1.5-.32-2.77-.95-3.83-1.92Zm10.03-7.2c.08-.58.01-1.18-.19-1.81s-.58-1.2-1.11-1.71c-.54-.5-1.26-.85-2.17-1.04-1.09-.23-2.09-.09-2.99.42-.9.51-1.61,1.29-2.12,2.34l8.58,1.81Z"/><path class="cls-3" d="m311.28,64.01l3.02.93-.64,2.07.18.05c.67-.62,1.51-1.03,2.52-1.23,1.01-.21,2.03-.16,3.03.15,1.82.56,3.04,1.52,3.65,2.89.62,1.37.64,2.99.06,4.87l-2.93,9.54-3.17-.97,2.81-9.13c.36-1.18.34-2.16-.07-2.92-.41-.77-1.13-1.31-2.16-1.62-.75-.23-1.48-.23-2.19,0-.71.24-1.34.65-1.87,1.24-.54.59-.93,1.29-1.18,2.1l-2.5,8.12-3.2-.98,4.65-15.11Z"/><path class="cls-3" d="m327.99,69.31l2.43-1.6c-.4-.28-.69-.66-.86-1.12-.17-.46-.16-.94.03-1.45.23-.62.64-1.06,1.22-1.31.58-.25,1.17-.27,1.77-.04.62.23,1.06.63,1.32,1.21.26.57.27,1.17.04,1.79-.12.33-.3.61-.54.86-.24.24-.55.51-.95.8l-3.38,2.37-1.09-1.5Z"/><path class="cls-3" d="m329.77,86.27c-.76-1.19-1.11-2.45-1.04-3.8h3.28c0,.93.23,1.73.68,2.41.45.68,1.07,1.19,1.87,1.54.81.35,1.56.5,2.24.45.68-.06,1.14-.38,1.4-.96.23-.53.18-1.05-.15-1.57-.33-.51-.94-1.1-1.82-1.75l-1.56-1.15c-1.03-.79-1.77-1.7-2.22-2.75-.45-1.05-.43-2.12.05-3.22.36-.83.93-1.47,1.72-1.89.78-.43,1.67-.63,2.67-.62,1,.02,2,.24,3,.68,1.36.59,2.44,1.37,3.22,2.34.78.97,1.18,2.07,1.19,3.29l-3.16.05c-.09-1.41-.87-2.44-2.35-3.08-.72-.31-1.39-.42-2-.33s-1.02.37-1.22.82c-.37.85.1,1.79,1.42,2.81l1.88,1.42c1.27.98,2.11,1.98,2.53,3.02.42,1.04.4,2.09-.07,3.15-.39.91-1,1.6-1.82,2.06-.82.47-1.77.69-2.84.68-1.08-.02-2.16-.26-3.26-.74-1.65-.71-2.85-1.67-3.61-2.85Z"/><path class="cls-3" d="m359.87,76.65l6.09,3.65c1.97,1.18,3.45,2.6,4.43,4.28.98,1.67,1.44,3.47,1.36,5.39-.08,1.92-.67,3.81-1.79,5.67-1.11,1.86-2.5,3.28-4.15,4.25-1.65.97-3.45,1.42-5.39,1.34-1.94-.08-3.9-.71-5.86-1.88l-6.09-3.65,11.4-19.04Zm-3.73,19.88c2.16,1.29,4.2,1.7,6.12,1.22,1.91-.48,3.5-1.77,4.76-3.89,1.26-2.11,1.65-4.12,1.17-6.04-.48-1.91-1.8-3.52-3.97-4.81l-3.08-1.85-8.09,13.51,3.08,1.85Z"/><path class="cls-3" d="m368.2,107.87c-.45-.89-.63-1.8-.55-2.74s.43-1.83,1.04-2.66c.65-.88,1.45-1.47,2.39-1.76.94-.29,1.93-.32,2.98-.07,1.05.25,2.06.74,3.04,1.46.75.55,1.37,1.13,1.87,1.72.5.59.87,1.11,1.1,1.56l.5-.67c.6-.81.79-1.7.57-2.64-.22-.95-.81-1.77-1.75-2.48-.65-.48-1.37-.79-2.17-.93-.8-.14-1.55-.09-2.27.15l-.79-2.79c1.13-.37,2.3-.44,3.53-.2,1.22.24,2.38.76,3.46,1.56,1.83,1.35,2.91,2.85,3.24,4.5.33,1.65-.1,3.29-1.31,4.92l-5.89,7.95-2.62-1.94,1.16-1.57-.15-.11c-.79.29-1.66.38-2.61.25-.96-.13-1.87-.52-2.73-1.16-.91-.68-1.59-1.46-2.04-2.34Zm6.32,1.36c.79.08,1.54-.04,2.25-.36.71-.32,1.3-.8,1.77-1.43-.23-.53-.55-1.05-.96-1.56s-.91-.98-1.47-1.4c-1.05-.78-1.97-1.14-2.77-1.08s-1.45.42-1.95,1.1c-.44.6-.58,1.25-.42,1.97.16.71.62,1.35,1.37,1.9.66.49,1.39.78,2.18.86Z"/><path class="cls-3" d="m383.71,119.16l4.89-15.59,2.8,2.45-3.71,11.09.12.1,10.4-5.22,2.77,2.43-22.18,10.47-2.68-2.35,7.6-3.4Z"/><path class="cls-3" d="m398.76,130.13c5.91.34,9.59.51,11.04.52,1.32.04,2.31-.01,2.97-.17.67-.15,1.3-.5,1.9-1.04.62-.55.94-1.27.97-2.14.03-.88-.31-1.71-1.03-2.51-.66-.74-1.41-1.15-2.24-1.22-.83-.08-1.61.06-2.33.4l-1.08-3.07c.69-.34,1.5-.54,2.42-.6.92-.06,1.88.1,2.88.48,1,.38,1.92,1.03,2.75,1.95.9,1,1.48,2.07,1.75,3.21.27,1.14.25,2.23-.06,3.28-.31,1.04-.89,1.94-1.72,2.68-1.66,1.49-4.08,2.15-7.27,1.97-1.28-.07-2.73-.15-4.33-.24-1.62-.1-2.86-.17-3.72-.2l-.05.08,6.21,6.93-2.26,2.03-9.16-10.23,2.36-2.11Z"/><path class="cls-3" d="m410.49,147.15c0-1.63.46-3.24,1.39-4.81.93-1.58,2.23-2.98,3.91-4.23,1.68-1.24,3.41-2.08,5.18-2.51,1.78-.43,3.45-.41,5.01.07,1.56.48,2.86,1.41,3.89,2.81,1.03,1.4,1.55,2.91,1.56,4.55,0,1.64-.46,3.25-1.38,4.83-.93,1.58-2.23,2.98-3.91,4.23s-3.4,2.08-5.18,2.51c-1.78.43-3.45.4-5.02-.08-1.57-.49-2.87-1.42-3.9-2.82-1.03-1.4-1.55-2.91-1.55-4.54Zm6.62,4.33c1.04.24,2.16.17,3.38-.21,1.21-.37,2.43-1.01,3.64-1.91,1.21-.9,2.18-1.88,2.9-2.94s1.11-2.12,1.18-3.17c.07-1.05-.22-2.02-.88-2.9-.64-.86-1.47-1.41-2.49-1.65-1.02-.23-2.14-.16-3.37.22-1.22.38-2.44,1.02-3.65,1.92-1.21.9-2.17,1.87-2.88,2.93-.71,1.05-1.11,2.11-1.19,3.16-.08,1.05.2,2.01.84,2.87.65.88,1.5,1.44,2.53,1.67Z"/><path class="cls-3" d="m421.52,158.67c5.75,1.42,9.33,2.27,10.75,2.54,1.28.28,2.27.41,2.95.38.68-.03,1.37-.25,2.06-.67.71-.43,1.16-1.07,1.35-1.93.19-.86.01-1.74-.54-2.66-.51-.85-1.17-1.38-1.98-1.61-.8-.23-1.59-.24-2.36-.04l-.5-3.21c.74-.21,1.57-.26,2.49-.15.91.11,1.83.44,2.75,1,.92.55,1.7,1.36,2.34,2.42.7,1.15,1.07,2.31,1.13,3.48.06,1.17-.16,2.24-.66,3.21-.5.97-1.23,1.74-2.18,2.32-1.91,1.16-4.41,1.36-7.5.6-1.25-.31-2.65-.65-4.22-1.03-1.57-.4-2.78-.69-3.62-.89l-.06.08,4.83,7.95-2.6,1.58-7.13-11.74,2.7-1.64Z"/><path class="cls-3" d="m435.38,181.28l-4.39-8.96,2.34-1.15,17.16,2.39,1.58,3.23-12.44,6.1,1.19,2.42-2.78,1.36-1.19-2.42-3.81,1.87-1.46-2.98,3.81-1.87Zm2.78-1.37l8.02-3.93-.08-.17-10.68-1.5,2.74,5.59Z"/></svg>